<svg width="34" height="32" viewBox="0 0 34 32" fill="none" xmlns="http://www.w3.org/2000/svg">
<path d="M33.9629 25.4629C33.748 26.2246 33.4648 26.9766 33.1133 27.7188C32.7812 28.4414 32.3223 29.0957 31.7363 29.6816C31.1699 30.2676 30.457 30.7363 29.5977 31.0879C28.7578 31.459 27.7324 31.6445 26.5215 31.6445C25.7598 31.6445 25.0566 31.5566 24.4121 31.3809C23.7871 31.2051 23.1914 30.9609 22.625 30.6484C22.0586 30.3164 21.5117 29.9453 20.9844 29.5352C20.4766 29.1055 19.959 28.6367 19.4316 28.1289C18.8066 28.5781 18.123 29.0176 17.3809 29.4473C16.6387 29.8574 15.8379 30.2285 14.9785 30.5605C14.1387 30.8926 13.2305 31.1562 12.2539 31.3516C11.2969 31.5469 10.291 31.6445 9.23633 31.6445C7.81055 31.6445 6.53125 31.4492 5.39844 31.0586C4.26562 30.6875 3.29883 30.1602 2.49805 29.4766C1.69727 28.793 1.08203 27.9922 0.652344 27.0742C0.222656 26.1367 0.0078125 25.1113 0.0078125 23.998C0.0078125 22.7285 0.310547 21.5664 0.916016 20.5117C1.52148 19.457 2.29297 18.5098 3.23047 17.6699C4.16797 16.8301 5.19336 16.0977 6.30664 15.4727C7.43945 14.8281 8.5332 14.291 9.58789 13.8613C9.31445 13.3926 9.07031 12.875 8.85547 12.3086C8.66016 11.8203 8.48438 11.2539 8.32812 10.6094C8.19141 9.94531 8.12305 9.24219 8.12305 8.5C8.12305 7.32812 8.33789 6.25391 8.76758 5.27734C9.19727 4.28125 9.79297 3.43164 10.5547 2.72852C11.3359 2.00586 12.2539 1.43945 13.3086 1.0293C14.3828 0.619141 15.5547 0.414062 16.8242 0.414062C17.8789 0.414062 18.8262 0.550781 19.666 0.824219C20.5254 1.09766 21.248 1.46875 21.834 1.9375C22.4199 2.40625 22.8691 2.95312 23.1816 3.57812C23.5137 4.20312 23.6797 4.86719 23.6797 5.57031C23.6797 6.625 23.4551 7.5918 23.0059 8.4707C22.5762 9.33008 22.0098 10.1113 21.3066 10.8145C20.6035 11.5176 19.8125 12.1328 18.9336 12.6602C18.0547 13.168 17.1758 13.5781 16.2969 13.8906C16.8438 14.8086 17.3223 15.5898 17.7324 16.2344C18.1426 16.8789 18.5527 17.4844 18.9629 18.0508C19.3926 18.5977 19.8613 19.1641 20.3691 19.75C20.877 20.3164 21.502 20.9902 22.2441 21.7715C22.6348 21.3613 23.0352 20.9023 23.4453 20.3945C23.8555 19.8672 24.2266 19.3398 24.5586 18.8125C24.8906 18.2852 25.1641 17.7773 25.3789 17.2891C25.5938 16.7812 25.7012 16.3223 25.7012 15.9121C25.7012 15.2871 25.5449 14.7207 25.2324 14.2129C24.9199 13.6855 24.2949 13.3535 23.3574 13.2168V11.752H33.7285V13.2168C33.5137 13.2363 33.2793 13.2656 33.0254 13.3047C32.7715 13.3438 32.5176 13.3926 32.2637 13.4512C32.0293 13.5098 31.8047 13.5781 31.5898 13.6562C31.375 13.7344 31.1992 13.8223 31.0625 13.9199C30.8086 14.0957 30.5742 14.3398 30.3594 14.6523C30.1445 14.9648 29.9297 15.3164 29.7148 15.707C29.5195 16.0977 29.3047 16.5176 29.0703 16.9668C28.8555 17.3965 28.6211 17.8262 28.3672 18.2559C27.918 18.998 27.3613 19.8184 26.6973 20.7168C26.0332 21.6152 25.2324 22.6211 24.2949 23.7344C25.2715 24.7109 26.1895 25.4629 27.0488 25.9902C27.9277 26.498 28.7578 26.752 29.5391 26.752C29.793 26.752 30.0469 26.7227 30.3008 26.6641C30.5547 26.6055 30.7988 26.498 31.0332 26.3418C31.2871 26.166 31.5312 25.9316 31.7656 25.6387C32.0195 25.3262 32.2539 24.9258 32.4688 24.4375L33.9629 25.4629ZM19.0801 6.03906C19.0801 4.75 18.7773 3.79297 18.1719 3.16797C17.5664 2.54297 16.7266 2.23047 15.6523 2.23047C14.832 2.23047 14.1973 2.52344 13.748 3.10938C13.3184 3.69531 13.1035 4.4375 13.1035 5.33594C13.1035 5.88281 13.1914 6.48828 13.3672 7.15234C13.543 7.81641 13.748 8.46094 13.9824 9.08594C14.2168 9.69141 14.4512 10.248 14.6855 10.7559C14.9199 11.2441 15.0859 11.5859 15.1836 11.7812C15.4961 11.6445 15.877 11.3906 16.3262 11.0195C16.7754 10.6484 17.2051 10.209 17.6152 9.70117C18.0254 9.17383 18.3672 8.59766 18.6406 7.97266C18.9336 7.34766 19.0801 6.70312 19.0801 6.03906ZM17.293 26.1367C16.4141 25.0625 15.6621 24.0859 15.0371 23.207C14.4316 22.3281 13.8848 21.5078 13.3965 20.7461C12.9082 19.9648 12.4492 19.2031 12.0195 18.4609C11.5898 17.6992 11.1309 16.9082 10.6426 16.0879C10.0957 16.3027 9.56836 16.625 9.06055 17.0547C8.55273 17.4844 8.09375 17.9824 7.68359 18.5488C7.29297 19.1152 6.98047 19.7305 6.74609 20.3945C6.51172 21.0586 6.39453 21.7422 6.39453 22.4453C6.39453 23.3438 6.54102 24.1543 6.83398 24.877C7.12695 25.5996 7.50781 26.2148 7.97656 26.7227C8.46484 27.2305 9.01172 27.6211 9.61719 27.8945C10.2422 28.168 10.877 28.3047 11.5215 28.3047C12.3027 28.3047 13.0352 28.1973 13.7188 27.9824C14.4219 27.748 15.0371 27.4941 15.5645 27.2207C16.1895 26.9082 16.7656 26.5469 17.293 26.1367Z" fill="#818181"/>
</svg>
