<svg width="423" height="231" viewBox="0 0 423 231" fill="none" xmlns="http://www.w3.org/2000/svg">
<path d="M0 0C165.192 0 257.808 0 423 0V61H0V0Z" fill="#114C60"/>
<rect y="61" width="423" height="170" fill="#8BD298"/>
<path d="M423 61V124.5L344.5 231H292L423 61Z" fill="#C7D9BF"/>
<path d="M-2.74181e-06 231V167.5L77.9008 61H130L-2.74181e-06 231Z" fill="#C7D9BF"/>
<path d="M422.999 163V231H373.5L422.999 163Z" fill="#C7D9BF"/>
<path d="M-1.80951e-07 129L-1.80951e-07 61L48 61L-1.80951e-07 129Z" fill="#C7D9BF"/>
<path d="M252.001 125.44L287.361 145.84L252.001 166.24L216.641 145.84L252.001 125.44Z" fill="#4F7A5E"/>
<path d="M184 164.88L252 126.102V86L184 126.102V164.88Z" fill="#6DB486"/>
<path d="M320 164.88L252 126V85.9998L320 126.075V164.88Z" fill="#6DB486"/>
<path d="M184 126.8L252 165.577V205.68L184 165.577V126.8Z" fill="#65E291"/>
<path d="M320 126.8L252 165.708V205.68L320 165.708V126.8Z" fill="#65E291"/>
<path d="M267 167L284 157V187L267 196.5V167Z" fill="#4F7A5E"/>
</svg>
