<svg width="2476" height="797" viewBox="0 0 2476 797" fill="none" xmlns="http://www.w3.org/2000/svg">
<path d="M2100.32 451.28C2118.17 433.627 2134.35 410.777 2136.94 385.81C2139.54 360.843 2133.4 335.747 2119.57 314.8C2105.74 293.853 2085.07 278.35 2061.09 270.933C2037.11 263.516 2011.29 264.643 1988.05 274.123C1964.81 283.603 1945.57 300.849 1933.62 322.922C1921.66 344.995 1917.74 370.53 1922.5 395.176C1927.26 419.822 1940.42 442.054 1959.74 458.084C1979.06 474.114 2003.34 482.95 2028.44 483.086" stroke="#35353F" stroke-width="50"/>
<rect x="1887.01" y="499.633" width="362.108" height="309.886" rx="37.5" transform="rotate(-25.4928 1887.01 499.633)" fill="#FAE266" stroke="#35353F" stroke-width="25"/>
<circle cx="2094.83" cy="514.802" r="64.2417" transform="rotate(-25.4928 2094.83 514.802)" fill="#35353F"/>
<path d="M2090.03 503.775L2223.39 607.461L2178.63 669.806L2090.03 669.806L2090.03 503.775Z" fill="#35353F"/>
<path d="M1113.35 329.396L1187.95 294.307C1222.84 277.9 1263.65 278.387 1298.26 295.217C1332.79 312.005 1334.34 361.539 1299.84 379.362C1264.17 397.788 1221.84 398.072 1185.93 380.126L1114.47 344.424L1091.43 348.399L1073.72 351.455C1079.28 368.77 1097.07 386.138 1127.15 399.587C1160.93 414.69 1205.64 422.687 1251.6 421.555C1297.58 420.423 1340.39 410.264 1370.86 393.683C1401.61 376.948 1415.4 356.268 1414.15 337.103C1412.88 317.679 1396.09 297.198 1363.02 281.409C1330.31 265.791 1286.18 257.062 1240.16 257.439C1194.13 257.817 1150.64 267.267 1119.03 283.378C1092.45 296.926 1077.11 318.028 1073.19 336.323L1088.88 333.617L1113.35 329.396Z" fill="#969892" stroke="#35353F" stroke-width="15"/>
<path d="M1460 341.233L1531.11 299.513C1564.36 280.005 1605.05 276.783 1641.05 290.4C1676.96 303.983 1683 353.171 1650.26 374.054C1616.41 395.644 1574.28 399.771 1536.89 385.161L1462.49 356.096L1439.9 362.147L1422.54 366.8C1429.65 383.538 1448.95 399.219 1480.12 409.88C1515.13 421.852 1560.38 425.756 1606.05 420.455C1651.74 415.151 1693.45 401.145 1722.29 381.865C1751.39 362.407 1763.25 340.56 1760.26 321.587C1757.24 302.358 1738.65 283.488 1704.28 270.768C1670.29 258.185 1625.55 253.5 1579.75 258.056C1533.95 262.612 1491.49 275.974 1461.48 294.889C1436.24 310.795 1422.88 333.204 1420.64 351.778L1436.02 347.658L1460 341.233Z" fill="#969892" stroke="#35353F" stroke-width="15"/>
<path d="M1280.7 309.555H1411.37H1542.05C1558.61 309.555 1572.04 322.981 1572.04 339.544C1572.04 356.106 1558.61 369.533 1542.05 369.533H1280.7C1264.14 369.533 1250.71 356.106 1250.71 339.544C1250.71 322.981 1264.14 309.555 1280.7 309.555Z" fill="#969892" stroke="#35353F" stroke-width="15"/>
<path d="M1808.8 283.654L1875.87 235.705C1907.23 213.285 1947.46 206.415 1984.54 216.737C2021.52 227.033 2031.97 275.477 2001.24 299.222C1969.47 323.771 1927.89 331.672 1889.33 320.487L1812.61 298.234L1790.67 306.293L1773.79 312.489C1782.38 328.519 1803.01 342.4 1835.01 350.213C1870.96 358.986 1916.38 358.802 1961.39 349.413C2006.41 340.019 2046.7 322.316 2073.68 300.521C2100.91 278.522 2110.75 255.697 2106.07 237.07C2101.33 218.192 2081.12 201.07 2045.75 191.494C2010.76 182.022 1965.78 181.382 1920.58 190.039C1875.38 198.699 1834.29 215.827 1806.1 237.366C1782.4 255.479 1771.1 278.999 1770.55 297.699L1785.5 292.212L1808.8 283.654Z" fill="#969892" stroke="#35353F" stroke-width="15"/>
<path d="M1628.48 296.498L1757.02 272.967L1885.56 249.436C1901.85 246.454 1917.47 257.243 1920.46 273.535C1923.44 289.827 1912.65 305.452 1896.36 308.434L1639.28 355.496C1622.99 358.478 1607.36 347.689 1604.38 331.397C1601.4 315.105 1612.19 299.48 1628.48 296.498Z" fill="#969892" stroke="#35353F" stroke-width="15"/>
<path d="M2152.1 180.4L2210.15 121.855C2237.29 94.4807 2275.8 80.9427 2314.08 84.8827C2352.27 88.8129 2370.72 134.81 2344.42 163.385C2317.23 192.926 2277.57 207.708 2237.68 203.166L2158.31 194.131L2138.03 205.766L2122.44 214.712C2133.6 229.069 2156.27 239.284 2189.14 241.602C2226.05 244.206 2270.79 236.387 2313.57 219.563C2356.38 202.731 2393.11 178.506 2416.05 152.483C2439.19 126.218 2445.06 102.063 2437.31 84.4883C2429.46 66.6766 2406.66 53.1972 2370.18 49.7058C2334.1 46.2521 2289.65 53.1851 2246.55 69.3204C2203.44 85.4585 2165.83 109.251 2141.66 135.224C2121.34 157.065 2114.16 182.15 2116.76 200.677L2130.57 192.755L2152.1 180.4Z" fill="#969892" stroke="#35353F" stroke-width="15"/>
<path d="M1976.51 223.381L2099.26 178.57L2222.01 133.758C2237.57 128.079 2254.79 136.087 2260.47 151.645C2266.15 167.203 2258.14 184.42 2242.58 190.099L1997.08 279.722C1981.52 285.402 1964.3 277.394 1958.62 261.835C1952.94 246.277 1960.95 229.061 1976.51 223.381Z" fill="#969892" stroke="#35353F" stroke-width="15"/>
<path d="M1016 341.233L944.887 299.513C911.638 280.005 870.951 276.783 834.952 290.4C799.043 303.983 792.998 353.171 825.739 374.054C859.59 395.644 901.715 399.771 939.112 385.161L1013.51 356.096L1036.1 362.147L1053.46 366.8C1046.35 383.538 1027.05 399.219 995.879 409.88C960.869 421.852 915.617 425.756 869.949 420.455C824.257 415.151 782.545 401.145 753.711 381.865C724.608 362.407 712.752 340.56 715.738 321.587C718.764 302.358 737.351 283.488 771.717 270.768C805.711 258.185 850.451 253.5 896.245 258.056C942.048 262.612 984.506 275.974 1014.52 294.889C1039.76 310.795 1053.12 333.204 1055.36 351.778L1039.98 347.658L1016 341.233Z" fill="#969892" stroke="#35353F" stroke-width="15"/>
<path d="M1195.3 309.555H1064.63H933.95C917.387 309.555 903.961 322.981 903.961 339.544C903.961 356.106 917.387 369.533 933.95 369.533H1195.3C1211.86 369.533 1225.29 356.106 1225.29 339.544C1225.29 322.981 1211.86 309.555 1195.3 309.555Z" fill="#969892" stroke="#35353F" stroke-width="15"/>
<path d="M667.198 283.654L600.132 235.705C568.773 213.285 528.541 206.415 491.463 216.737C454.477 227.033 444.03 275.477 474.76 299.222C506.53 323.771 548.113 331.672 586.673 320.487L663.387 298.234L685.335 306.293L702.211 312.489C693.622 328.519 672.994 342.4 640.986 350.213C605.04 358.986 559.62 358.802 514.615 349.413C469.586 340.019 429.304 322.316 402.321 300.521C375.087 278.522 365.245 255.697 369.926 237.07C374.67 218.192 394.88 201.07 430.251 191.494C465.239 182.022 510.219 181.382 555.418 190.039C600.625 198.699 641.708 215.827 669.897 237.366C693.602 255.479 704.896 278.999 705.449 297.699L690.505 292.212L667.198 283.654Z" fill="#969892" stroke="#35353F" stroke-width="15"/>
<path d="M847.525 296.498L718.985 272.967L590.445 249.436C574.153 246.454 558.529 257.243 555.546 273.535C552.564 289.827 563.353 305.452 579.645 308.434L836.725 355.496C853.017 358.478 868.642 347.689 871.624 331.397C874.606 315.105 863.817 299.48 847.525 296.498Z" fill="#969892" stroke="#35353F" stroke-width="15"/>
<path d="M323.894 180.4L265.845 121.855C238.703 94.4807 200.2 80.9427 161.914 84.8827C123.723 88.8129 105.279 134.81 131.578 163.385C158.768 192.926 198.43 207.708 238.322 203.166L317.685 194.131L337.965 205.766L353.559 214.712C342.396 229.069 319.728 239.284 286.862 241.602C249.953 244.206 205.211 236.387 162.425 219.563C119.617 202.731 82.8853 178.506 59.9519 152.483C36.8057 126.218 30.9423 102.063 38.689 84.4883C46.5401 66.6766 69.3409 53.1972 105.819 49.7058C141.902 46.2521 186.349 53.1851 229.448 69.3204C272.555 85.4585 310.173 109.251 334.338 135.224C354.66 157.065 361.838 182.15 359.238 200.677L345.429 192.755L323.894 180.4Z" fill="#969892" stroke="#35353F" stroke-width="15"/>
<path d="M499.493 223.381L376.741 178.57L253.988 133.758C238.43 128.079 221.214 136.087 215.534 151.645C209.854 167.203 217.863 184.42 233.421 190.099L478.926 279.722C494.484 285.402 511.701 277.394 517.38 261.835C523.06 246.277 515.052 229.061 499.493 223.381Z" fill="#969892" stroke="#35353F" stroke-width="15"/>
<path d="M1941.28 303.773C1926.36 323.723 1918.85 348.296 1920.02 373.306" stroke="#35353F" stroke-width="50"/>
</svg>
