<svg width="80" height="78" viewBox="0 0 80 78" fill="none" xmlns="http://www.w3.org/2000/svg">
<path d="M45.8362 33.7787L70.734 55.5584C70.972 60.5118 66.8742 64.608 61.9202 64.3671L39.9418 39.6731L45.8362 33.7787Z" fill="#F18142" stroke="#35353F" stroke-width="2"/>
<circle cx="62.1973" cy="55.9819" r="2.09363" transform="rotate(-45 62.1973 55.9819)" fill="#C7FFE8" stroke="#35353F" stroke-width="2"/>
<rect x="34.4943" y="30.6367" width="3.33385" height="9.30776" transform="rotate(-45 34.4943 30.6367)" fill="#898CAB" stroke="#35353F" stroke-width="2"/>
<path d="M16.7117 18.0396L15.0522 24.9794L22.8972 32.8243L31.421 32.7489L38.587 25.5828L38.2853 17.4362L30.4404 9.59122L23.8778 10.8736L31.3456 18.3413L32.7788 22.9427L28.9317 26.7897L24.1795 25.5074L16.7117 18.0396Z" fill="#898CAB" stroke="#35353F" stroke-width="2"/>
<path d="M42.8573 43.4951L20.8568 65.4956C17.7833 65.2946 15.3072 62.8384 15.1097 59.7352L37.1036 37.7414C38.6925 36.1525 41.2685 36.1525 42.8573 37.7414C44.4462 39.3302 44.4462 41.9062 42.8573 43.4951Z" fill="#EDC537" stroke="#35353F" stroke-width="2"/>
<rect x="53.5195" y="24.8294" width="3.18112" height="15.796" transform="rotate(45 53.5195 24.8294)" fill="#898CAB" stroke="#35353F" stroke-width="2"/>
<path d="M58.2185 29.8663L50.8116 22.4595L57.3424 15.9287L42.0508 10.0351L43.9595 9.86158C54.4075 8.91176 64.7377 12.6518 72.1561 20.0702L70.165 22.0613L72.0765 23.9727L73.4702 22.579L77.0542 26.1629L73.1118 30.1053L68.9306 34.2866L65.3466 30.7026L66.6607 29.3885L64.7493 27.477L62.6785 29.5478L60.6078 27.477L58.2185 29.8663Z" fill="#898CAB" stroke="#35353F" stroke-width="2"/>
</svg>
