<svg width="263" height="134" viewBox="0 0 263 134" fill="none" xmlns="http://www.w3.org/2000/svg">
<ellipse cx="132.053" cy="37.264" rx="36.0527" ry="37.264" fill="#65E291"/>
<path d="M161.117 31.3016C166.315 37.5389 165.636 46.9506 159.602 52.3231C153.567 57.6955 144.462 56.9944 139.264 50.7571C139.264 50.7571 144.156 46.4019 150.19 41.0294C156.225 35.6569 161.117 31.3016 161.117 31.3016Z" fill="white"/>
<path d="M105.41 31.3407C100.213 37.5781 100.891 46.9897 106.926 52.3622C112.96 57.7347 122.066 57.0336 127.264 50.7962C127.264 50.7962 122.372 46.4411 116.337 41.0686C110.302 35.6961 105.41 31.3407 105.41 31.3407Z" fill="white"/>
<rect x="116.912" y="17.8866" width="3.60527" height="14.9056" rx="1.80264" fill="white"/>
<rect x="143.592" y="14.1604" width="3.60527" height="22.3584" rx="1.80264" fill="white"/>
<rect x="130.611" y="14.9058" width="3.60527" height="14.9056" rx="1.80264" fill="white"/>
<rect x="137.102" y="6.70752" width="3.60527" height="37.264" rx="1.80264" fill="white"/>
<rect x="123.402" y="10.4337" width="3.60527" height="26.8301" rx="1.80264" fill="white"/>
<path d="M55.293 109.283C55.293 111.399 54.7721 113.222 53.7305 114.752C52.7051 116.282 51.224 117.454 49.2871 118.268C47.3665 119.081 45.0716 119.488 42.4023 119.488C41.1003 119.488 39.8551 119.415 38.667 119.269C37.4788 119.122 36.3558 118.91 35.2979 118.634C34.2562 118.341 33.304 117.991 32.4414 117.584V112.066C33.89 112.701 35.5094 113.279 37.2998 113.8C39.0902 114.304 40.9131 114.557 42.7686 114.557C44.2822 114.557 45.5355 114.361 46.5283 113.971C47.5374 113.564 48.2861 112.994 48.7744 112.262C49.2627 111.513 49.5068 110.642 49.5068 109.649C49.5068 108.591 49.222 107.696 48.6523 106.964C48.0827 106.231 47.2201 105.564 46.0645 104.962C44.9251 104.343 43.4928 103.684 41.7676 102.984C40.5957 102.512 39.4727 101.975 38.3984 101.373C37.3405 100.771 36.3965 100.063 35.5664 99.249C34.7363 98.4352 34.0771 97.4749 33.5889 96.3682C33.1169 95.2451 32.8809 93.9268 32.8809 92.4131C32.8809 90.3949 33.361 88.6696 34.3213 87.2373C35.2979 85.805 36.665 84.7064 38.4229 83.9414C40.1969 83.1764 42.264 82.7939 44.624 82.7939C46.4958 82.7939 48.2536 82.9893 49.8975 83.3799C51.5576 83.7705 53.1852 84.3239 54.7803 85.04L52.9248 89.752C51.46 89.1497 50.0358 88.6696 48.6523 88.3115C47.2852 87.9535 45.8854 87.7744 44.4531 87.7744C43.2161 87.7744 42.1663 87.9616 41.3037 88.3359C40.4411 88.7103 39.7819 89.2393 39.3262 89.9229C38.8867 90.5902 38.667 91.3877 38.667 92.3154C38.667 93.3571 38.9193 94.236 39.4238 94.9521C39.9447 95.652 40.7422 96.2949 41.8164 96.8809C42.9069 97.4668 44.3066 98.1178 46.0156 98.834C47.985 99.6478 49.6533 100.502 51.0205 101.397C52.404 102.293 53.4619 103.367 54.1943 104.62C54.9268 105.857 55.293 107.411 55.293 109.283ZM85.5176 105.426C85.5176 107.672 85.2246 109.666 84.6387 111.407C84.0527 113.149 83.1982 114.622 82.0752 115.826C80.9521 117.014 79.6012 117.926 78.0225 118.561C76.4437 119.179 74.6615 119.488 72.6758 119.488C70.8203 119.488 69.1195 119.179 67.5732 118.561C66.027 117.926 64.6842 117.014 63.5449 115.826C62.4219 114.622 61.5511 113.149 60.9326 111.407C60.3141 109.666 60.0049 107.672 60.0049 105.426C60.0049 102.447 60.5176 99.9245 61.543 97.8574C62.5846 95.7741 64.0658 94.1872 65.9863 93.0967C67.9069 92.0062 70.1937 91.4609 72.8467 91.4609C75.3369 91.4609 77.5342 92.0062 79.4385 93.0967C81.3428 94.1872 82.832 95.7741 83.9062 97.8574C84.9805 99.9408 85.5176 102.464 85.5176 105.426ZM65.9131 105.426C65.9131 107.395 66.1491 109.08 66.6211 110.479C67.1094 111.879 67.8581 112.953 68.8672 113.702C69.8763 114.435 71.1784 114.801 72.7734 114.801C74.3685 114.801 75.6706 114.435 76.6797 113.702C77.6888 112.953 78.4294 111.879 78.9014 110.479C79.3734 109.08 79.6094 107.395 79.6094 105.426C79.6094 103.456 79.3734 101.788 78.9014 100.421C78.4294 99.0374 77.6888 97.9876 76.6797 97.2715C75.6706 96.5391 74.3604 96.1729 72.749 96.1729C70.3727 96.1729 68.6393 96.9704 67.5488 98.5654C66.4583 100.16 65.9131 102.447 65.9131 105.426ZM102.998 119.488C100.443 119.488 98.2292 118.992 96.3574 117.999C94.4857 117.006 93.0452 115.484 92.0361 113.434C91.027 111.383 90.5225 108.779 90.5225 105.621C90.5225 102.333 91.0758 99.6478 92.1826 97.5645C93.2894 95.4811 94.8193 93.943 96.7725 92.9502C98.7419 91.9574 100.996 91.4609 103.535 91.4609C105.146 91.4609 106.603 91.6237 107.905 91.9492C109.224 92.2585 110.339 92.641 111.25 93.0967L109.541 97.6865C108.548 97.2796 107.531 96.9378 106.489 96.6611C105.448 96.3844 104.447 96.2461 103.486 96.2461C101.908 96.2461 100.589 96.596 99.5312 97.2959C98.4896 97.9958 97.7083 99.0374 97.1875 100.421C96.6829 101.804 96.4307 103.521 96.4307 105.572C96.4307 107.558 96.6911 109.234 97.2119 110.602C97.7327 111.952 98.5059 112.978 99.5312 113.678C100.557 114.361 101.818 114.703 103.315 114.703C104.797 114.703 106.123 114.524 107.295 114.166C108.467 113.808 109.574 113.344 110.615 112.774V117.755C109.59 118.341 108.491 118.772 107.319 119.049C106.147 119.342 104.707 119.488 102.998 119.488ZM122.7 91.9736V119H116.963V91.9736H122.7ZM119.868 81.6221C120.747 81.6221 121.504 81.8581 122.139 82.3301C122.79 82.8021 123.115 83.6159 123.115 84.7715C123.115 85.9108 122.79 86.7246 122.139 87.2129C121.504 87.6849 120.747 87.9209 119.868 87.9209C118.957 87.9209 118.184 87.6849 117.549 87.2129C116.93 86.7246 116.621 85.9108 116.621 84.7715C116.621 83.6159 116.93 82.8021 117.549 82.3301C118.184 81.8581 118.957 81.6221 119.868 81.6221ZM141.523 91.4609C144.941 91.4609 147.521 92.2178 149.263 93.7314C151.021 95.2451 151.899 97.6051 151.899 100.812V119H147.822L146.724 115.167H146.528C145.763 116.144 144.974 116.949 144.16 117.584C143.346 118.219 142.402 118.691 141.328 119C140.27 119.326 138.976 119.488 137.446 119.488C135.835 119.488 134.395 119.195 133.125 118.609C131.855 118.007 130.854 117.096 130.122 115.875C129.39 114.654 129.023 113.108 129.023 111.236C129.023 108.453 130.057 106.362 132.124 104.962C134.207 103.562 137.349 102.789 141.548 102.643L146.235 102.472V101.056C146.235 99.1839 145.796 97.8493 144.917 97.0518C144.054 96.2542 142.834 95.8555 141.255 95.8555C139.904 95.8555 138.594 96.0508 137.324 96.4414C136.055 96.832 134.818 97.3122 133.613 97.8818L131.758 93.8291C133.076 93.1292 134.574 92.5596 136.25 92.1201C137.943 91.6807 139.701 91.4609 141.523 91.4609ZM146.211 106.085L142.72 106.207C139.855 106.305 137.845 106.793 136.689 107.672C135.534 108.551 134.956 109.755 134.956 111.285C134.956 112.62 135.355 113.596 136.152 114.215C136.95 114.817 138 115.118 139.302 115.118C141.287 115.118 142.931 114.557 144.233 113.434C145.552 112.294 146.211 110.626 146.211 108.429V106.085ZM165.693 119H159.932V81.0117H165.693V119ZM179.634 91.9736V119H173.896V91.9736H179.634ZM176.802 81.6221C177.681 81.6221 178.438 81.8581 179.072 82.3301C179.723 82.8021 180.049 83.6159 180.049 84.7715C180.049 85.9108 179.723 86.7246 179.072 87.2129C178.438 87.6849 177.681 87.9209 176.802 87.9209C175.89 87.9209 175.117 87.6849 174.482 87.2129C173.864 86.7246 173.555 85.9108 173.555 84.7715C173.555 83.6159 173.864 82.8021 174.482 82.3301C175.117 81.8581 175.89 81.6221 176.802 81.6221ZM197.92 114.85C198.669 114.85 199.409 114.785 200.142 114.654C200.874 114.508 201.541 114.337 202.144 114.142V118.487C201.509 118.764 200.687 119 199.678 119.195C198.669 119.391 197.619 119.488 196.528 119.488C194.998 119.488 193.623 119.236 192.402 118.731C191.182 118.211 190.213 117.324 189.497 116.07C188.781 114.817 188.423 113.084 188.423 110.87V96.3438H184.736V93.7803L188.691 91.7539L190.571 85.9678H194.185V91.9736H201.924V96.3438H194.185V110.797C194.185 112.164 194.526 113.181 195.21 113.849C195.894 114.516 196.797 114.85 197.92 114.85ZM218.403 91.4609C220.812 91.4609 222.879 91.9574 224.604 92.9502C226.33 93.943 227.656 95.3509 228.584 97.1738C229.512 98.9967 229.976 101.178 229.976 103.717V106.793H211.934C211.999 109.413 212.699 111.432 214.033 112.848C215.384 114.264 217.272 114.972 219.697 114.972C221.423 114.972 222.969 114.809 224.336 114.483C225.719 114.142 227.144 113.645 228.608 112.994V117.657C227.257 118.292 225.882 118.756 224.482 119.049C223.083 119.342 221.406 119.488 219.453 119.488C216.8 119.488 214.465 118.976 212.446 117.95C210.444 116.909 208.874 115.362 207.734 113.312C206.611 111.261 206.05 108.714 206.05 105.67C206.05 102.643 206.562 100.071 207.588 97.9551C208.613 95.8392 210.054 94.2279 211.909 93.1211C213.765 92.0143 215.929 91.4609 218.403 91.4609ZM218.403 95.7822C216.597 95.7822 215.132 96.3682 214.009 97.54C212.902 98.7119 212.251 100.429 212.056 102.691H224.36C224.344 101.34 224.116 100.144 223.677 99.1025C223.254 98.0609 222.603 97.2471 221.724 96.6611C220.861 96.0752 219.754 95.7822 218.403 95.7822Z" fill="#114C60"/>
<path d="M196.739 37.5C196.739 53.7924 185.098 67 170.739 67C156.379 67 179.234 53.7924 179.234 37.5C179.234 21.2076 156.379 8 170.739 8C185.098 8 196.739 21.2076 196.739 37.5Z" fill="#65E291"/>
<path d="M262.005 62.0583C262.005 70.9271 241.634 62.0583 216.505 62.0583C191.376 62.0583 156 73 171.005 62.0583C171.005 53.1896 191.376 46 216.505 46C241.634 46 262.005 53.1896 262.005 62.0583Z" fill="#65E291"/>
<path d="M249 41.5134C249 47.8721 234.57 41.5134 216.77 41.5134C198.969 41.5134 173.911 49.3583 184.539 41.5134C184.539 35.1547 198.969 30 216.77 30C234.57 30 249 35.1547 249 41.5134Z" fill="#65E291"/>
<path d="M226 24.6756C226 28.9147 216.524 24.6756 204.834 24.6756C193.144 24.6756 176.688 29.9055 183.668 24.6756C183.668 20.4365 193.144 17 204.834 17C216.524 17 226 20.4365 226 24.6756Z" fill="#65E291"/>
<path d="M14 41.5134C14 47.8721 28.43 41.5134 46.2303 41.5134C64.0306 41.5134 89.0894 49.3583 78.4606 41.5134C78.4606 35.1547 64.0306 30 46.2303 30C28.43 30 14 35.1547 14 41.5134Z" fill="#65E291"/>
<path d="M37 24.6756C37 28.9147 46.4764 24.6756 58.1662 24.6756C69.8559 24.6756 86.3124 29.9055 79.3324 24.6756C79.3324 20.4365 69.8559 17 58.1662 17C46.4764 17 37 20.4365 37 24.6756Z" fill="#65E291"/>
<path d="M65.2653 37.5C65.2653 53.7924 76.9059 67 91.2653 67C105.625 67 82.7696 53.7924 82.7696 37.5C82.7696 21.2076 105.625 8 91.2653 8C76.9059 8 65.2653 21.2076 65.2653 37.5Z" fill="#65E291"/>
<path d="M-0.00087738 62.0583C-0.00087738 70.9271 20.3702 62.0583 45.4991 62.0583C70.6281 62.0583 106.004 73 90.9991 62.0583C90.9991 53.1896 70.6281 46 45.4991 46C20.3702 46 -0.00087738 53.1896 -0.00087738 62.0583Z" fill="#65E291"/>
</svg>
