<svg width="283" height="73" viewBox="0 0 283 73" fill="none" xmlns="http://www.w3.org/2000/svg">
<path d="M105.293 48.2832C105.293 50.3991 104.772 52.222 103.73 53.752C102.705 55.2819 101.224 56.4538 99.2871 57.2676C97.3665 58.0814 95.0716 58.4883 92.4023 58.4883C91.1003 58.4883 89.8551 58.415 88.667 58.2686C87.4788 58.1221 86.3558 57.9105 85.2979 57.6338C84.2562 57.3408 83.304 56.9909 82.4414 56.584V51.0664C83.89 51.7012 85.5094 52.279 87.2998 52.7998C89.0902 53.3044 90.9131 53.5566 92.7686 53.5566C94.2822 53.5566 95.5355 53.3613 96.5283 52.9707C97.5374 52.5638 98.2861 51.9941 98.7744 51.2617C99.2627 50.513 99.5068 49.6423 99.5068 48.6494C99.5068 47.5915 99.222 46.6963 98.6523 45.9639C98.0827 45.2314 97.2201 44.5641 96.0645 43.9619C94.9251 43.3434 93.4928 42.6842 91.7676 41.9844C90.5957 41.5124 89.4727 40.9753 88.3984 40.373C87.3405 39.7708 86.3965 39.0628 85.5664 38.249C84.7363 37.4352 84.0771 36.4749 83.5889 35.3682C83.1169 34.2451 82.8809 32.9268 82.8809 31.4131C82.8809 29.3949 83.361 27.6696 84.3213 26.2373C85.2979 24.805 86.665 23.7064 88.4229 22.9414C90.1969 22.1764 92.264 21.7939 94.624 21.7939C96.4958 21.7939 98.2536 21.9893 99.8975 22.3799C101.558 22.7705 103.185 23.3239 104.78 24.04L102.925 28.752C101.46 28.1497 100.036 27.6696 98.6523 27.3115C97.2852 26.9535 95.8854 26.7744 94.4531 26.7744C93.2161 26.7744 92.1663 26.9616 91.3037 27.3359C90.4411 27.7103 89.7819 28.2393 89.3262 28.9229C88.8867 29.5902 88.667 30.3877 88.667 31.3154C88.667 32.3571 88.9193 33.236 89.4238 33.9521C89.9447 34.652 90.7422 35.2949 91.8164 35.8809C92.9069 36.4668 94.3066 37.1178 96.0156 37.834C97.985 38.6478 99.6533 39.5023 101.021 40.3975C102.404 41.2926 103.462 42.3669 104.194 43.6201C104.927 44.8571 105.293 46.4115 105.293 48.2832ZM135.518 44.4258C135.518 46.6719 135.225 48.6657 134.639 50.4072C134.053 52.1488 133.198 53.6217 132.075 54.8262C130.952 56.0143 129.601 56.9258 128.022 57.5605C126.444 58.179 124.661 58.4883 122.676 58.4883C120.82 58.4883 119.119 58.179 117.573 57.5605C116.027 56.9258 114.684 56.0143 113.545 54.8262C112.422 53.6217 111.551 52.1488 110.933 50.4072C110.314 48.6657 110.005 46.6719 110.005 44.4258C110.005 41.4473 110.518 38.9245 111.543 36.8574C112.585 34.7741 114.066 33.1872 115.986 32.0967C117.907 31.0062 120.194 30.4609 122.847 30.4609C125.337 30.4609 127.534 31.0062 129.438 32.0967C131.343 33.1872 132.832 34.7741 133.906 36.8574C134.98 38.9408 135.518 41.4635 135.518 44.4258ZM115.913 44.4258C115.913 46.3952 116.149 48.0798 116.621 49.4795C117.109 50.8792 117.858 51.9535 118.867 52.7021C119.876 53.4346 121.178 53.8008 122.773 53.8008C124.368 53.8008 125.671 53.4346 126.68 52.7021C127.689 51.9535 128.429 50.8792 128.901 49.4795C129.373 48.0798 129.609 46.3952 129.609 44.4258C129.609 42.4564 129.373 40.7881 128.901 39.4209C128.429 38.0374 127.689 36.9876 126.68 36.2715C125.671 35.5391 124.36 35.1729 122.749 35.1729C120.373 35.1729 118.639 35.9704 117.549 37.5654C116.458 39.1605 115.913 41.4473 115.913 44.4258ZM152.998 58.4883C150.443 58.4883 148.229 57.9919 146.357 56.999C144.486 56.0062 143.045 54.4844 142.036 52.4336C141.027 50.3828 140.522 47.7786 140.522 44.6211C140.522 41.3333 141.076 38.6478 142.183 36.5645C143.289 34.4811 144.819 32.943 146.772 31.9502C148.742 30.9574 150.996 30.4609 153.535 30.4609C155.146 30.4609 156.603 30.6237 157.905 30.9492C159.224 31.2585 160.339 31.641 161.25 32.0967L159.541 36.6865C158.548 36.2796 157.531 35.9378 156.489 35.6611C155.448 35.3844 154.447 35.2461 153.486 35.2461C151.908 35.2461 150.589 35.596 149.531 36.2959C148.49 36.9958 147.708 38.0374 147.188 39.4209C146.683 40.8044 146.431 42.5215 146.431 44.5723C146.431 46.5579 146.691 48.2344 147.212 49.6016C147.733 50.9525 148.506 51.9779 149.531 52.6777C150.557 53.3613 151.818 53.7031 153.315 53.7031C154.797 53.7031 156.123 53.5241 157.295 53.166C158.467 52.8079 159.574 52.3441 160.615 51.7744V56.7549C159.59 57.3408 158.491 57.7721 157.319 58.0488C156.147 58.3418 154.707 58.4883 152.998 58.4883ZM172.7 30.9736V58H166.963V30.9736H172.7ZM169.868 20.6221C170.747 20.6221 171.504 20.8581 172.139 21.3301C172.79 21.8021 173.115 22.6159 173.115 23.7715C173.115 24.9108 172.79 25.7246 172.139 26.2129C171.504 26.6849 170.747 26.9209 169.868 26.9209C168.957 26.9209 168.184 26.6849 167.549 26.2129C166.93 25.7246 166.621 24.9108 166.621 23.7715C166.621 22.6159 166.93 21.8021 167.549 21.3301C168.184 20.8581 168.957 20.6221 169.868 20.6221ZM191.523 30.4609C194.941 30.4609 197.521 31.2178 199.263 32.7314C201.021 34.2451 201.899 36.6051 201.899 39.8115V58H197.822L196.724 54.167H196.528C195.763 55.1436 194.974 55.9492 194.16 56.584C193.346 57.2188 192.402 57.6908 191.328 58C190.27 58.3255 188.976 58.4883 187.446 58.4883C185.835 58.4883 184.395 58.1953 183.125 57.6094C181.855 57.0072 180.854 56.0957 180.122 54.875C179.39 53.6543 179.023 52.1081 179.023 50.2363C179.023 47.4531 180.057 45.3617 182.124 43.9619C184.207 42.5622 187.349 41.7891 191.548 41.6426L196.235 41.4717V40.0557C196.235 38.1839 195.796 36.8493 194.917 36.0518C194.054 35.2542 192.834 34.8555 191.255 34.8555C189.904 34.8555 188.594 35.0508 187.324 35.4414C186.055 35.832 184.818 36.3122 183.613 36.8818L181.758 32.8291C183.076 32.1292 184.574 31.5596 186.25 31.1201C187.943 30.6807 189.701 30.4609 191.523 30.4609ZM196.211 45.085L192.72 45.207C189.855 45.3047 187.845 45.793 186.689 46.6719C185.534 47.5508 184.956 48.7552 184.956 50.2852C184.956 51.6198 185.355 52.5964 186.152 53.2148C186.95 53.8171 188 54.1182 189.302 54.1182C191.287 54.1182 192.931 53.5566 194.233 52.4336C195.552 51.2943 196.211 49.626 196.211 47.4287V45.085ZM215.693 58H209.932V20.0117H215.693V58ZM229.634 30.9736V58H223.896V30.9736H229.634ZM226.802 20.6221C227.681 20.6221 228.438 20.8581 229.072 21.3301C229.723 21.8021 230.049 22.6159 230.049 23.7715C230.049 24.9108 229.723 25.7246 229.072 26.2129C228.438 26.6849 227.681 26.9209 226.802 26.9209C225.89 26.9209 225.117 26.6849 224.482 26.2129C223.864 25.7246 223.555 24.9108 223.555 23.7715C223.555 22.6159 223.864 21.8021 224.482 21.3301C225.117 20.8581 225.89 20.6221 226.802 20.6221ZM247.92 53.8496C248.669 53.8496 249.409 53.7845 250.142 53.6543C250.874 53.5078 251.541 53.3369 252.144 53.1416V57.4873C251.509 57.764 250.687 58 249.678 58.1953C248.669 58.3906 247.619 58.4883 246.528 58.4883C244.998 58.4883 243.623 58.236 242.402 57.7314C241.182 57.2106 240.213 56.3236 239.497 55.0703C238.781 53.8171 238.423 52.0837 238.423 49.8701V35.3438H234.736V32.7803L238.691 30.7539L240.571 24.9678H244.185V30.9736H251.924V35.3438H244.185V49.7969C244.185 51.1641 244.526 52.1813 245.21 52.8486C245.894 53.516 246.797 53.8496 247.92 53.8496ZM268.403 30.4609C270.812 30.4609 272.879 30.9574 274.604 31.9502C276.33 32.943 277.656 34.3509 278.584 36.1738C279.512 37.9967 279.976 40.1777 279.976 42.7168V45.793H261.934C261.999 48.4134 262.699 50.4316 264.033 51.8477C265.384 53.2637 267.272 53.9717 269.697 53.9717C271.423 53.9717 272.969 53.8089 274.336 53.4834C275.719 53.1416 277.144 52.6452 278.608 51.9941V56.6572C277.257 57.292 275.882 57.7559 274.482 58.0488C273.083 58.3418 271.406 58.4883 269.453 58.4883C266.8 58.4883 264.465 57.9756 262.446 56.9502C260.444 55.9085 258.874 54.3623 257.734 52.3115C256.611 50.2607 256.05 47.7135 256.05 44.6699C256.05 41.6426 256.562 39.071 257.588 36.9551C258.613 34.8392 260.054 33.2279 261.909 32.1211C263.765 31.0143 265.929 30.4609 268.403 30.4609ZM268.403 34.7822C266.597 34.7822 265.132 35.3682 264.009 36.54C262.902 37.7119 262.251 39.429 262.056 41.6914H274.36C274.344 40.3405 274.116 39.1442 273.677 38.1025C273.254 37.0609 272.603 36.2471 271.724 35.6611C270.861 35.0752 269.754 34.7822 268.403 34.7822Z" fill="#F9F9F9"/>
<ellipse cx="33.8623" cy="35" rx="33.8623" ry="35" fill="#8BD298"/>
<path d="M61.1603 29.3999C66.0423 35.2583 65.4052 44.0981 59.7372 49.1442C54.0693 54.1903 45.5168 53.5317 40.6348 47.6733C40.6348 47.6733 45.2296 43.5828 50.8976 38.5367C56.5656 33.4906 61.1603 29.3999 61.1603 29.3999Z" fill="white"/>
<path d="M8.83972 29.4365C3.95768 35.2949 4.59479 44.1347 10.2628 49.1808C15.9307 54.2268 24.4832 53.5683 29.3652 47.7099C29.3652 47.7099 24.7704 43.6194 19.1024 38.5733C13.4344 33.5272 8.83972 29.4365 8.83972 29.4365Z" fill="white"/>
<rect x="19.6406" y="16.8" width="3.38623" height="14" rx="1.69312" fill="white"/>
<rect x="44.6992" y="13.3" width="3.38623" height="21" rx="1.69312" fill="white"/>
<rect x="32.5078" y="14" width="3.38623" height="14" rx="1.69312" fill="white"/>
<rect x="38.6035" y="6.30005" width="3.38623" height="35" rx="1.69312" fill="white"/>
<rect x="25.7363" y="9.80005" width="3.38623" height="25.2" rx="1.69312" fill="white"/>
</svg>
