<svg width="1850" height="1259" viewBox="0 0 1850 1259" fill="none" xmlns="http://www.w3.org/2000/svg">
<rect x="26" width="1824" height="1177" fill="white"/>
<rect x="26" width="1824" height="125" fill="#114C60"/>
<rect x="132" y="288" width="1087" height="243" fill="#C4C4C4"/>
<rect x="132" y="890" width="1087" height="243" fill="#C4C4C4"/>
<rect x="132" y="589" width="1087" height="243" fill="#69E48E"/>
<rect x="1367.29" y="1044.2" width="433.745" height="87.3459" rx="43.6729" fill="#69E48E" stroke="#114C60" stroke-width="10"/>
<path d="M1475.35 1105.4C1472.02 1105.4 1469.44 1104.25 1467.63 1101.96C1465.84 1099.67 1464.95 1096.01 1464.95 1091C1464.95 1086.01 1465.83 1082.37 1467.59 1080.08C1469.35 1077.76 1471.8 1076.6 1474.95 1076.6C1476.84 1076.6 1478.56 1076.97 1480.11 1077.72C1480.86 1078.07 1481.47 1078.43 1481.95 1078.8L1480.55 1081.2H1480.15C1479.75 1080.91 1479.3 1080.61 1478.79 1080.32C1477.62 1079.71 1476.47 1079.4 1475.35 1079.4C1471.08 1079.4 1468.95 1083.27 1468.95 1091C1468.95 1095.16 1469.54 1098.13 1470.71 1099.92C1471.91 1101.71 1473.59 1102.6 1475.75 1102.6C1476.92 1102.6 1478.07 1102.31 1479.19 1101.72C1479.75 1101.4 1480.2 1101.09 1480.55 1100.8H1480.95L1482.35 1103.2C1481.9 1103.57 1481.28 1103.95 1480.51 1104.32C1479.02 1105.04 1477.3 1105.4 1475.35 1105.4ZM1486.33 1085H1489.13L1489.53 1087.4H1489.73C1490 1087 1490.45 1086.53 1491.09 1086C1492.35 1085.07 1493.76 1084.6 1495.33 1084.6C1496.03 1084.6 1496.64 1084.67 1497.17 1084.8L1497.93 1085L1497.33 1088.2H1496.93C1496.75 1088.17 1496.47 1088.11 1496.09 1088C1495.51 1087.87 1494.92 1087.8 1494.33 1087.8C1493.45 1087.8 1492.51 1088.2 1491.49 1089C1491.15 1089.29 1490.76 1089.69 1490.33 1090.2V1105H1486.33V1085ZM1508.74 1105.4C1505.97 1105.4 1503.81 1104.52 1502.26 1102.76C1500.72 1101 1499.94 1098.41 1499.94 1095C1499.94 1091.61 1500.69 1089.04 1502.18 1087.28C1503.68 1085.49 1505.66 1084.6 1508.14 1084.6C1510.62 1084.6 1512.61 1085.49 1514.1 1087.28C1515.6 1089.04 1516.34 1091.61 1516.34 1095V1095.6L1515.54 1096.4H1503.94C1503.94 1098.45 1504.4 1100 1505.3 1101.04C1506.21 1102.08 1507.49 1102.6 1509.14 1102.6C1510.13 1102.6 1511.16 1102.31 1512.22 1101.72C1512.78 1101.4 1513.22 1101.09 1513.54 1100.8H1513.94L1515.34 1103.2C1514.86 1103.6 1514.26 1103.97 1513.54 1104.32C1512.16 1105.04 1510.56 1105.4 1508.74 1105.4ZM1512.34 1093.6C1512.34 1091.49 1511.96 1089.93 1511.18 1088.92C1510.44 1087.91 1509.42 1087.4 1508.14 1087.4C1506.86 1087.4 1505.84 1087.91 1505.06 1088.92C1504.32 1089.93 1503.94 1091.49 1503.94 1093.6H1512.34ZM1526.54 1105.4C1524.46 1105.4 1522.83 1104.85 1521.66 1103.76C1520.51 1102.64 1519.94 1101.12 1519.94 1099.2C1519.94 1097.31 1520.62 1095.84 1521.98 1094.8C1523.37 1093.73 1525.55 1093.2 1528.54 1093.2H1531.74V1092.2C1531.74 1090.63 1531.37 1089.44 1530.62 1088.64C1529.9 1087.81 1528.87 1087.4 1527.54 1087.4C1526.58 1087.4 1525.54 1087.71 1524.42 1088.32C1523.86 1088.64 1523.43 1088.93 1523.14 1089.2H1522.74L1521.34 1086.8C1521.87 1086.4 1522.47 1086.04 1523.14 1085.72C1524.58 1084.97 1526.18 1084.6 1527.94 1084.6C1529.46 1084.6 1530.81 1084.93 1531.98 1085.6C1533.15 1086.24 1534.07 1087.15 1534.74 1088.32C1535.41 1089.47 1535.74 1090.76 1535.74 1092.2V1105H1532.94L1532.54 1102.6H1532.34C1531.97 1103.13 1531.5 1103.6 1530.94 1104C1529.77 1104.93 1528.3 1105.4 1526.54 1105.4ZM1527.54 1102.4C1528.53 1102.4 1529.53 1102 1530.54 1101.2C1530.99 1100.83 1531.39 1100.43 1531.74 1100V1096H1528.54C1527.02 1096 1525.87 1096.29 1525.1 1096.88C1524.33 1097.47 1523.94 1098.24 1523.94 1099.2C1523.94 1100.24 1524.23 1101.04 1524.82 1101.6C1525.43 1102.13 1526.34 1102.4 1527.54 1102.4ZM1548.93 1105.4C1546.93 1105.4 1545.33 1104.81 1544.13 1103.64C1542.93 1102.47 1542.33 1100.92 1542.33 1099V1087.8H1539.33V1085.4L1544.53 1080.2H1546.33V1085H1551.33V1087.8H1546.33V1099C1546.33 1100.17 1546.6 1101.07 1547.13 1101.68C1547.66 1102.29 1548.4 1102.6 1549.33 1102.6C1550.13 1102.6 1550.92 1102.33 1551.69 1101.8C1552.04 1101.56 1552.38 1101.29 1552.73 1101H1553.13L1554.53 1103.4C1553.94 1103.85 1553.41 1104.19 1552.93 1104.4C1551.65 1105.07 1550.32 1105.4 1548.93 1105.4ZM1565.35 1105.4C1562.57 1105.4 1560.41 1104.52 1558.87 1102.76C1557.32 1101 1556.55 1098.41 1556.55 1095C1556.55 1091.61 1557.29 1089.04 1558.79 1087.28C1560.28 1085.49 1562.27 1084.6 1564.75 1084.6C1567.23 1084.6 1569.21 1085.49 1570.71 1087.28C1572.2 1089.04 1572.95 1091.61 1572.95 1095V1095.6L1572.15 1096.4H1560.55C1560.55 1098.45 1561 1100 1561.91 1101.04C1562.81 1102.08 1564.09 1102.6 1565.75 1102.6C1566.73 1102.6 1567.76 1102.31 1568.83 1101.72C1569.39 1101.4 1569.83 1101.09 1570.15 1100.8H1570.55L1571.95 1103.2C1571.47 1103.6 1570.87 1103.97 1570.15 1104.32C1568.76 1105.04 1567.16 1105.4 1565.35 1105.4ZM1568.95 1093.6C1568.95 1091.49 1568.56 1089.93 1567.79 1088.92C1567.04 1087.91 1566.03 1087.4 1564.75 1087.4C1563.47 1087.4 1562.44 1087.91 1561.67 1088.92C1560.92 1089.93 1560.55 1091.49 1560.55 1093.6H1568.95ZM1589.34 1085H1592.14L1592.54 1087.4H1592.74C1593.01 1087 1593.46 1086.53 1594.1 1086C1595.36 1085.07 1596.77 1084.6 1598.34 1084.6C1599.04 1084.6 1599.65 1084.67 1600.18 1084.8L1600.94 1085L1600.34 1088.2H1599.94C1599.76 1088.17 1599.48 1088.11 1599.1 1088C1598.52 1087.87 1597.93 1087.8 1597.34 1087.8C1596.46 1087.8 1595.52 1088.2 1594.5 1089C1594.16 1089.29 1593.77 1089.69 1593.34 1090.2V1105H1589.34V1085ZM1611.55 1105.4C1608.86 1105.4 1606.75 1104.52 1605.23 1102.76C1603.71 1101 1602.95 1098.41 1602.95 1095C1602.95 1091.59 1603.71 1089 1605.23 1087.24C1606.75 1085.48 1608.86 1084.6 1611.55 1084.6C1614.22 1084.6 1616.31 1085.48 1617.83 1087.24C1619.38 1089 1620.15 1091.59 1620.15 1095C1620.15 1098.41 1619.38 1101 1617.83 1102.76C1616.31 1104.52 1614.22 1105.4 1611.55 1105.4ZM1611.55 1102.6C1612.94 1102.6 1614.05 1102 1614.87 1100.8C1615.73 1099.57 1616.15 1097.64 1616.15 1095C1616.15 1092.36 1615.73 1090.44 1614.87 1089.24C1614.05 1088.01 1612.94 1087.4 1611.55 1087.4C1610.17 1087.4 1609.05 1088.01 1608.19 1089.24C1607.37 1090.44 1606.95 1092.36 1606.95 1095C1606.95 1097.64 1607.37 1099.57 1608.19 1100.8C1609.05 1102 1610.17 1102.6 1611.55 1102.6ZM1632.76 1105.4C1630.07 1105.4 1627.96 1104.52 1626.44 1102.76C1624.92 1101 1624.16 1098.41 1624.16 1095C1624.16 1091.59 1624.92 1089 1626.44 1087.24C1627.96 1085.48 1630.07 1084.6 1632.76 1084.6C1635.43 1084.6 1637.52 1085.48 1639.04 1087.24C1640.59 1089 1641.36 1091.59 1641.36 1095C1641.36 1098.41 1640.59 1101 1639.04 1102.76C1637.52 1104.52 1635.43 1105.4 1632.76 1105.4ZM1632.76 1102.6C1634.15 1102.6 1635.26 1102 1636.08 1100.8C1636.94 1099.57 1637.36 1097.64 1637.36 1095C1637.36 1092.36 1636.94 1090.44 1636.08 1089.24C1635.26 1088.01 1634.15 1087.4 1632.76 1087.4C1631.38 1087.4 1630.26 1088.01 1629.4 1089.24C1628.58 1090.44 1628.16 1092.36 1628.16 1095C1628.16 1097.64 1628.58 1099.57 1629.4 1100.8C1630.26 1102 1631.38 1102.6 1632.76 1102.6ZM1646.37 1085H1649.17L1649.57 1087.4H1649.77C1650.15 1086.97 1650.63 1086.51 1651.21 1086C1652.47 1085.07 1653.79 1084.6 1655.17 1084.6C1656.72 1084.6 1658.07 1085.07 1659.21 1086C1659.75 1086.48 1660.13 1086.95 1660.37 1087.4C1660.75 1087 1661.29 1086.53 1662.01 1086C1663.51 1085.07 1664.96 1084.6 1666.37 1084.6C1667.57 1084.6 1668.65 1084.89 1669.61 1085.48C1670.6 1086.04 1671.37 1086.84 1671.93 1087.88C1672.49 1088.92 1672.77 1090.09 1672.77 1091.4V1105H1668.77V1091.4C1668.77 1090.31 1668.44 1089.4 1667.77 1088.68C1667.11 1087.96 1666.31 1087.6 1665.37 1087.6C1664.55 1087.6 1663.67 1087.93 1662.73 1088.6C1662.44 1088.79 1662.05 1089.12 1661.57 1089.6V1105H1657.57V1091.4C1657.57 1090.31 1657.24 1089.4 1656.57 1088.68C1655.91 1087.96 1655.11 1087.6 1654.17 1087.6C1653.32 1087.6 1652.44 1088 1651.53 1088.8C1651.19 1089.09 1650.8 1089.49 1650.37 1090V1105H1646.37V1085ZM1694.96 1100V1093.4H1688.36V1090.2H1694.96V1083.6H1698.16V1090.2H1704.76V1093.4H1698.16V1100H1694.96Z" fill="white"/>
<line x1="225" y1="640.5" x2="856" y2="640.5" stroke="black"/>
<line x1="225" y1="710.5" x2="856" y2="710.5" stroke="black"/>
<line x1="225" y1="962.5" x2="856" y2="962.5" stroke="black"/>
<line x1="225" y1="1032.5" x2="856" y2="1032.5" stroke="black"/>
<rect x="1793" y="288" width="700" height="418" transform="rotate(90 1793 288)" fill="#C4C4C4"/>
<line x1="225" y1="339.5" x2="856" y2="339.5" stroke="black"/>
<line x1="225" y1="409.5" x2="856" y2="409.5" stroke="black"/>
<rect x="133" y="163" width="1661" height="73" rx="30" fill="#C4C4C4"/>
<rect x="1279.48" y="1135.19" width="38" height="14" transform="rotate(24.1307 1279.48 1135.19)" fill="#EFBA9B"/>
<path d="M1269.55 1144.13L1310.32 1162.39L1300.96 1183.3L1236.38 1154.37L1269.55 1144.13Z" fill="#353535"/>
<rect x="1298.31" y="1200.4" width="38.8342" height="17.7999" transform="rotate(20.6762 1298.31 1200.4)" fill="#EFBA9B"/>
<path d="M1288.84 1201L1338.84 1217.5L1362.85 1129.99L1468.34 1045.4L1418.56 1013.05L1323.45 1093.52L1288.84 1201Z" fill="#392525"/>
<path d="M1378.73 960.355L1424.62 1002.57L1340.88 1076.18L1313.7 1155.5L1270.38 1133L1302.99 1038.08L1378.73 960.355Z" fill="#392525"/>
<path d="M1370 969.5H1480L1469 1045.5L1401 1053.5L1370 1045.5V969.5Z" fill="#392525"/>
<path d="M1288.76 1210.1L1331.36 1224.42L1322.29 1242.84L1263.34 1221.24L1288.76 1210.1Z" fill="#353535"/>
<path d="M1375.5 820.938C1375.93 806.925 1384.69 794.524 1397.76 789.447C1414.22 783.054 1432.49 783.132 1448.89 789.664L1455.04 792.115C1471.85 798.811 1482.74 815.245 1482.34 833.336L1479.33 969.5H1371L1375.5 820.938Z" fill="#BA4459"/>
<path d="M1477.61 890L1489.76 911.864L1402.15 959.117L1400.76 939.404L1477.61 890Z" fill="#EFBA9B"/>
<path d="M1496.97 898.255C1496.16 909.623 1485.04 917.486 1474 914.5L1478 872L1499 870L1496.97 898.255Z" fill="#EFBA9B"/>
<path d="M1455.4 814.003L1473.38 806.752L1484.59 827.925L1506.48 882.096L1471.21 886.951L1455.4 814.003Z" fill="#BA4459"/>
<path d="M1473.51 749.032C1473.51 783.014 1448.54 810.563 1417.75 810.563C1386.96 810.563 1362 783.014 1362 749.032C1362 715.049 1386.96 687.5 1417.75 687.5C1448.54 687.5 1473.51 715.049 1473.51 749.032Z" fill="#EFBA9B"/>
<path d="M1339.82 694.596C1341.34 676.274 1361.05 665.43 1377.35 673.952C1381.48 676.117 1386.13 677.113 1390.8 676.834L1417.03 675.26C1423.24 674.887 1429.47 675.573 1435.44 677.288C1454.8 682.842 1469.56 698.557 1473.88 718.226L1478.61 739.721C1478.87 740.896 1478.9 742.11 1478.7 743.296C1476.89 753.939 1461.49 753.591 1460.17 742.877L1457.82 723.791C1456.9 716.319 1449.48 711.465 1442.27 713.608L1378.36 732.59C1360.69 737.838 1342.44 726.266 1339.56 708.06C1339.19 705.7 1339.1 703.296 1339.3 700.914L1339.82 694.596Z" fill="#302424"/>
<path d="M1450.12 784.246L1411.8 801.646L1397.78 789.149" stroke="black" stroke-width="5"/>
<path d="M1418.38 747.779L1407.68 770.661L1422.17 779.331" stroke="black" stroke-width="5"/>
<path d="M1450.13 725.61V750.766" stroke="black" stroke-width="5"/>
<path d="M1384.18 727.65V752.806" stroke="black" stroke-width="5"/>
<path d="M1414.71 937.472C1418.39 943.741 1413.48 953.471 1403.72 959.205C1393.97 964.939 1383.08 964.505 1379.39 958.236C1375.71 951.968 1382.33 946.457 1392.08 940.723C1401.83 934.989 1411.02 931.204 1414.71 937.472Z" fill="#EFBA9B"/>
<path d="M1314.5 859.5L1298.5 874.5L1230.82 829.255L1246.35 813.43L1314.5 859.5Z" fill="#EFBA9B"/>
<rect width="22.1686" height="81.0032" rx="3" transform="matrix(-0.283027 -0.959112 0.89894 -0.438071 1298.27 875.747)" fill="#EFBA9B"/>
<path d="M1406.5 825L1394.58 806.619C1387.99 796.453 1375.8 793.667 1367.74 800.483L1327.5 834.5L1334.31 869.115L1355 858.5L1380.5 845.5L1406.5 825Z" fill="#BA4459"/>
<rect x="690" y="480" width="547" height="346" fill="white"/>
<rect x="690" y="480" width="547" height="67" fill="#114C60"/>
<rect x="863.5" y="755.5" width="201" height="49" rx="24.5" fill="#69E48E" stroke="#114C60" stroke-width="5"/>
<path d="M857.995 583.4C854.661 583.4 852.088 582.253 850.275 579.96C848.488 577.667 847.595 574.013 847.595 569C847.595 564.013 848.475 560.373 850.235 558.08C851.995 555.76 854.448 554.6 857.595 554.6C859.488 554.6 861.208 554.973 862.755 555.72C863.501 556.067 864.115 556.427 864.595 556.8L863.195 559.2H862.795C862.395 558.907 861.941 558.613 861.435 558.32C860.261 557.707 859.115 557.4 857.995 557.4C853.728 557.4 851.595 561.267 851.595 569C851.595 573.16 852.181 576.133 853.355 577.92C854.555 579.707 856.235 580.6 858.395 580.6C859.568 580.6 860.715 580.307 861.835 579.72C862.395 579.4 862.848 579.093 863.195 578.8H863.595L864.995 581.2C864.541 581.573 863.928 581.947 863.155 582.32C861.661 583.04 859.941 583.4 857.995 583.4ZM868.98 563H871.78L872.18 565.4H872.38C872.647 565 873.1 564.533 873.74 564C874.994 563.067 876.407 562.6 877.98 562.6C878.674 562.6 879.287 562.667 879.82 562.8L880.58 563L879.98 566.2H879.58C879.394 566.173 879.114 566.107 878.74 566C878.154 565.867 877.567 565.8 876.98 565.8C876.1 565.8 875.154 566.2 874.14 567C873.794 567.293 873.407 567.693 872.98 568.2V583H868.98V563ZM891.39 583.4C888.617 583.4 886.457 582.52 884.91 580.76C883.363 579 882.59 576.413 882.59 573C882.59 569.613 883.337 567.04 884.83 565.28C886.323 563.493 888.31 562.6 890.79 562.6C893.27 562.6 895.257 563.493 896.75 565.28C898.243 567.04 898.99 569.613 898.99 573V573.6L898.19 574.4H886.59C886.59 576.453 887.043 578 887.95 579.04C888.857 580.08 890.137 580.6 891.79 580.6C892.777 580.6 893.803 580.307 894.87 579.72C895.43 579.4 895.87 579.093 896.19 578.8H896.59L897.99 581.2C897.51 581.6 896.91 581.973 896.19 582.32C894.803 583.04 893.203 583.4 891.39 583.4ZM894.99 571.6C894.99 569.493 894.603 567.933 893.83 566.92C893.083 565.907 892.07 565.4 890.79 565.4C889.51 565.4 888.483 565.907 887.71 566.92C886.963 567.933 886.59 569.493 886.59 571.6H894.99ZM909.185 583.4C907.105 583.4 905.478 582.853 904.305 581.76C903.158 580.64 902.585 579.12 902.585 577.2C902.585 575.307 903.265 573.84 904.625 572.8C906.012 571.733 908.198 571.2 911.185 571.2H914.385V570.2C914.385 568.627 914.012 567.44 913.265 566.64C912.545 565.813 911.518 565.4 910.185 565.4C909.225 565.4 908.185 565.707 907.065 566.32C906.505 566.64 906.078 566.933 905.785 567.2H905.385L903.985 564.8C904.518 564.4 905.118 564.04 905.785 563.72C907.225 562.973 908.825 562.6 910.585 562.6C912.105 562.6 913.452 562.933 914.625 563.6C915.798 564.24 916.718 565.147 917.385 566.32C918.052 567.467 918.385 568.76 918.385 570.2V583H915.585L915.185 580.6H914.985C914.612 581.133 914.145 581.6 913.585 582C912.412 582.933 910.945 583.4 909.185 583.4ZM910.185 580.4C911.172 580.4 912.172 580 913.185 579.2C913.638 578.827 914.038 578.427 914.385 578V574H911.185C909.665 574 908.518 574.293 907.745 574.88C906.972 575.467 906.585 576.24 906.585 577.2C906.585 578.24 906.878 579.04 907.465 579.6C908.078 580.133 908.985 580.4 910.185 580.4ZM931.576 583.4C929.576 583.4 927.976 582.813 926.776 581.64C925.576 580.467 924.976 578.92 924.976 577V565.8H921.976V563.4L927.176 558.2H928.976V563H933.976V565.8H928.976V577C928.976 578.173 929.242 579.067 929.776 579.68C930.309 580.293 931.042 580.6 931.976 580.6C932.776 580.6 933.562 580.333 934.336 579.8C934.682 579.56 935.029 579.293 935.376 579H935.776L937.176 581.4C936.589 581.853 936.056 582.187 935.576 582.4C934.296 583.067 932.962 583.4 931.576 583.4ZM947.991 583.4C945.218 583.4 943.058 582.52 941.511 580.76C939.965 579 939.191 576.413 939.191 573C939.191 569.613 939.938 567.04 941.431 565.28C942.925 563.493 944.911 562.6 947.391 562.6C949.871 562.6 951.858 563.493 953.351 565.28C954.845 567.04 955.591 569.613 955.591 573V573.6L954.791 574.4H943.191C943.191 576.453 943.645 578 944.551 579.04C945.458 580.08 946.738 580.6 948.391 580.6C949.378 580.6 950.405 580.307 951.471 579.72C952.031 579.4 952.471 579.093 952.791 578.8H953.191L954.591 581.2C954.111 581.6 953.511 581.973 952.791 582.32C951.405 583.04 949.805 583.4 947.991 583.4ZM951.591 571.6C951.591 569.493 951.205 567.933 950.431 566.92C949.685 565.907 948.671 565.4 947.391 565.4C946.111 565.4 945.085 565.907 944.311 566.92C943.565 567.933 943.191 569.493 943.191 571.6H951.591ZM972.588 555H979.388C982.748 555 985.255 555.747 986.908 557.24C988.562 558.733 989.388 560.92 989.388 563.8C989.388 568.067 987.562 570.8 983.908 572L990.588 583H985.988L979.788 572.6H976.588V583H972.588V555ZM979.388 569.8C983.388 569.8 985.388 567.8 985.388 563.8C985.388 559.8 983.388 557.8 979.388 557.8H976.588V569.8H979.388ZM1002.6 583.4C999.903 583.4 997.796 582.52 996.276 580.76C994.756 579 993.996 576.413 993.996 573C993.996 569.587 994.756 567 996.276 565.24C997.796 563.48 999.903 562.6 1002.6 562.6C1005.26 562.6 1007.36 563.48 1008.88 565.24C1010.42 567 1011.2 569.587 1011.2 573C1011.2 576.413 1010.42 579 1008.88 580.76C1007.36 582.52 1005.26 583.4 1002.6 583.4ZM1002.6 580.6C1003.98 580.6 1005.09 580 1005.92 578.8C1006.77 577.573 1007.2 575.64 1007.2 573C1007.2 570.36 1006.77 568.44 1005.92 567.24C1005.09 566.013 1003.98 565.4 1002.6 565.4C1001.21 565.4 1000.09 566.013 999.236 567.24C998.409 568.44 997.996 570.36 997.996 573C997.996 575.64 998.409 577.573 999.236 578.8C1000.09 580 1001.21 580.6 1002.6 580.6ZM1023.81 583.4C1021.11 583.4 1019.01 582.52 1017.49 580.76C1015.97 579 1015.21 576.413 1015.21 573C1015.21 569.587 1015.97 567 1017.49 565.24C1019.01 563.48 1021.11 562.6 1023.81 562.6C1026.47 562.6 1028.57 563.48 1030.09 565.24C1031.63 567 1032.41 569.587 1032.41 573C1032.41 576.413 1031.63 579 1030.09 580.76C1028.57 582.52 1026.47 583.4 1023.81 583.4ZM1023.81 580.6C1025.19 580.6 1026.3 580 1027.13 578.8C1027.98 577.573 1028.41 575.64 1028.41 573C1028.41 570.36 1027.98 568.44 1027.13 567.24C1026.3 566.013 1025.19 565.4 1023.81 565.4C1022.42 565.4 1021.3 566.013 1020.45 567.24C1019.62 568.44 1019.21 570.36 1019.21 573C1019.21 575.64 1019.62 577.573 1020.45 578.8C1021.3 580 1022.42 580.6 1023.81 580.6ZM1037.42 563H1040.22L1040.62 565.4H1040.82C1041.19 564.973 1041.67 564.507 1042.26 564C1043.51 563.067 1044.83 562.6 1046.22 562.6C1047.76 562.6 1049.11 563.067 1050.26 564C1050.79 564.48 1051.18 564.947 1051.42 565.4C1051.79 565 1052.34 564.533 1053.06 564C1054.55 563.067 1056 562.6 1057.42 562.6C1058.62 562.6 1059.7 562.893 1060.66 563.48C1061.64 564.04 1062.42 564.84 1062.98 565.88C1063.54 566.92 1063.82 568.093 1063.82 569.4V583H1059.82V569.4C1059.82 568.307 1059.48 567.4 1058.82 566.68C1058.15 565.96 1057.35 565.6 1056.42 565.6C1055.59 565.6 1054.71 565.933 1053.78 566.6C1053.48 566.787 1053.1 567.12 1052.62 567.6V583H1048.62V569.4C1048.62 568.307 1048.28 567.4 1047.62 566.68C1046.95 565.96 1046.15 565.6 1045.22 565.6C1044.36 565.6 1043.48 566 1042.58 566.8C1042.23 567.093 1041.84 567.493 1041.42 568V583H1037.42V563Z" fill="black"/>
<rect x="745" y="608" width="449" height="37" rx="18.5" fill="#C4C4C4"/>
<rect x="745" y="674" width="449" height="37" rx="18.5" fill="#C4C4C4"/>
<ellipse cx="1233.02" cy="816.583" rx="14.51" ry="17.0493" transform="rotate(119.411 1233.02 816.583)" fill="#EFBA9B"/>
<path d="M1221.79 794.125C1228.05 798.672 1242.83 804.117 1241.04 806.573C1239.26 809.03 1221.58 807.569 1215.32 803.022C1209.07 798.475 1205.45 792.798 1207.23 790.341C1209.02 787.884 1215.54 789.578 1221.79 794.125Z" fill="#EFBA9B"/>
<path d="M718.507 753L731.752 794.794L758.372 805.507L731.752 818.486L718.507 858.015L705.132 818.486L678.777 805.507L705.132 794.794L718.507 753Z" fill="#ECC334"/>
<path d="M1236.45 447L1242.87 467.256L1255.77 472.448L1242.87 478.738L1236.45 497.896L1229.97 478.738L1217.19 472.448L1229.97 467.256L1236.45 447Z" fill="#ECC334"/>
<rect width="28.9548" height="15.5639" transform="matrix(-0.140621 -0.990063 -0.990063 0.140621 55.8799 1082.59)" fill="#EFBA9B"/>
<rect width="33.2264" height="12.2413" transform="matrix(-0.982624 0.18561 0.18561 0.982624 134.515 1139.77)" fill="#EFBA9B"/>
<path d="M48.3417 1054.16L54.2661 1085.52L193.624 1067.2L191.965 1023.08L152.755 896.236L112.009 928.89L149.862 1031.04L48.3417 1054.16Z" fill="#0B1530"/>
<path d="M120.502 952.52L66.1622 956.915L102.354 1148.51L141.24 1141.17L120.502 952.52Z" fill="#0B1530"/>
<path d="M152.234 894.385L57.7241 912.238L70.0583 977.536L116.294 954.431L164.569 959.683L152.234 894.385Z" fill="#0B1530"/>
<path d="M41.1565 1094.82L43.7098 1054.89L21.2115 1057.31L19.7242 1112.19L41.1565 1094.82Z" fill="#353535"/>
<path d="M141.143 1149.39L102.755 1156.64L106.473 1176.32L167.271 1164.84L141.143 1149.39Z" fill="#353535"/>
<path d="M123.395 767.637C120.756 755.665 111.213 746.433 99.1603 744.192C83.9829 741.37 68.2999 744.402 55.2674 752.676L50.3774 755.781C37.0205 764.262 30.3383 780.148 33.6175 795.626L58.3001 912.129L151.374 894.548L123.395 767.637Z" fill="#345E13"/>
<path d="M44.6475 843.962L46.645 865.741L133.209 856.708L124.498 841.784L44.6475 843.962Z" fill="#EFBA9B"/>
<path d="M31.5759 853.78C34.121 863.415 44.951 868.366 53.9515 864.009L43.6173 828.143L25.2498 829.832L31.5759 853.78Z" fill="#EFBA9B"/>
<path d="M53.6225 774.644L36.9959 771.333L30.8001 791.344L20.7897 841.438L51.8749 839.887L53.6225 774.644Z" fill="#345E13"/>
<path d="M27.5229 721.76C33.0381 750.958 58.9553 770.576 85.4106 765.579C111.866 760.582 128.841 732.862 123.326 703.664C117.811 674.466 91.8936 654.848 65.4383 659.845C38.983 664.842 22.0077 692.563 27.5229 721.76Z" fill="#EFBA9B"/>
<path d="M133.545 653.295C129.264 637.799 110.57 631.681 97.9558 641.647C94.7514 644.179 90.9176 645.79 86.8665 646.306L64.0679 649.212C58.6748 649.9 53.4379 651.499 48.5811 653.942C32.8509 661.855 22.7228 677.753 22.1987 695.354L21.6259 714.59C21.5946 715.641 21.7661 716.688 22.131 717.675C25.406 726.527 38.5883 723.728 37.9828 714.308L36.9041 697.528C36.4818 690.959 42.0631 685.585 48.6117 686.256L106.599 692.193C122.631 693.835 136.439 680.929 135.954 664.821C135.891 662.732 135.578 660.652 135.022 658.638L133.545 653.295Z" fill="#302424"/>
<path d="M74.685 711.737L87.5889 729.662L76.5427 739.463" stroke="black" stroke-width="5"/>
<path d="M43.8008 697.844L47.8835 719.458" stroke="black" stroke-width="5"/>
<path d="M100.799 688.893L104.882 710.507" stroke="black" stroke-width="5"/>
<path d="M116.033 850.438C117.405 856.647 126.347 859.95 136.005 857.815C145.664 855.68 152.38 848.916 151.008 842.707C149.636 836.499 142.117 836.91 132.459 839.045C122.801 841.18 114.661 844.23 116.033 850.438Z" fill="#EFBA9B"/>
<rect width="19.3837" height="33.158" transform="matrix(0.901882 -0.431983 -0.276536 -0.961004 132.758 845.1)" fill="#EFBA9B"/>
<path d="M112.132 750.243L114.173 750.42C121.126 751.024 126.7 755.046 128.901 761.049L144.698 804.13L126.223 824.837L107.012 817.503L112.132 750.243Z" fill="#345E13"/>
<ellipse cx="83.361" cy="754.342" rx="4.37189" ry="7.43221" transform="rotate(-10.6967 83.361 754.342)" fill="#471C1C"/>
<ellipse rx="12.6872" ry="14.9075" transform="matrix(0.871286 -0.490776 -0.490776 -0.871286 96.8893 777.86)" fill="#EFBA9B"/>
<rect width="19.3837" height="68.307" transform="matrix(0.714074 -0.700071 -0.572042 -0.820224 133.202 845.537)" fill="#EFBA9B"/>
<rect x="515.435" y="424.455" width="346" height="126" rx="63" transform="rotate(20.9147 515.435 424.455)" fill="#717186" stroke="#114C60" stroke-width="10"/>
<path d="M556.007 488.135L563.947 491.169C567.87 492.668 570.464 494.659 571.728 497.14C572.992 499.622 572.982 502.544 571.697 505.906C569.793 510.888 566.44 513.265 561.639 513.036L564.531 528.861L559.159 526.808L556.561 511.898L552.824 510.47L548.184 522.614L543.513 520.829L556.007 488.135ZM557.343 508.45C562.014 510.235 565.241 508.792 567.026 504.122C568.811 499.451 567.368 496.223 562.698 494.438L559.428 493.189L554.074 507.201L557.343 508.45ZM578.373 534.686C575.228 533.484 573.161 531.516 572.171 528.783C571.182 526.05 571.449 522.69 572.972 518.705C574.495 514.719 576.537 512.038 579.097 510.661C581.657 509.285 584.509 509.197 587.654 510.399C590.768 511.589 592.82 513.55 593.809 516.284C594.83 519.029 594.578 522.394 593.055 526.38C591.532 530.365 589.475 533.041 586.884 534.406C584.324 535.782 581.487 535.876 578.373 534.686ZM579.622 531.416C581.241 532.035 582.801 531.828 584.302 530.796C585.846 529.745 587.207 527.678 588.385 524.595C589.563 521.512 589.921 519.08 589.46 517.298C589.043 515.497 588.024 514.287 586.405 513.668C584.786 513.05 583.204 513.266 581.661 514.317C580.16 515.35 578.821 517.407 577.642 520.49C576.464 523.572 576.084 526.014 576.502 527.815C576.963 529.597 578.003 530.798 579.622 531.416ZM603.14 544.151C599.995 542.949 597.928 540.981 596.938 538.248C595.949 535.515 596.216 532.155 597.739 528.17C599.262 524.184 601.303 521.503 603.864 520.126C606.424 518.749 609.276 518.662 612.421 519.864C615.535 521.054 617.586 523.015 618.576 525.749C619.596 528.494 619.345 531.859 617.822 535.845C616.299 539.83 614.242 542.505 611.651 543.87C609.09 545.247 606.253 545.341 603.14 544.151ZM604.389 540.881C606.008 541.5 607.568 541.293 609.069 540.261C610.613 539.209 611.974 537.142 613.152 534.06C614.33 530.977 614.688 528.545 614.227 526.763C613.809 524.962 612.791 523.752 611.172 523.133C609.553 522.514 607.971 522.731 606.427 523.782C604.927 524.815 603.587 526.872 602.409 529.955C601.231 533.037 600.851 535.479 601.269 537.28C601.73 539.062 602.77 540.262 604.389 540.881ZM628.135 526.404L631.405 527.654L630.801 530.634L631.034 530.724C631.661 530.392 632.429 530.061 633.34 529.732C635.22 529.201 636.97 529.245 638.589 529.864C640.395 530.554 641.759 531.7 642.682 533.301C643.09 534.1 643.333 534.817 643.411 535.454C644.026 535.153 644.872 534.852 645.951 534.551C648.111 534.127 650.016 534.231 651.667 534.862C653.068 535.397 654.198 536.221 655.057 537.335C655.959 538.429 656.505 539.708 656.695 541.172C656.885 542.637 656.688 544.132 656.105 545.657L650.037 561.537L645.366 559.752L651.435 543.872C651.923 542.596 651.938 541.388 651.481 540.25C651.024 539.112 650.25 538.335 649.16 537.918C648.195 537.549 647.019 537.546 645.632 537.908C645.206 537.995 644.606 538.212 643.831 538.558L636.959 556.54L632.288 554.755L638.357 538.875C638.845 537.598 638.86 536.391 638.403 535.253C637.946 534.114 637.173 533.337 636.083 532.921C635.086 532.54 633.88 532.614 632.465 533.144C631.929 533.332 631.299 533.626 630.575 534.027L623.881 551.542L619.211 549.757L628.135 526.404ZM679.265 545.944L682.535 547.193L681.931 550.174L682.164 550.263C682.697 549.896 683.45 549.559 684.424 549.253C686.366 548.747 688.287 548.856 690.186 549.582C692.521 550.474 694.135 551.948 695.027 554.001C695.963 556.036 695.984 558.221 695.092 560.556L689.023 576.436L684.353 574.651L690.421 558.771C690.921 557.464 690.905 556.244 690.374 555.113C689.886 553.963 688.987 553.138 687.68 552.639C686.528 552.198 685.182 552.219 683.641 552.701C682.977 552.947 682.331 553.235 681.705 553.567L675.011 571.082L670.341 569.297L679.265 545.944ZM701.919 581.9C699.49 580.971 697.834 579.607 696.952 577.807C696.113 575.988 696.122 573.957 696.979 571.715C697.824 569.504 699.272 568.095 701.324 567.488C703.419 566.861 706.21 567.214 709.698 568.547L713.434 569.975L713.88 568.807C714.582 566.97 714.676 565.418 714.161 564.15C713.689 562.864 712.675 561.923 711.118 561.328C709.997 560.9 708.646 560.794 707.065 561.01C706.268 561.134 705.639 561.286 705.177 561.467L704.71 561.288L704.147 557.861C704.948 557.632 705.809 557.479 706.73 557.403C708.745 557.174 710.78 557.452 712.835 558.237C714.609 558.916 716.033 559.906 717.106 561.208C718.19 562.479 718.86 563.948 719.115 565.615C719.381 567.252 719.194 568.911 718.551 570.592L712.839 585.538L709.57 584.288L710.174 581.307L709.94 581.218C709.266 581.674 708.513 582.011 707.681 582.228C705.894 582.794 703.974 582.685 701.919 581.9ZM704.425 578.843C705.577 579.283 706.923 579.262 708.463 578.78C709.159 578.547 709.805 578.258 710.4 577.915L712.185 573.244L708.448 571.816C706.673 571.138 705.204 570.969 704.039 571.309C702.874 571.649 702.078 572.379 701.649 573.5C701.185 574.714 701.171 575.779 701.606 576.695C702.084 577.591 703.024 578.307 704.425 578.843ZM728.525 564.769L731.795 566.018L731.191 568.999L731.424 569.088C732.05 568.757 732.819 568.426 733.73 568.096C735.61 567.566 737.36 567.61 738.979 568.228C740.785 568.919 742.149 570.064 743.071 571.666C743.48 572.464 743.723 573.182 743.801 573.818C744.416 573.518 745.262 573.217 746.341 572.915C748.501 572.492 750.406 572.595 752.056 573.226C753.458 573.762 754.588 574.586 755.447 575.699C756.349 576.794 756.895 578.073 757.085 579.537C757.275 581.001 757.078 582.496 756.495 584.022L750.426 599.902L745.756 598.117L751.824 582.237C752.312 580.96 752.328 579.753 751.871 578.615C751.413 577.477 750.64 576.699 749.55 576.283C748.585 575.914 747.409 575.911 746.021 576.272C745.596 576.36 744.995 576.576 744.221 576.923L737.349 594.904L732.678 593.119L738.747 577.239C739.235 575.963 739.25 574.755 738.793 573.617C738.336 572.479 737.562 571.702 736.473 571.285C735.476 570.904 734.27 570.979 732.855 571.508C732.319 571.696 731.689 571.991 730.965 572.392L724.271 589.907L719.601 588.122L728.525 564.769ZM766.113 606.432C762.875 605.194 760.746 603.203 759.725 600.458C758.704 597.713 758.956 594.347 760.479 590.362C761.99 586.407 764.01 583.736 766.539 582.347C769.08 580.927 771.798 580.771 774.694 581.877C777.59 582.984 779.511 584.913 780.457 587.666C781.416 590.387 781.139 593.725 779.628 597.68L779.36 598.38L778.069 598.957L764.525 593.781C763.608 596.179 763.448 598.187 764.042 599.806C764.637 601.425 765.899 602.603 767.83 603.341C768.982 603.781 770.311 603.897 771.819 603.688C772.615 603.564 773.266 603.402 773.771 603.203L774.238 603.381L774.801 606.808C774.062 607.061 773.195 607.229 772.2 607.313C770.259 607.535 768.231 607.241 766.113 606.432ZM775.582 594.26C776.522 591.8 776.767 589.806 776.316 588.278C775.896 586.762 774.939 585.718 773.445 585.147C771.95 584.576 770.525 584.709 769.17 585.547C767.846 586.397 766.714 588.052 765.774 590.512L775.582 594.26Z" fill="white"/>
<rect x="475.729" y="650.289" width="327.635" height="108.105" rx="54.0526" transform="rotate(3.41563 475.729 650.289)" fill="#717186" stroke="#114C60" stroke-width="10"/>
<path d="M535.931 692.582L543.568 693.038C547.341 693.263 550.106 694.27 551.862 696.058C553.619 697.846 554.401 700.357 554.208 703.591C553.922 708.382 551.687 711.329 547.504 712.432L554.269 725.233L549.103 724.925L542.837 712.83L539.244 712.615L538.546 724.295L534.054 724.026L535.931 692.582ZM542.576 709.659C547.068 709.927 549.448 707.815 549.716 703.323C549.984 698.831 547.872 696.451 543.38 696.183L540.236 695.995L539.431 709.471L542.576 709.659ZM567.726 726.487C564.702 726.306 562.395 725.177 560.806 723.099C559.217 721.02 558.537 718.065 558.766 714.231C558.995 710.398 560.021 707.544 561.846 705.67C563.671 703.795 566.096 702.948 569.121 703.129C572.115 703.307 574.407 704.436 575.996 706.514C577.615 708.594 578.31 711.551 578.081 715.384C577.853 719.217 576.811 722.07 574.956 723.943C573.131 725.818 570.721 726.666 567.726 726.487ZM567.914 723.343C569.471 723.436 570.754 722.836 571.763 721.544C572.804 720.223 573.412 718.081 573.589 715.116C573.766 712.151 573.416 709.967 572.538 708.562C571.692 707.129 570.49 706.366 568.933 706.273C567.376 706.18 566.077 706.794 565.036 708.114C564.028 709.406 563.435 711.535 563.258 714.499C563.081 717.464 563.415 719.663 564.262 721.096C565.139 722.501 566.357 723.25 567.914 723.343ZM591.546 727.909C588.522 727.728 586.215 726.599 584.626 724.52C583.037 722.442 582.357 719.486 582.586 715.653C582.814 711.82 583.841 708.966 585.666 707.091C587.491 705.217 589.916 704.37 592.941 704.55C595.935 704.729 598.227 705.858 599.816 707.936C601.435 710.016 602.13 712.973 601.901 716.806C601.673 720.639 600.631 723.492 598.776 725.365C596.951 727.239 594.541 728.087 591.546 727.909ZM591.734 724.764C593.291 724.857 594.574 724.258 595.583 722.965C596.624 721.645 597.232 719.502 597.409 716.538C597.586 713.573 597.236 711.388 596.358 709.983C595.512 708.551 594.31 707.788 592.753 707.695C591.196 707.602 589.897 708.215 588.856 709.536C587.847 710.828 587.255 712.956 587.078 715.921C586.901 718.886 587.235 721.085 588.081 722.518C588.959 723.922 590.177 724.671 591.734 724.764ZM608.199 705.912L611.343 706.099L611.632 708.821L611.856 708.835C612.304 708.381 612.874 707.889 613.567 707.359C615.037 706.395 616.551 705.959 618.108 706.052C619.845 706.156 621.326 706.77 622.551 707.895C623.118 708.47 623.521 709.02 623.76 709.545C624.206 709.121 624.851 708.634 625.696 708.083C627.435 707.135 629.099 706.708 630.686 706.803C632.033 706.883 633.226 707.285 634.265 708.008C635.336 708.703 636.151 709.654 636.71 710.859C637.269 712.065 637.505 713.401 637.417 714.868L636.506 730.141L632.014 729.873L632.925 714.6C632.998 713.373 632.685 712.332 631.984 711.479C631.284 710.625 630.41 710.168 629.362 710.105C628.433 710.05 627.423 710.365 626.33 711.051C625.988 711.241 625.531 711.589 624.96 712.096L623.928 729.391L619.436 729.122L620.347 713.85C620.421 712.622 620.107 711.581 619.407 710.728C618.706 709.875 617.832 709.417 616.784 709.354C615.826 709.297 614.811 709.687 613.739 710.525C613.33 710.831 612.869 711.254 612.356 711.795L611.35 728.64L606.858 728.372L608.199 705.912ZM664.317 732.252C662.071 732.118 660.313 731.352 659.044 729.954C657.776 728.556 657.205 726.779 657.334 724.622L658.085 712.045L654.716 711.844L654.877 709.148L661.065 703.657L663.086 703.778L662.764 709.168L668.379 709.504L668.192 712.648L662.577 712.313L661.826 724.89C661.747 726.208 661.987 727.229 662.545 727.954C663.103 728.678 663.906 729.072 664.954 729.134C665.852 729.188 666.753 728.941 667.658 728.394C668.063 728.148 668.47 727.872 668.879 727.565L669.328 727.592L670.74 730.381C670.051 730.851 669.429 731.19 668.876 731.397C667.394 732.06 665.874 732.345 664.317 732.252ZM680.056 733.191C677.721 733.052 675.931 732.329 674.686 731.023C673.474 729.688 672.932 727.943 673.06 725.786C673.187 723.66 674.049 722.059 675.646 720.982C677.275 719.877 679.766 719.425 683.12 719.625L686.714 719.839L686.781 718.716C686.886 716.949 686.547 715.592 685.762 714.643C685.009 713.667 683.883 713.134 682.386 713.044C681.308 712.98 680.119 713.255 678.821 713.868C678.17 714.19 677.671 714.491 677.324 714.771L676.875 714.744L675.464 711.955C676.089 711.542 676.787 711.177 677.557 710.863C679.225 710.121 681.046 709.809 683.023 709.927C684.73 710.029 686.22 710.493 687.493 711.321C688.767 712.118 689.74 713.198 690.41 714.56C691.082 715.893 691.369 717.367 691.273 718.984L690.415 733.359L687.27 733.171L686.982 730.449L686.758 730.436C686.303 731.01 685.747 731.502 685.092 731.914C683.711 732.884 682.033 733.309 680.056 733.191ZM681.381 729.889C682.489 729.956 683.638 729.573 684.83 728.743C685.364 728.354 685.84 727.932 686.258 727.476L686.526 722.984L682.933 722.769C681.226 722.667 679.918 722.92 679.01 723.527C678.103 724.134 677.617 724.976 677.552 726.054C677.483 727.222 677.758 728.14 678.38 728.809C679.033 729.449 680.033 729.809 681.381 729.889ZM703.991 743.636C701.955 743.514 700.182 743.003 698.673 742.101C697.888 741.664 697.239 741.204 696.727 740.723L698.46 738.122L698.909 738.148C699.191 738.466 699.649 738.839 700.285 739.267C701.443 739.998 702.592 740.397 703.73 740.465C705.646 740.579 707.081 740.199 708.035 739.324C709.019 738.451 709.572 736.997 709.693 734.96L709.774 733.613C709.308 733.855 708.801 734.05 708.251 734.198C707.116 734.581 705.95 734.737 704.752 734.665C702.057 734.504 699.945 733.387 698.416 731.312C696.888 729.207 696.238 726.253 696.465 722.45C696.615 719.934 697.101 717.83 697.924 716.136C698.778 714.413 699.845 713.155 701.124 712.36C702.406 711.534 703.78 711.166 705.248 711.253C707.074 711.362 708.69 711.985 710.095 713.12C710.78 713.732 711.273 714.288 711.573 714.786L711.798 714.8L712.408 712.131L715.553 712.319L714.185 735.228C714.023 737.953 713.025 740.073 711.191 741.586C709.386 743.131 706.986 743.815 703.991 743.636ZM705.613 731.561C706.632 731.622 707.659 731.533 708.695 731.294C709.243 731.177 709.656 731.051 709.934 730.917L710.725 717.666C710.337 717.132 709.914 716.656 709.458 716.238C708.374 715.272 707.278 714.755 706.17 714.689C704.792 714.607 703.614 715.213 702.635 716.507C701.686 717.803 701.127 719.873 700.957 722.718C700.78 725.683 701.115 727.882 701.961 729.315C702.839 730.719 704.056 731.468 705.613 731.561ZM727.444 736.02C724.988 735.873 722.946 735.345 721.317 734.437C720.472 733.996 719.793 733.534 719.281 733.053L721.014 730.452L721.463 730.479C721.775 730.798 722.278 731.173 722.974 731.606C724.312 732.347 725.715 732.761 727.182 732.848C728.979 732.956 730.299 732.749 731.141 732.228C732.014 731.709 732.478 730.971 732.536 730.012C732.595 729.024 732.205 728.25 731.367 727.689C730.559 727.129 729.274 726.497 727.513 725.791C725.958 725.157 724.715 724.587 723.783 724.08C722.852 723.574 722.067 722.881 721.428 722.001C720.789 721.122 720.509 720.023 720.588 718.705C720.708 716.699 721.506 715.154 722.983 714.07C724.491 712.988 726.667 712.532 729.512 712.701C731.638 712.828 733.544 713.363 735.231 714.305C736.046 714.744 736.711 715.19 737.225 715.641L735.492 718.243L735.043 718.216C734.613 717.86 734.124 717.5 733.575 717.136C732.298 716.369 731.031 715.948 729.773 715.873C728.276 715.783 727.136 716.001 726.353 716.525C725.572 717.019 725.157 717.686 725.107 718.524C725.048 719.513 725.422 720.286 726.231 720.845C727.069 721.406 728.368 722.04 730.129 722.746C731.684 723.38 732.927 723.95 733.859 724.456C734.79 724.963 735.576 725.656 736.214 726.535C736.853 727.415 737.133 728.514 737.054 729.831C736.928 731.957 736.08 733.575 734.511 734.683C732.944 735.762 730.588 736.207 727.444 736.02Z" fill="white"/>
</svg>
