<svg width="1837" height="1286" viewBox="0 0 1837 1286" fill="none" xmlns="http://www.w3.org/2000/svg">
<rect y="162" width="1837" height="1111" fill="#B0ABAB"/>
<mask id="mask0_636_263" style="mask-type:alpha" maskUnits="userSpaceOnUse" x="0" y="162" width="1423" height="1111">
<rect y="162" width="1422.52" height="1111" fill="#B0ABAB"/>
</mask>
<g mask="url(#mask0_636_263)">
<rect width="2284.86" height="1275.09" rx="99" transform="matrix(0.615001 -0.788527 0.615001 0.788527 -1289.66 1922.93)" fill="#2D3436"/>
</g>
<rect y="162" width="1837" height="1111" fill="#69E48E"/>
<mask id="mask1_636_263" style="mask-type:alpha" maskUnits="userSpaceOnUse" x="0" y="162" width="1423" height="1111">
<rect y="162" width="1422.52" height="1111" fill="#B0ABAB"/>
</mask>
<g mask="url(#mask1_636_263)">
<rect width="2284.86" height="1275.09" rx="99" transform="matrix(0.615001 -0.788527 0.615001 0.788527 -1289.66 1922.93)" fill="#114C60"/>
</g>
<rect x="187.381" y="292.991" width="1444.39" height="906.023" fill="white"/>
<rect x="964.787" y="292.991" width="666.986" height="906.023" fill="#114C60"/>
<path d="M457.3 343H469.2C475.08 343 479.467 344.307 482.36 346.92C485.253 349.533 486.7 353.36 486.7 358.4C486.7 365.867 483.503 370.65 477.11 372.75L488.8 392H480.75L469.9 373.8H464.3V392H457.3V343ZM469.2 368.9C476.2 368.9 479.7 365.4 479.7 358.4C479.7 351.4 476.2 347.9 469.2 347.9H464.3V368.9H469.2ZM510.164 392.7C505.31 392.7 501.53 391.16 498.824 388.08C496.117 385 494.764 380.473 494.764 374.5C494.764 368.573 496.07 364.07 498.684 360.99C501.297 357.863 504.774 356.3 509.114 356.3C513.454 356.3 516.93 357.863 519.544 360.99C522.157 364.07 523.464 368.573 523.464 374.5V375.55L522.064 376.95H501.764C501.764 380.543 502.557 383.25 504.144 385.07C505.73 386.89 507.97 387.8 510.864 387.8C512.59 387.8 514.387 387.287 516.254 386.26C517.234 385.7 518.004 385.163 518.564 384.65H519.264L521.714 388.85C520.874 389.55 519.824 390.203 518.564 390.81C516.137 392.07 513.337 392.7 510.164 392.7ZM516.464 372.05C516.464 368.363 515.787 365.633 514.434 363.86C513.127 362.087 511.354 361.2 509.114 361.2C506.874 361.2 505.077 362.087 503.724 363.86C502.417 365.633 501.764 368.363 501.764 372.05H516.464ZM543.755 406.7C540.582 406.7 537.782 406.07 535.355 404.81C534.095 404.203 533.045 403.55 532.205 402.85L534.655 398.65H535.355C535.822 399.117 536.569 399.653 537.595 400.26C539.462 401.287 541.282 401.8 543.055 401.8C546.042 401.8 548.235 401.077 549.635 399.63C551.082 398.183 551.805 395.873 551.805 392.7V390.6C551.105 391.02 550.335 391.37 549.495 391.65C547.769 392.35 545.972 392.7 544.105 392.7C539.905 392.7 536.522 391.16 533.955 388.08C531.389 384.953 530.105 380.427 530.105 374.5C530.105 370.58 530.665 367.267 531.785 364.56C532.952 361.807 534.492 359.753 536.405 358.4C538.319 357 540.419 356.3 542.705 356.3C545.552 356.3 548.119 357.117 550.405 358.75C551.525 359.637 552.342 360.453 552.855 361.2H553.205L553.905 357H558.805V392.7C558.805 396.947 557.452 400.33 554.745 402.85C552.085 405.417 548.422 406.7 543.755 406.7ZM545.155 387.8C546.742 387.8 548.329 387.567 549.915 387.1C550.755 386.867 551.385 386.633 551.805 386.4V365.75C551.152 364.957 550.452 364.257 549.705 363.65C547.932 362.25 546.182 361.55 544.455 361.55C542.309 361.55 540.535 362.6 539.135 364.7C537.782 366.8 537.105 370.067 537.105 374.5C537.105 379.12 537.829 382.503 539.275 384.65C540.769 386.75 542.729 387.8 545.155 387.8ZM572.816 351.4C571.603 351.4 570.6 351.003 569.806 350.21C569.013 349.417 568.616 348.413 568.616 347.2C568.616 345.987 569.013 344.983 569.806 344.19C570.6 343.397 571.603 343 572.816 343C574.03 343 575.033 343.397 575.826 344.19C576.62 344.983 577.016 345.987 577.016 347.2C577.016 348.413 576.62 349.417 575.826 350.21C575.033 351.003 574.03 351.4 572.816 351.4ZM569.316 392V357H576.316V392H569.316ZM596.966 392.7C593.14 392.7 589.92 392.07 587.306 390.81C585.953 390.203 584.856 389.55 584.016 388.85L586.466 384.65H587.166C587.68 385.117 588.496 385.653 589.616 386.26C591.763 387.287 593.98 387.8 596.266 387.8C599.066 387.8 601.096 387.357 602.356 386.47C603.663 385.583 604.316 384.393 604.316 382.9C604.316 381.36 603.64 380.193 602.286 379.4C600.98 378.607 598.926 377.743 596.126 376.81C593.653 375.97 591.67 375.2 590.176 374.5C588.683 373.8 587.4 372.797 586.326 371.49C585.253 370.183 584.716 368.503 584.716 366.45C584.716 363.323 585.813 360.85 588.006 359.03C590.246 357.21 593.583 356.3 598.016 356.3C601.33 356.3 604.34 356.953 607.046 358.26C608.353 358.867 609.426 359.497 610.266 360.15L607.816 364.35H607.116C606.416 363.837 605.623 363.323 604.736 362.81C602.683 361.737 600.676 361.2 598.716 361.2C596.383 361.2 594.633 361.643 593.466 362.53C592.3 363.37 591.716 364.443 591.716 365.75C591.716 367.29 592.37 368.457 593.676 369.25C595.03 370.043 597.106 370.907 599.906 371.84C602.38 372.68 604.363 373.45 605.856 374.15C607.35 374.85 608.633 375.853 609.706 377.16C610.78 378.467 611.316 380.147 611.316 382.2C611.316 385.513 610.15 388.103 607.816 389.97C605.483 391.79 601.866 392.7 596.966 392.7ZM631.964 392.7C628.464 392.7 625.664 391.673 623.564 389.62C621.464 387.567 620.414 384.86 620.414 381.5V361.9H615.164V357.7L624.264 348.6H627.414V357H636.164V361.9H627.414V381.5C627.414 383.553 627.88 385.117 628.814 386.19C629.747 387.263 631.03 387.8 632.664 387.8C634.064 387.8 635.44 387.333 636.794 386.4C637.4 385.98 638.007 385.513 638.614 385H639.314L641.764 389.2C640.737 389.993 639.804 390.577 638.964 390.95C636.724 392.117 634.39 392.7 631.964 392.7ZM660.691 392.7C655.838 392.7 652.058 391.16 649.351 388.08C646.644 385 645.291 380.473 645.291 374.5C645.291 368.573 646.598 364.07 649.211 360.99C651.824 357.863 655.301 356.3 659.641 356.3C663.981 356.3 667.458 357.863 670.071 360.99C672.684 364.07 673.991 368.573 673.991 374.5V375.55L672.591 376.95H652.291C652.291 380.543 653.084 383.25 654.671 385.07C656.258 386.89 658.498 387.8 661.391 387.8C663.118 387.8 664.914 387.287 666.781 386.26C667.761 385.7 668.531 385.163 669.091 384.65H669.791L672.241 388.85C671.401 389.55 670.351 390.203 669.091 390.81C666.664 392.07 663.864 392.7 660.691 392.7ZM666.991 372.05C666.991 368.363 666.314 365.633 664.961 363.86C663.654 362.087 661.881 361.2 659.641 361.2C657.401 361.2 655.604 362.087 654.251 363.86C652.944 365.633 652.291 368.363 652.291 372.05H666.991ZM682.383 357H687.283L687.983 361.2H688.333C688.799 360.5 689.593 359.683 690.713 358.75C692.906 357.117 695.379 356.3 698.133 356.3C699.346 356.3 700.419 356.417 701.353 356.65L702.683 357L701.633 362.6H700.933C700.606 362.553 700.116 362.437 699.463 362.25C698.436 362.017 697.409 361.9 696.383 361.9C694.843 361.9 693.186 362.6 691.413 364C690.806 364.513 690.129 365.213 689.383 366.1V392H682.383V357Z" fill="black"/>
<rect x="443.364" y="1008.21" width="259.953" height="88.88" rx="20" fill="#2D3436"/>
<path d="M525.844 1057.51C524.084 1057.51 522.574 1057.24 521.314 1056.7C520.654 1056.44 520.114 1056.16 519.694 1055.86L520.744 1054.06H521.044C521.324 1054.26 521.734 1054.49 522.274 1054.75C523.354 1055.19 524.444 1055.41 525.544 1055.41C526.884 1055.41 527.914 1055.09 528.634 1054.45C529.374 1053.79 529.744 1052.91 529.744 1051.81C529.744 1051.11 529.554 1050.52 529.174 1050.04C528.794 1049.54 528.324 1049.13 527.764 1048.81C527.204 1048.49 526.434 1048.1 525.454 1047.64C524.274 1047.12 523.324 1046.64 522.604 1046.2C521.884 1045.74 521.264 1045.14 520.744 1044.4C520.244 1043.64 519.994 1042.71 519.994 1041.61C519.994 1040.51 520.244 1039.53 520.744 1038.67C521.264 1037.81 521.994 1037.14 522.934 1036.66C523.894 1036.16 525.014 1035.91 526.294 1035.91C527.974 1035.91 529.434 1036.19 530.674 1036.75C531.214 1036.97 531.704 1037.24 532.144 1037.56L531.094 1039.36H530.794C530.534 1039.14 530.174 1038.92 529.714 1038.7C528.714 1038.24 527.674 1038.01 526.594 1038.01C525.574 1038.01 524.714 1038.34 524.014 1039C523.334 1039.64 522.994 1040.41 522.994 1041.31C522.994 1042.01 523.184 1042.61 523.564 1043.11C523.944 1043.59 524.414 1043.99 524.974 1044.31C525.534 1044.63 526.304 1045.02 527.284 1045.48C528.464 1046 529.414 1046.49 530.134 1046.95C530.854 1047.39 531.464 1047.99 531.964 1048.75C532.484 1049.49 532.744 1050.41 532.744 1051.51C532.744 1053.35 532.144 1054.81 530.944 1055.89C529.744 1056.97 528.044 1057.51 525.844 1057.51ZM537.54 1039.81C537.02 1039.81 536.59 1039.64 536.25 1039.3C535.91 1038.96 535.74 1038.53 535.74 1038.01C535.74 1037.49 535.91 1037.06 536.25 1036.72C536.59 1036.38 537.02 1036.21 537.54 1036.21C538.06 1036.21 538.49 1036.38 538.83 1036.72C539.17 1037.06 539.34 1037.49 539.34 1038.01C539.34 1038.53 539.17 1038.96 538.83 1039.3C538.49 1039.64 538.06 1039.81 537.54 1039.81ZM536.04 1057.21V1042.21H539.04V1057.21H536.04ZM548.64 1063.51C547.28 1063.51 546.08 1063.24 545.04 1062.7C544.5 1062.44 544.05 1062.16 543.69 1061.86L544.74 1060.06H545.04C545.24 1060.26 545.56 1060.49 546 1060.75C546.8 1061.19 547.58 1061.41 548.34 1061.41C549.62 1061.41 550.56 1061.1 551.16 1060.48C551.78 1059.86 552.09 1058.87 552.09 1057.51V1056.61C551.79 1056.79 551.46 1056.94 551.1 1057.06C550.36 1057.36 549.59 1057.51 548.79 1057.51C546.99 1057.51 545.54 1056.85 544.44 1055.53C543.34 1054.19 542.79 1052.25 542.79 1049.71C542.79 1048.03 543.03 1046.61 543.51 1045.45C544.01 1044.27 544.67 1043.39 545.49 1042.81C546.31 1042.21 547.21 1041.91 548.19 1041.91C549.41 1041.91 550.51 1042.26 551.49 1042.96C551.97 1043.34 552.32 1043.69 552.54 1044.01H552.69L552.99 1042.21H555.09V1057.51C555.09 1059.33 554.51 1060.78 553.35 1061.86C552.21 1062.96 550.64 1063.51 548.64 1063.51ZM549.24 1055.41C549.92 1055.41 550.6 1055.31 551.28 1055.11C551.64 1055.01 551.91 1054.91 552.09 1054.81V1045.96C551.81 1045.62 551.51 1045.32 551.19 1045.06C550.43 1044.46 549.68 1044.16 548.94 1044.16C548.02 1044.16 547.26 1044.61 546.66 1045.51C546.08 1046.41 545.79 1047.81 545.79 1049.71C545.79 1051.69 546.1 1053.14 546.72 1054.06C547.36 1054.96 548.2 1055.41 549.24 1055.41ZM559.595 1042.21H561.695L561.995 1044.01H562.145C562.365 1043.69 562.715 1043.34 563.195 1042.96C564.175 1042.26 565.275 1041.91 566.495 1041.91C567.995 1041.91 569.215 1042.39 570.155 1043.35C571.115 1044.29 571.595 1045.51 571.595 1047.01V1057.21H568.595V1047.01C568.595 1046.17 568.325 1045.49 567.785 1044.97C567.265 1044.43 566.585 1044.16 565.745 1044.16C565.005 1044.16 564.255 1044.46 563.495 1045.06C563.175 1045.34 562.875 1045.64 562.595 1045.96V1057.21H559.595V1042.21ZM589.744 1057.51C588.244 1057.51 587.014 1057.04 586.054 1056.1C585.114 1055.14 584.644 1053.91 584.644 1052.41V1042.21H587.644V1052.41C587.644 1053.25 587.904 1053.94 588.424 1054.48C588.964 1055 589.654 1055.26 590.494 1055.26C591.234 1055.26 591.984 1054.96 592.744 1054.36C593.064 1054.1 593.364 1053.8 593.644 1053.46V1042.21H596.644V1057.21H594.544L594.244 1055.41H594.094C593.814 1055.81 593.464 1056.16 593.044 1056.46C592.164 1057.16 591.064 1057.51 589.744 1057.51ZM601.138 1042.21H603.238L603.538 1044.01H603.688C603.908 1043.69 604.258 1043.34 604.738 1042.96C605.718 1042.26 606.818 1041.91 608.038 1041.91C609.018 1041.91 609.918 1042.21 610.738 1042.81C611.558 1043.39 612.208 1044.27 612.688 1045.45C613.188 1046.61 613.438 1048.03 613.438 1049.71C613.438 1052.25 612.888 1054.19 611.788 1055.53C610.688 1056.85 609.238 1057.51 607.438 1057.51C606.638 1057.51 605.858 1057.36 605.098 1057.06C604.718 1056.94 604.398 1056.79 604.138 1056.61V1062.31L603.238 1063.21H601.138V1042.21ZM606.988 1055.41C608.028 1055.41 608.858 1054.96 609.478 1054.06C610.118 1053.14 610.438 1051.69 610.438 1049.71C610.438 1047.81 610.138 1046.41 609.538 1045.51C608.958 1044.61 608.208 1044.16 607.288 1044.16C606.548 1044.16 605.798 1044.46 605.038 1045.06C604.718 1045.34 604.418 1045.64 604.138 1045.96V1054.81C604.338 1054.91 604.608 1055.01 604.948 1055.11C605.628 1055.31 606.308 1055.41 606.988 1055.41Z" fill="#F9F9F9"/>
<rect x="308.955" y="582.87" width="527.566" height="84.9017" rx="10" fill="#E2E2E2"/>
<rect x="312.301" y="846.065" width="527.566" height="84.9017" rx="10" fill="#E2E2E2"/>
<rect x="312.301" y="704.158" width="527.566" height="84.9017" rx="10" fill="#E2E2E2"/>
<path d="M333.493 631.153V629.553H341.093V631.153H333.493ZM341.091 631.153V629.553H348.691V631.153H341.091ZM348.688 631.153V629.553H356.288V631.153H348.688ZM356.286 631.153V629.553H363.886V631.153H356.286ZM363.884 631.153V629.553H371.484V631.153H363.884ZM371.481 631.153V629.553H379.081V631.153H371.481ZM379.079 631.153V629.553H386.679V631.153H379.079ZM386.677 631.153V629.553H394.277V631.153H386.677ZM394.274 631.153V629.553H401.874V631.153H394.274ZM401.872 631.153V629.553H409.472V631.153H401.872ZM409.47 631.153V629.553H417.07V631.153H409.47ZM417.067 631.153V629.553H424.667V631.153H417.067ZM424.665 631.153V629.553H432.265V631.153H424.665ZM432.263 631.153V629.553H439.863V631.153H432.263ZM439.86 631.153V629.553H447.46V631.153H439.86ZM447.458 631.153V629.553H455.058V631.153H447.458ZM455.056 631.153V629.553H462.656V631.153H455.056ZM462.653 631.153V629.553H470.253V631.153H462.653ZM470.251 631.153V629.553H477.851V631.153H470.251ZM477.849 631.153V629.553H485.449V631.153H477.849ZM485.446 631.153V629.553H493.046V631.153H485.446ZM493.044 631.153V629.553H500.644V631.153H493.044Z" fill="#A2A2A2"/>
<path d="M333.493 887.072V885.472H341.093V887.072H333.493ZM341.091 887.072V885.472H348.691V887.072H341.091ZM348.688 887.072V885.472H356.288V887.072H348.688ZM356.286 887.072V885.472H363.886V887.072H356.286ZM363.884 887.072V885.472H371.484V887.072H363.884ZM371.481 887.072V885.472H379.081V887.072H371.481ZM379.079 887.072V885.472H386.679V887.072H379.079ZM386.677 887.072V885.472H394.277V887.072H386.677ZM394.274 887.072V885.472H401.874V887.072H394.274ZM401.872 887.072V885.472H409.472V887.072H401.872ZM409.47 887.072V885.472H417.07V887.072H409.47ZM417.067 887.072V885.472H424.667V887.072H417.067ZM424.665 887.072V885.472H432.265V887.072H424.665ZM432.263 887.072V885.472H439.863V887.072H432.263ZM439.86 887.072V885.472H447.46V887.072H439.86ZM447.458 887.072V885.472H455.058V887.072H447.458ZM455.056 887.072V885.472H462.656V887.072H455.056ZM462.653 887.072V885.472H470.253V887.072H462.653ZM470.251 887.072V885.472H477.851V887.072H470.251ZM477.849 887.072V885.472H485.449V887.072H477.849ZM485.446 887.072V885.472H493.046V887.072H485.446ZM493.044 887.072V885.472H500.644V887.072H493.044Z" fill="#A2A2A2"/>
<path d="M333.493 750.016V748.416H341.093V750.016H333.493ZM341.091 750.016V748.416H348.691V750.016H341.091ZM348.688 750.016V748.416H356.288V750.016H348.688ZM356.286 750.016V748.416H363.886V750.016H356.286ZM363.884 750.016V748.416H371.484V750.016H363.884ZM371.481 750.016V748.416H379.081V750.016H371.481ZM379.079 750.016V748.416H386.679V750.016H379.079ZM386.677 750.016V748.416H394.277V750.016H386.677ZM394.274 750.016V748.416H401.874V750.016H394.274ZM401.872 750.016V748.416H409.472V750.016H401.872ZM409.47 750.016V748.416H417.07V750.016H409.47ZM417.067 750.016V748.416H424.667V750.016H417.067ZM424.665 750.016V748.416H432.265V750.016H424.665ZM432.263 750.016V748.416H439.863V750.016H432.263ZM439.86 750.016V748.416H447.46V750.016H439.86ZM447.458 750.016V748.416H455.058V750.016H447.458ZM455.056 750.016V748.416H462.656V750.016H455.056ZM462.653 750.016V748.416H470.253V750.016H462.653ZM470.251 750.016V748.416H477.851V750.016H470.251ZM477.849 750.016V748.416H485.449V750.016H477.849ZM485.446 750.016V748.416H493.046V750.016H485.446ZM493.044 750.016V748.416H500.644V750.016H493.044Z" fill="#A2A2A2"/>
<path d="M1040.63 563.384V559.384H1059.63V563.384H1040.63ZM1059.63 563.384V559.384H1078.63V563.384H1059.63ZM1078.62 563.384V559.384H1097.62V563.384H1078.62ZM1097.61 563.384V559.384H1116.61V563.384H1097.61ZM1116.61 563.384V559.384H1135.61V563.384H1116.61ZM1135.6 563.384V559.384H1154.6V563.384H1135.6ZM1154.6 563.384V559.384H1173.6V563.384H1154.6ZM1173.59 563.384V559.384H1192.59V563.384H1173.59ZM1192.58 563.384V559.384H1211.58V563.384H1192.58ZM1211.58 563.384V559.384H1230.58V563.384H1211.58ZM1230.57 563.384V559.384H1249.57V563.384H1230.57ZM1249.57 563.384V559.384H1268.57V563.384H1249.57ZM1268.56 563.384V559.384H1287.56V563.384H1268.56ZM1287.56 563.384V559.384H1306.56V563.384H1287.56ZM1306.55 563.384V559.384H1325.55V563.384H1306.55ZM1325.54 563.384V559.384H1344.54V563.384H1325.54ZM1344.54 563.384V559.384H1363.54V563.384H1344.54ZM1363.53 563.384V559.384H1382.53V563.384H1363.53ZM1382.53 563.384V559.384H1401.53V563.384H1382.53ZM1401.52 563.384V559.384H1420.52V563.384H1401.52ZM1420.51 563.384V559.384H1439.51V563.384H1420.51ZM1439.51 563.384V559.384H1458.51V563.384H1439.51ZM1458.5 563.384V559.384H1477.5V563.384H1458.5ZM1477.5 563.384V559.384H1496.5V563.384H1477.5ZM1496.49 563.384V559.384H1515.49V563.384H1496.49ZM1515.49 563.384V559.384H1534.49V563.384H1515.49ZM1534.48 563.384V559.384H1553.48V563.384H1534.48ZM1040.63 625.384V621.384H1059.63V625.384H1040.63ZM1059.63 625.384V621.384H1078.63V625.384H1059.63ZM1078.62 625.384V621.384H1097.62V625.384H1078.62ZM1097.61 625.384V621.384H1116.61V625.384H1097.61ZM1116.61 625.384V621.384H1135.61V625.384H1116.61ZM1135.6 625.384V621.384H1154.6V625.384H1135.6ZM1154.6 625.384V621.384H1173.6V625.384H1154.6ZM1173.59 625.384V621.384H1192.59V625.384H1173.59ZM1192.58 625.384V621.384H1211.58V625.384H1192.58ZM1211.58 625.384V621.384H1230.58V625.384H1211.58ZM1230.57 625.384V621.384H1249.57V625.384H1230.57ZM1249.57 625.384V621.384H1268.57V625.384H1249.57ZM1268.56 625.384V621.384H1287.56V625.384H1268.56ZM1287.56 625.384V621.384H1306.56V625.384H1287.56ZM1306.55 625.384V621.384H1325.55V625.384H1306.55ZM1325.54 625.384V621.384H1344.54V625.384H1325.54ZM1344.54 625.384V621.384H1363.54V625.384H1344.54ZM1363.53 625.384V621.384H1382.53V625.384H1363.53ZM1382.53 625.384V621.384H1401.53V625.384H1382.53ZM1401.52 625.384V621.384H1420.52V625.384H1401.52ZM1420.51 625.384V621.384H1439.51V625.384H1420.51ZM1439.51 625.384V621.384H1458.51V625.384H1439.51ZM1458.5 625.384V621.384H1477.5V625.384H1458.5ZM1477.5 625.384V621.384H1496.5V625.384H1477.5ZM1496.49 625.384V621.384H1515.49V625.384H1496.49ZM1515.49 625.384V621.384H1534.49V625.384H1515.49ZM1534.48 625.384V621.384H1553.48V625.384H1534.48ZM1040.63 687.384V683.384H1059.63V687.384H1040.63ZM1059.63 687.384V683.384H1078.63V687.384H1059.63ZM1078.62 687.384V683.384H1097.62V687.384H1078.62ZM1097.61 687.384V683.384H1116.61V687.384H1097.61ZM1116.61 687.384V683.384H1135.61V687.384H1116.61ZM1135.6 687.384V683.384H1154.6V687.384H1135.6ZM1154.6 687.384V683.384H1173.6V687.384H1154.6ZM1173.59 687.384V683.384H1192.59V687.384H1173.59ZM1192.58 687.384V683.384H1211.58V687.384H1192.58ZM1211.58 687.384V683.384H1230.58V687.384H1211.58ZM1230.57 687.384V683.384H1249.57V687.384H1230.57ZM1249.57 687.384V683.384H1268.57V687.384H1249.57ZM1268.56 687.384V683.384H1287.56V687.384H1268.56ZM1287.56 687.384V683.384H1306.56V687.384H1287.56ZM1306.55 687.384V683.384H1325.55V687.384H1306.55ZM1325.54 687.384V683.384H1344.54V687.384H1325.54ZM1344.54 687.384V683.384H1363.54V687.384H1344.54ZM1363.53 687.384V683.384H1382.53V687.384H1363.53ZM1382.53 687.384V683.384H1401.53V687.384H1382.53ZM1401.52 687.384V683.384H1420.52V687.384H1401.52ZM1420.51 687.384V683.384H1439.51V687.384H1420.51ZM1439.51 687.384V683.384H1458.51V687.384H1439.51ZM1458.5 687.384V683.384H1477.5V687.384H1458.5ZM1477.5 687.384V683.384H1496.5V687.384H1477.5ZM1496.49 687.384V683.384H1515.49V687.384H1496.49ZM1515.49 687.384V683.384H1534.49V687.384H1515.49ZM1534.48 687.384V683.384H1553.48V687.384H1534.48ZM1040.63 749.384V745.384H1059.63V749.384H1040.63ZM1059.63 749.384V745.384H1078.63V749.384H1059.63ZM1078.62 749.384V745.384H1097.62V749.384H1078.62ZM1097.61 749.384V745.384H1116.61V749.384H1097.61ZM1116.61 749.384V745.384H1135.61V749.384H1116.61ZM1135.6 749.384V745.384H1154.6V749.384H1135.6ZM1154.6 749.384V745.384H1173.6V749.384H1154.6ZM1173.59 749.384V745.384H1192.59V749.384H1173.59ZM1192.58 749.384V745.384H1211.58V749.384H1192.58ZM1211.58 749.384V745.384H1230.58V749.384H1211.58ZM1230.57 749.384V745.384H1249.57V749.384H1230.57ZM1249.57 749.384V745.384H1268.57V749.384H1249.57ZM1268.56 749.384V745.384H1287.56V749.384H1268.56ZM1287.56 749.384V745.384H1306.56V749.384H1287.56ZM1306.55 749.384V745.384H1325.55V749.384H1306.55ZM1325.54 749.384V745.384H1344.54V749.384H1325.54ZM1344.54 749.384V745.384H1363.54V749.384H1344.54ZM1363.53 749.384V745.384H1382.53V749.384H1363.53ZM1382.53 749.384V745.384H1401.53V749.384H1382.53ZM1401.52 749.384V745.384H1420.52V749.384H1401.52ZM1420.51 749.384V745.384H1439.51V749.384H1420.51ZM1439.51 749.384V745.384H1458.51V749.384H1439.51ZM1458.5 749.384V745.384H1477.5V749.384H1458.5ZM1477.5 749.384V745.384H1496.5V749.384H1477.5ZM1496.49 749.384V745.384H1515.49V749.384H1496.49ZM1515.49 749.384V745.384H1534.49V749.384H1515.49ZM1534.48 749.384V745.384H1553.48V749.384H1534.48ZM1040.63 811.384V807.384H1059.63V811.384H1040.63ZM1059.63 811.384V807.384H1078.63V811.384H1059.63ZM1078.62 811.384V807.384H1097.62V811.384H1078.62ZM1097.61 811.384V807.384H1116.61V811.384H1097.61ZM1116.61 811.384V807.384H1135.61V811.384H1116.61ZM1135.6 811.384V807.384H1154.6V811.384H1135.6ZM1154.6 811.384V807.384H1173.6V811.384H1154.6ZM1173.59 811.384V807.384H1192.59V811.384H1173.59ZM1192.58 811.384V807.384H1211.58V811.384H1192.58ZM1211.58 811.384V807.384H1230.58V811.384H1211.58ZM1230.57 811.384V807.384H1249.57V811.384H1230.57ZM1249.57 811.384V807.384H1268.57V811.384H1249.57ZM1268.56 811.384V807.384H1287.56V811.384H1268.56ZM1287.56 811.384V807.384H1306.56V811.384H1287.56ZM1306.55 811.384V807.384H1325.55V811.384H1306.55ZM1325.54 811.384V807.384H1344.54V811.384H1325.54ZM1344.54 811.384V807.384H1363.54V811.384H1344.54ZM1363.53 811.384V807.384H1382.53V811.384H1363.53ZM1382.53 811.384V807.384H1401.53V811.384H1382.53ZM1401.52 811.384V807.384H1420.52V811.384H1401.52ZM1420.51 811.384V807.384H1439.51V811.384H1420.51ZM1439.51 811.384V807.384H1458.51V811.384H1439.51ZM1458.5 811.384V807.384H1477.5V811.384H1458.5ZM1477.5 811.384V807.384H1496.5V811.384H1477.5ZM1496.49 811.384V807.384H1515.49V811.384H1496.49ZM1515.49 811.384V807.384H1534.49V811.384H1515.49ZM1534.48 811.384V807.384H1553.48V811.384H1534.48ZM1040.63 873.384V869.384H1059.63V873.384H1040.63ZM1059.63 873.384V869.384H1078.63V873.384H1059.63ZM1078.62 873.384V869.384H1097.62V873.384H1078.62ZM1097.61 873.384V869.384H1116.61V873.384H1097.61ZM1116.61 873.384V869.384H1135.61V873.384H1116.61ZM1135.6 873.384V869.384H1154.6V873.384H1135.6ZM1154.6 873.384V869.384H1173.6V873.384H1154.6ZM1173.59 873.384V869.384H1192.59V873.384H1173.59ZM1192.58 873.384V869.384H1211.58V873.384H1192.58Z" fill="white"/>
<rect x="982.75" y="1220.18" width="38.8342" height="17.7999" transform="rotate(17.5701 982.75 1220.18)" fill="#EFBA9B"/>
<rect x="1081" y="1232.5" width="38" height="14" fill="#EFBA9B"/>
<path d="M1019.81 1236.39L970.11 1232.07L1008.8 962.69L1061.52 990.737L1019.81 1236.39Z" fill="#281A3C"/>
<path d="M1057 1019.1L1119 1012.5V1235.5H1073.74L1057 1019.1Z" fill="#281A3C"/>
<path d="M1009 960.5H1119V1036.5L1062.14 1020.35L1009 1036.5V960.5Z" fill="#281A3C"/>
<path d="M971.639 1236.21L1017.15 1240.86L1010.18 1265.78L948 1257.11L971.639 1236.21Z" fill="#353535"/>
<path d="M1075.59 1244.72L1120.27 1244.72L1120.27 1267.63L1049.51 1267.63L1075.59 1244.72Z" fill="#353535"/>
<path d="M1014.5 811.938C1014.93 797.925 1023.69 785.524 1036.76 780.447V780.447C1053.22 774.054 1071.49 774.132 1087.89 780.664L1094.04 783.115C1110.85 789.811 1121.74 806.245 1121.34 824.336L1118.33 960.5H1010L1014.5 811.938Z" fill="#4D6EC5"/>
<path d="M1119.2 880.997L1121.58 905.896L1022.38 914.12L1029 895.5L1119.2 880.997Z" fill="#EFBA9B"/>
<path d="M1135.97 889.255C1135.16 900.623 1124.04 908.486 1113 905.5V905.5L1117 863L1138 861L1135.97 889.255Z" fill="#EFBA9B"/>
<path d="M1094.4 805.003L1112.38 797.752L1123.59 818.925L1145.48 873.096L1110.21 877.951L1094.4 805.003Z" fill="#4D6EC5"/>
<path d="M1112.5 740.032C1112.5 774.014 1087.54 801.563 1056.75 801.563C1025.96 801.563 1001 774.014 1001 740.032C1001 706.049 1025.96 678.5 1056.75 678.5C1087.54 678.5 1112.5 706.049 1112.5 740.032Z" fill="#EFBA9B"/>
<path d="M978.823 685.596C980.344 667.274 1000.05 656.43 1016.35 664.952V664.952C1020.48 667.117 1025.13 668.113 1029.8 667.834L1056.03 666.26C1062.24 665.887 1068.47 666.573 1074.44 668.288V668.288C1093.8 673.842 1108.56 689.557 1112.88 709.226L1117.61 730.721C1117.87 731.896 1117.9 733.11 1117.7 734.296V734.296C1115.89 744.939 1100.49 744.591 1099.17 733.877L1096.82 714.791C1095.9 707.319 1088.48 702.465 1081.27 704.608L1017.36 723.59C999.694 728.838 981.437 717.266 978.562 699.06V699.06C978.189 696.7 978.1 694.296 978.298 691.914L978.823 685.596Z" fill="#302424"/>
<path d="M1089.12 775.246L1050.8 792.646L1036.78 780.149" stroke="black" stroke-width="5"/>
<path d="M1057.38 738.779L1046.68 761.661L1061.17 770.331" stroke="black" stroke-width="5"/>
<path d="M1089.13 716.61V741.766" stroke="black" stroke-width="5"/>
<path d="M1023.18 718.65V743.806" stroke="black" stroke-width="5"/>
<path d="M1040.35 903.428C1040.13 910.697 1030.78 916.306 1019.47 915.957C1008.17 915.608 999.182 909.433 999.406 902.164C999.631 894.896 1008.17 893.762 1019.47 894.111C1030.78 894.46 1040.58 896.159 1040.35 903.428Z" fill="#EFBA9B"/>
<ellipse cx="967.177" cy="833.178" rx="14.51" ry="17.0493" transform="rotate(138.261 967.177 833.178)" fill="#EFBA9B"/>
<rect width="22.1686" height="78.1206" transform="matrix(-0.893389 0.449284 -0.591136 -0.806572 1026.99 897.51)" fill="#EFBA9B"/>
<rect width="22.1686" height="37.9218" transform="matrix(-0.96639 -0.257078 0.0933588 -0.995633 1020.42 900.978)" fill="#EFBA9B"/>
<path d="M963.804 808.296C968.254 814.62 980.484 824.548 978 826.296C975.516 828.044 959.257 820.95 954.808 814.626C950.359 808.302 948.766 801.759 951.25 800.011C953.734 798.263 959.355 801.973 963.804 808.296Z" fill="#EFBA9B"/>
<path d="M1023.47 790L1019.66 791.068C1012.94 792.952 1008.21 797.939 1007.16 804.246L998.309 857.471L1023.47 876.82L1043.5 864.5L1023.47 790Z" fill="#4D6EC5"/>
<g filter="url(#filter0_d_636_263)">
<path d="M1520 171L1662.03 417H1377.97L1520 171Z" fill="#E37070"/>
</g>
<g filter="url(#filter1_d_636_263)">
<circle cx="1668.5" cy="380.5" r="128.5" fill="#84D9DE"/>
</g>
<ellipse cx="591.323" cy="351.858" rx="20.4338" ry="24.0097" transform="rotate(29.9754 591.323 351.858)" fill="#EFBA9B"/>
<path d="M618.12 212.023L650.003 196.752L657.79 198.786L611.543 349.513L583.2 336.426L618.12 212.023Z" fill="#EFBA9B"/>
<path d="M657.843 211.454C642.342 213.28 630.521 197.874 636.297 183.374V183.374C639.531 175.254 640.099 166.315 637.918 157.851L637.541 156.386C634.08 142.951 643.256 129.546 657.033 127.913L787 112.5L806 194L657.843 211.454Z" fill="#E99C29"/>
<path d="M647.083 137.508L642.206 138.875C636.075 140.594 631.564 144.909 630.043 150.509L612.116 216.508L647.082 224.328L667.115 212.008L647.083 137.508Z" fill="#E99C29"/>
<path d="M695.102 90.4494C705.219 122.892 689.59 156.622 660.195 165.789C630.8 174.955 598.77 156.087 588.653 123.644C578.536 91.2022 594.164 57.4718 623.559 48.3052C652.955 39.1387 684.985 58.0073 695.102 90.4494Z" fill="#EFBA9B"/>
<path d="M551.275 78.2797C547.274 60.3346 562.862 44.1148 580.951 47.4008V47.4008C585.547 48.2355 590.283 47.8022 594.65 46.1472L619.23 36.8337C625.045 34.6305 631.191 33.4322 637.407 33.2899V33.2899C657.54 32.829 676.306 43.4391 686.291 60.928L697.203 80.042C697.799 81.0865 698.189 82.2361 698.35 83.428V83.428C699.799 94.1254 684.986 98.3804 680.537 88.5446L672.612 71.0236C669.509 64.1641 660.987 61.7366 654.735 65.9315L599.379 103.077C584.074 113.347 563.199 107.735 555.035 91.2107V91.2107C553.976 89.0679 553.176 86.8001 552.655 84.4674L551.275 78.2797Z" fill="#302424"/>
<path d="M683.264 131.028L651.855 159.049L634.754 151.291" stroke="black" stroke-width="5"/>
<path d="M642.1 105.665L638.701 130.695L655.119 134.656" stroke="black" stroke-width="5"/>
<path d="M665.818 75.047L673.307 99.0629" stroke="black" stroke-width="5"/>
<path d="M603.463 96.6285L610.952 120.644" stroke="black" stroke-width="5"/>
<rect x="993.356" y="251.316" width="33.9799" height="12.6055" transform="rotate(-108.591 993.356 251.316)" fill="#EFBA9B"/>
<rect width="55.928" height="81.8938" transform="matrix(0.597489 -0.801877 0.891867 0.452297 836.059 275.334)" fill="#A5742B"/>
<path d="M982.948 218.743L1007.94 254.536L909 312.5L902 281L982.948 218.743Z" fill="#A5742B"/>
<path d="M836.18 275.533L804.5 188.5L868.516 165.533L871.257 217.52L899.442 257.478L836.18 275.533Z" fill="#A5742B"/>
<path d="M1007.94 255.245L990.315 216.488L1013.51 208.685L1042.95 259.5L1007.94 255.245Z" fill="#353535"/>
<path d="M787 114L826.936 119.809C851.233 123.343 869.071 144.454 868.5 169V169L805 189.5L787 114Z" fill="#A5742B"/>
<defs>
<filter id="filter0_d_636_263" x="1373.97" y="171" width="292.057" height="254" filterUnits="userSpaceOnUse" color-interpolation-filters="sRGB">
<feFlood flood-opacity="0" result="BackgroundImageFix"/>
<feColorMatrix in="SourceAlpha" type="matrix" values="0 0 0 0 0 0 0 0 0 0 0 0 0 0 0 0 0 0 127 0" result="hardAlpha"/>
<feOffset dy="4"/>
<feGaussianBlur stdDeviation="2"/>
<feComposite in2="hardAlpha" operator="out"/>
<feColorMatrix type="matrix" values="0 0 0 0 0 0 0 0 0 0 0 0 0 0 0 0 0 0 0.25 0"/>
<feBlend mode="normal" in2="BackgroundImageFix" result="effect1_dropShadow_636_263"/>
<feBlend mode="normal" in="SourceGraphic" in2="effect1_dropShadow_636_263" result="shape"/>
</filter>
<filter id="filter1_d_636_263" x="1536" y="252" width="265" height="265" filterUnits="userSpaceOnUse" color-interpolation-filters="sRGB">
<feFlood flood-opacity="0" result="BackgroundImageFix"/>
<feColorMatrix in="SourceAlpha" type="matrix" values="0 0 0 0 0 0 0 0 0 0 0 0 0 0 0 0 0 0 127 0" result="hardAlpha"/>
<feOffset dy="4"/>
<feGaussianBlur stdDeviation="2"/>
<feComposite in2="hardAlpha" operator="out"/>
<feColorMatrix type="matrix" values="0 0 0 0 0 0 0 0 0 0 0 0 0 0 0 0 0 0 0.25 0"/>
<feBlend mode="normal" in2="BackgroundImageFix" result="effect1_dropShadow_636_263"/>
<feBlend mode="normal" in="SourceGraphic" in2="effect1_dropShadow_636_263" result="shape"/>
</filter>
</defs>
</svg>
