<svg width="1850" height="1259" viewBox="0 0 1850 1259" fill="none" xmlns="http://www.w3.org/2000/svg">
<rect x="26" width="1824" height="1177" fill="white"/>
<rect x="26" width="1824" height="125" fill="#35353F"/>
<rect x="132" y="288" width="1087" height="243" fill="#C4C4C4"/>
<rect x="132" y="890" width="1087" height="243" fill="#C4C4C4"/>
<rect x="132" y="589" width="1087" height="243" fill="#69E48E"/>
<rect x="1367.29" y="1044.2" width="433.745" height="87.3459" rx="43.6729" fill="#69E48E" stroke="#35353F" stroke-width="10"/>
<path d="M1475.35 1105.4C1472.02 1105.4 1469.44 1104.25 1467.63 1101.96C1465.84 1099.67 1464.95 1096.01 1464.95 1091C1464.95 1086.01 1465.83 1082.37 1467.59 1080.08C1469.35 1077.76 1471.8 1076.6 1474.95 1076.6C1476.84 1076.6 1478.56 1076.97 1480.11 1077.72C1480.86 1078.07 1481.47 1078.43 1481.95 1078.8L1480.55 1081.2H1480.15C1479.75 1080.91 1479.3 1080.61 1478.79 1080.32C1477.62 1079.71 1476.47 1079.4 1475.35 1079.4C1471.08 1079.4 1468.95 1083.27 1468.95 1091C1468.95 1095.16 1469.54 1098.13 1470.71 1099.92C1471.91 1101.71 1473.59 1102.6 1475.75 1102.6C1476.92 1102.6 1478.07 1102.31 1479.19 1101.72C1479.75 1101.4 1480.2 1101.09 1480.55 1100.8H1480.95L1482.35 1103.2C1481.9 1103.57 1481.28 1103.95 1480.51 1104.32C1479.02 1105.04 1477.3 1105.4 1475.35 1105.4ZM1486.33 1085H1489.13L1489.53 1087.4H1489.73C1490 1087 1490.45 1086.53 1491.09 1086C1492.35 1085.07 1493.76 1084.6 1495.33 1084.6C1496.03 1084.6 1496.64 1084.67 1497.17 1084.8L1497.93 1085L1497.33 1088.2H1496.93C1496.75 1088.17 1496.47 1088.11 1496.09 1088C1495.51 1087.87 1494.92 1087.8 1494.33 1087.8C1493.45 1087.8 1492.51 1088.2 1491.49 1089C1491.15 1089.29 1490.76 1089.69 1490.33 1090.2V1105H1486.33V1085ZM1508.74 1105.4C1505.97 1105.4 1503.81 1104.52 1502.26 1102.76C1500.72 1101 1499.94 1098.41 1499.94 1095C1499.94 1091.61 1500.69 1089.04 1502.18 1087.28C1503.68 1085.49 1505.66 1084.6 1508.14 1084.6C1510.62 1084.6 1512.61 1085.49 1514.1 1087.28C1515.6 1089.04 1516.34 1091.61 1516.34 1095V1095.6L1515.54 1096.4H1503.94C1503.94 1098.45 1504.4 1100 1505.3 1101.04C1506.21 1102.08 1507.49 1102.6 1509.14 1102.6C1510.13 1102.6 1511.16 1102.31 1512.22 1101.72C1512.78 1101.4 1513.22 1101.09 1513.54 1100.8H1513.94L1515.34 1103.2C1514.86 1103.6 1514.26 1103.97 1513.54 1104.32C1512.16 1105.04 1510.56 1105.4 1508.74 1105.4ZM1512.34 1093.6C1512.34 1091.49 1511.96 1089.93 1511.18 1088.92C1510.44 1087.91 1509.42 1087.4 1508.14 1087.4C1506.86 1087.4 1505.84 1087.91 1505.06 1088.92C1504.32 1089.93 1503.94 1091.49 1503.94 1093.6H1512.34ZM1526.54 1105.4C1524.46 1105.4 1522.83 1104.85 1521.66 1103.76C1520.51 1102.64 1519.94 1101.12 1519.94 1099.2C1519.94 1097.31 1520.62 1095.84 1521.98 1094.8C1523.37 1093.73 1525.55 1093.2 1528.54 1093.2H1531.74V1092.2C1531.74 1090.63 1531.37 1089.44 1530.62 1088.64C1529.9 1087.81 1528.87 1087.4 1527.54 1087.4C1526.58 1087.4 1525.54 1087.71 1524.42 1088.32C1523.86 1088.64 1523.43 1088.93 1523.14 1089.2H1522.74L1521.34 1086.8C1521.87 1086.4 1522.47 1086.04 1523.14 1085.72C1524.58 1084.97 1526.18 1084.6 1527.94 1084.6C1529.46 1084.6 1530.81 1084.93 1531.98 1085.6C1533.15 1086.24 1534.07 1087.15 1534.74 1088.32C1535.41 1089.47 1535.74 1090.76 1535.74 1092.2V1105H1532.94L1532.54 1102.6H1532.34C1531.97 1103.13 1531.5 1103.6 1530.94 1104C1529.77 1104.93 1528.3 1105.4 1526.54 1105.4ZM1527.54 1102.4C1528.53 1102.4 1529.53 1102 1530.54 1101.2C1530.99 1100.83 1531.39 1100.43 1531.74 1100V1096H1528.54C1527.02 1096 1525.87 1096.29 1525.1 1096.88C1524.33 1097.47 1523.94 1098.24 1523.94 1099.2C1523.94 1100.24 1524.23 1101.04 1524.82 1101.6C1525.43 1102.13 1526.34 1102.4 1527.54 1102.4ZM1548.93 1105.4C1546.93 1105.4 1545.33 1104.81 1544.13 1103.64C1542.93 1102.47 1542.33 1100.92 1542.33 1099V1087.8H1539.33V1085.4L1544.53 1080.2H1546.33V1085H1551.33V1087.8H1546.33V1099C1546.33 1100.17 1546.6 1101.07 1547.13 1101.68C1547.66 1102.29 1548.4 1102.6 1549.33 1102.6C1550.13 1102.6 1550.92 1102.33 1551.69 1101.8C1552.04 1101.56 1552.38 1101.29 1552.73 1101H1553.13L1554.53 1103.4C1553.94 1103.85 1553.41 1104.19 1552.93 1104.4C1551.65 1105.07 1550.32 1105.4 1548.93 1105.4ZM1565.35 1105.4C1562.57 1105.4 1560.41 1104.52 1558.87 1102.76C1557.32 1101 1556.55 1098.41 1556.55 1095C1556.55 1091.61 1557.29 1089.04 1558.79 1087.28C1560.28 1085.49 1562.27 1084.6 1564.75 1084.6C1567.23 1084.6 1569.21 1085.49 1570.71 1087.28C1572.2 1089.04 1572.95 1091.61 1572.95 1095V1095.6L1572.15 1096.4H1560.55C1560.55 1098.45 1561 1100 1561.91 1101.04C1562.81 1102.08 1564.09 1102.6 1565.75 1102.6C1566.73 1102.6 1567.76 1102.31 1568.83 1101.72C1569.39 1101.4 1569.83 1101.09 1570.15 1100.8H1570.55L1571.95 1103.2C1571.47 1103.6 1570.87 1103.97 1570.15 1104.32C1568.76 1105.04 1567.16 1105.4 1565.35 1105.4ZM1568.95 1093.6C1568.95 1091.49 1568.56 1089.93 1567.79 1088.92C1567.04 1087.91 1566.03 1087.4 1564.75 1087.4C1563.47 1087.4 1562.44 1087.91 1561.67 1088.92C1560.92 1089.93 1560.55 1091.49 1560.55 1093.6H1568.95ZM1589.34 1085H1592.14L1592.54 1087.4H1592.74C1593.01 1087 1593.46 1086.53 1594.1 1086C1595.36 1085.07 1596.77 1084.6 1598.34 1084.6C1599.04 1084.6 1599.65 1084.67 1600.18 1084.8L1600.94 1085L1600.34 1088.2H1599.94C1599.76 1088.17 1599.48 1088.11 1599.1 1088C1598.52 1087.87 1597.93 1087.8 1597.34 1087.8C1596.46 1087.8 1595.52 1088.2 1594.5 1089C1594.16 1089.29 1593.77 1089.69 1593.34 1090.2V1105H1589.34V1085ZM1611.55 1105.4C1608.86 1105.4 1606.75 1104.52 1605.23 1102.76C1603.71 1101 1602.95 1098.41 1602.95 1095C1602.95 1091.59 1603.71 1089 1605.23 1087.24C1606.75 1085.48 1608.86 1084.6 1611.55 1084.6C1614.22 1084.6 1616.31 1085.48 1617.83 1087.24C1619.38 1089 1620.15 1091.59 1620.15 1095C1620.15 1098.41 1619.38 1101 1617.83 1102.76C1616.31 1104.52 1614.22 1105.4 1611.55 1105.4ZM1611.55 1102.6C1612.94 1102.6 1614.05 1102 1614.87 1100.8C1615.73 1099.57 1616.15 1097.64 1616.15 1095C1616.15 1092.36 1615.73 1090.44 1614.87 1089.24C1614.05 1088.01 1612.94 1087.4 1611.55 1087.4C1610.17 1087.4 1609.05 1088.01 1608.19 1089.24C1607.37 1090.44 1606.95 1092.36 1606.95 1095C1606.95 1097.64 1607.37 1099.57 1608.19 1100.8C1609.05 1102 1610.17 1102.6 1611.55 1102.6ZM1632.76 1105.4C1630.07 1105.4 1627.96 1104.52 1626.44 1102.76C1624.92 1101 1624.16 1098.41 1624.16 1095C1624.16 1091.59 1624.92 1089 1626.44 1087.24C1627.96 1085.48 1630.07 1084.6 1632.76 1084.6C1635.43 1084.6 1637.52 1085.48 1639.04 1087.24C1640.59 1089 1641.36 1091.59 1641.36 1095C1641.36 1098.41 1640.59 1101 1639.04 1102.76C1637.52 1104.52 1635.43 1105.4 1632.76 1105.4ZM1632.76 1102.6C1634.15 1102.6 1635.26 1102 1636.08 1100.8C1636.94 1099.57 1637.36 1097.64 1637.36 1095C1637.36 1092.36 1636.94 1090.44 1636.08 1089.24C1635.26 1088.01 1634.15 1087.4 1632.76 1087.4C1631.38 1087.4 1630.26 1088.01 1629.4 1089.24C1628.58 1090.44 1628.16 1092.36 1628.16 1095C1628.16 1097.64 1628.58 1099.57 1629.4 1100.8C1630.26 1102 1631.38 1102.6 1632.76 1102.6ZM1646.37 1085H1649.17L1649.57 1087.4H1649.77C1650.15 1086.97 1650.63 1086.51 1651.21 1086C1652.47 1085.07 1653.79 1084.6 1655.17 1084.6C1656.72 1084.6 1658.07 1085.07 1659.21 1086C1659.75 1086.48 1660.13 1086.95 1660.37 1087.4C1660.75 1087 1661.29 1086.53 1662.01 1086C1663.51 1085.07 1664.96 1084.6 1666.37 1084.6C1667.57 1084.6 1668.65 1084.89 1669.61 1085.48C1670.6 1086.04 1671.37 1086.84 1671.93 1087.88C1672.49 1088.92 1672.77 1090.09 1672.77 1091.4V1105H1668.77V1091.4C1668.77 1090.31 1668.44 1089.4 1667.77 1088.68C1667.11 1087.96 1666.31 1087.6 1665.37 1087.6C1664.55 1087.6 1663.67 1087.93 1662.73 1088.6C1662.44 1088.79 1662.05 1089.12 1661.57 1089.6V1105H1657.57V1091.4C1657.57 1090.31 1657.24 1089.4 1656.57 1088.68C1655.91 1087.96 1655.11 1087.6 1654.17 1087.6C1653.32 1087.6 1652.44 1088 1651.53 1088.8C1651.19 1089.09 1650.8 1089.49 1650.37 1090V1105H1646.37V1085ZM1694.96 1100V1093.4H1688.36V1090.2H1694.96V1083.6H1698.16V1090.2H1704.76V1093.4H1698.16V1100H1694.96Z" fill="white"/>
<line x1="225" y1="640.5" x2="856" y2="640.5" stroke="black"/>
<line x1="225" y1="710.5" x2="856" y2="710.5" stroke="black"/>
<line x1="225" y1="962.5" x2="856" y2="962.5" stroke="black"/>
<line x1="225" y1="1032.5" x2="856" y2="1032.5" stroke="black"/>
<rect x="1793" y="288" width="700" height="418" transform="rotate(90 1793 288)" fill="#C4C4C4"/>
<line x1="225" y1="339.5" x2="856" y2="339.5" stroke="black"/>
<line x1="225" y1="409.5" x2="856" y2="409.5" stroke="black"/>
<rect x="133" y="163" width="1661" height="73" rx="30" fill="#C4C4C4"/>
<rect x="1279.48" y="1135.19" width="38" height="14" transform="rotate(24.1307 1279.48 1135.19)" fill="#EFBA9B"/>
<path d="M1269.55 1144.13L1310.32 1162.39L1300.96 1183.3L1236.38 1154.37L1269.55 1144.13Z" fill="#353535"/>
<rect x="1298.31" y="1200.4" width="38.8342" height="17.7999" transform="rotate(20.6762 1298.31 1200.4)" fill="#EFBA9B"/>
<path d="M1288.84 1201L1338.84 1217.5L1362.85 1129.99L1468.34 1045.4L1418.56 1013.05L1323.45 1093.52L1288.84 1201Z" fill="#392525"/>
<path d="M1378.73 960.355L1424.62 1002.57L1340.88 1076.18L1313.7 1155.5L1270.38 1133L1302.99 1038.08L1378.73 960.355Z" fill="#392525"/>
<path d="M1370 969.5H1480L1469 1045.5L1401 1053.5L1370 1045.5V969.5Z" fill="#392525"/>
<path d="M1288.76 1210.1L1331.36 1224.42L1322.29 1242.84L1263.34 1221.24L1288.76 1210.1Z" fill="#353535"/>
<path d="M1375.5 820.938C1375.93 806.925 1384.69 794.524 1397.76 789.447V789.447C1414.22 783.054 1432.49 783.132 1448.89 789.664L1455.04 792.115C1471.85 798.811 1482.74 815.245 1482.34 833.336L1479.33 969.5H1371L1375.5 820.938Z" fill="#BA4459"/>
<path d="M1477.61 890L1489.76 911.864L1402.15 959.117L1400.76 939.404L1477.61 890Z" fill="#EFBA9B"/>
<path d="M1496.97 898.255C1496.16 909.623 1485.04 917.486 1474 914.5V914.5L1478 872L1499 870L1496.97 898.255Z" fill="#EFBA9B"/>
<path d="M1455.4 814.003L1473.38 806.752L1484.59 827.925L1506.48 882.096L1471.21 886.951L1455.4 814.003Z" fill="#BA4459"/>
<path d="M1473.51 749.032C1473.51 783.014 1448.54 810.563 1417.75 810.563C1386.96 810.563 1362 783.014 1362 749.032C1362 715.049 1386.96 687.5 1417.75 687.5C1448.54 687.5 1473.51 715.049 1473.51 749.032Z" fill="#EFBA9B"/>
<path d="M1339.82 694.596C1341.34 676.274 1361.05 665.43 1377.35 673.952V673.952C1381.48 676.117 1386.13 677.113 1390.8 676.834L1417.03 675.26C1423.24 674.887 1429.47 675.573 1435.44 677.288V677.288C1454.8 682.842 1469.56 698.557 1473.88 718.226L1478.61 739.721C1478.87 740.896 1478.9 742.11 1478.7 743.296V743.296C1476.89 753.939 1461.49 753.591 1460.17 742.877L1457.82 723.791C1456.9 716.319 1449.48 711.465 1442.27 713.608L1378.36 732.59C1360.69 737.838 1342.44 726.266 1339.56 708.06V708.06C1339.19 705.7 1339.1 703.296 1339.3 700.914L1339.82 694.596Z" fill="#302424"/>
<path d="M1450.12 784.246L1411.8 801.646L1397.78 789.149" stroke="black" stroke-width="5"/>
<path d="M1418.38 747.779L1407.68 770.661L1422.17 779.331" stroke="black" stroke-width="5"/>
<path d="M1450.13 725.61V750.766" stroke="black" stroke-width="5"/>
<path d="M1384.18 727.65V752.806" stroke="black" stroke-width="5"/>
<path d="M1414.71 937.472C1418.39 943.741 1413.48 953.471 1403.72 959.205C1393.97 964.939 1383.08 964.505 1379.39 958.236C1375.71 951.968 1382.33 946.457 1392.08 940.723C1401.83 934.989 1411.02 931.204 1414.71 937.472Z" fill="#EFBA9B"/>
<path d="M1314.5 859.5L1298.5 874.5L1230.82 829.255L1246.35 813.43L1314.5 859.5Z" fill="#EFBA9B"/>
<rect width="22.1686" height="81.0032" rx="3" transform="matrix(-0.283027 -0.959112 0.89894 -0.438071 1298.27 875.747)" fill="#EFBA9B"/>
<path d="M1406.5 825L1394.58 806.619C1387.99 796.453 1375.8 793.667 1367.74 800.483L1327.5 834.5L1334.31 869.115L1355 858.5L1380.5 845.5L1406.5 825Z" fill="#BA4459"/>
<rect x="690" y="480" width="547" height="346" fill="white"/>
<rect x="690" y="480" width="547" height="67" fill="#35353F"/>
<rect x="863.5" y="755.5" width="201" height="49" rx="24.5" fill="#69E48E" stroke="#35353F" stroke-width="5"/>
<path d="M857.995 583.4C854.661 583.4 852.088 582.253 850.275 579.96C848.488 577.667 847.595 574.013 847.595 569C847.595 564.013 848.475 560.373 850.235 558.08C851.995 555.76 854.448 554.6 857.595 554.6C859.488 554.6 861.208 554.973 862.755 555.72C863.501 556.067 864.115 556.427 864.595 556.8L863.195 559.2H862.795C862.395 558.907 861.941 558.613 861.435 558.32C860.261 557.707 859.115 557.4 857.995 557.4C853.728 557.4 851.595 561.267 851.595 569C851.595 573.16 852.181 576.133 853.355 577.92C854.555 579.707 856.235 580.6 858.395 580.6C859.568 580.6 860.715 580.307 861.835 579.72C862.395 579.4 862.848 579.093 863.195 578.8H863.595L864.995 581.2C864.541 581.573 863.928 581.947 863.155 582.32C861.661 583.04 859.941 583.4 857.995 583.4ZM868.98 563H871.78L872.18 565.4H872.38C872.647 565 873.1 564.533 873.74 564C874.994 563.067 876.407 562.6 877.98 562.6C878.674 562.6 879.287 562.667 879.82 562.8L880.58 563L879.98 566.2H879.58C879.394 566.173 879.114 566.107 878.74 566C878.154 565.867 877.567 565.8 876.98 565.8C876.1 565.8 875.154 566.2 874.14 567C873.794 567.293 873.407 567.693 872.98 568.2V583H868.98V563ZM891.39 583.4C888.617 583.4 886.457 582.52 884.91 580.76C883.363 579 882.59 576.413 882.59 573C882.59 569.613 883.337 567.04 884.83 565.28C886.323 563.493 888.31 562.6 890.79 562.6C893.27 562.6 895.257 563.493 896.75 565.28C898.243 567.04 898.99 569.613 898.99 573V573.6L898.19 574.4H886.59C886.59 576.453 887.043 578 887.95 579.04C888.857 580.08 890.137 580.6 891.79 580.6C892.777 580.6 893.803 580.307 894.87 579.72C895.43 579.4 895.87 579.093 896.19 578.8H896.59L897.99 581.2C897.51 581.6 896.91 581.973 896.19 582.32C894.803 583.04 893.203 583.4 891.39 583.4ZM894.99 571.6C894.99 569.493 894.603 567.933 893.83 566.92C893.083 565.907 892.07 565.4 890.79 565.4C889.51 565.4 888.483 565.907 887.71 566.92C886.963 567.933 886.59 569.493 886.59 571.6H894.99ZM909.185 583.4C907.105 583.4 905.478 582.853 904.305 581.76C903.158 580.64 902.585 579.12 902.585 577.2C902.585 575.307 903.265 573.84 904.625 572.8C906.012 571.733 908.198 571.2 911.185 571.2H914.385V570.2C914.385 568.627 914.012 567.44 913.265 566.64C912.545 565.813 911.518 565.4 910.185 565.4C909.225 565.4 908.185 565.707 907.065 566.32C906.505 566.64 906.078 566.933 905.785 567.2H905.385L903.985 564.8C904.518 564.4 905.118 564.04 905.785 563.72C907.225 562.973 908.825 562.6 910.585 562.6C912.105 562.6 913.452 562.933 914.625 563.6C915.798 564.24 916.718 565.147 917.385 566.32C918.052 567.467 918.385 568.76 918.385 570.2V583H915.585L915.185 580.6H914.985C914.612 581.133 914.145 581.6 913.585 582C912.412 582.933 910.945 583.4 909.185 583.4ZM910.185 580.4C911.172 580.4 912.172 580 913.185 579.2C913.638 578.827 914.038 578.427 914.385 578V574H911.185C909.665 574 908.518 574.293 907.745 574.88C906.972 575.467 906.585 576.24 906.585 577.2C906.585 578.24 906.878 579.04 907.465 579.6C908.078 580.133 908.985 580.4 910.185 580.4ZM931.576 583.4C929.576 583.4 927.976 582.813 926.776 581.64C925.576 580.467 924.976 578.92 924.976 577V565.8H921.976V563.4L927.176 558.2H928.976V563H933.976V565.8H928.976V577C928.976 578.173 929.242 579.067 929.776 579.68C930.309 580.293 931.042 580.6 931.976 580.6C932.776 580.6 933.562 580.333 934.336 579.8C934.682 579.56 935.029 579.293 935.376 579H935.776L937.176 581.4C936.589 581.853 936.056 582.187 935.576 582.4C934.296 583.067 932.962 583.4 931.576 583.4ZM947.991 583.4C945.218 583.4 943.058 582.52 941.511 580.76C939.965 579 939.191 576.413 939.191 573C939.191 569.613 939.938 567.04 941.431 565.28C942.925 563.493 944.911 562.6 947.391 562.6C949.871 562.6 951.858 563.493 953.351 565.28C954.845 567.04 955.591 569.613 955.591 573V573.6L954.791 574.4H943.191C943.191 576.453 943.645 578 944.551 579.04C945.458 580.08 946.738 580.6 948.391 580.6C949.378 580.6 950.405 580.307 951.471 579.72C952.031 579.4 952.471 579.093 952.791 578.8H953.191L954.591 581.2C954.111 581.6 953.511 581.973 952.791 582.32C951.405 583.04 949.805 583.4 947.991 583.4ZM951.591 571.6C951.591 569.493 951.205 567.933 950.431 566.92C949.685 565.907 948.671 565.4 947.391 565.4C946.111 565.4 945.085 565.907 944.311 566.92C943.565 567.933 943.191 569.493 943.191 571.6H951.591ZM972.588 555H979.388C982.748 555 985.255 555.747 986.908 557.24C988.562 558.733 989.388 560.92 989.388 563.8C989.388 568.067 987.562 570.8 983.908 572L990.588 583H985.988L979.788 572.6H976.588V583H972.588V555ZM979.388 569.8C983.388 569.8 985.388 567.8 985.388 563.8C985.388 559.8 983.388 557.8 979.388 557.8H976.588V569.8H979.388ZM1002.6 583.4C999.903 583.4 997.796 582.52 996.276 580.76C994.756 579 993.996 576.413 993.996 573C993.996 569.587 994.756 567 996.276 565.24C997.796 563.48 999.903 562.6 1002.6 562.6C1005.26 562.6 1007.36 563.48 1008.88 565.24C1010.42 567 1011.2 569.587 1011.2 573C1011.2 576.413 1010.42 579 1008.88 580.76C1007.36 582.52 1005.26 583.4 1002.6 583.4ZM1002.6 580.6C1003.98 580.6 1005.09 580 1005.92 578.8C1006.77 577.573 1007.2 575.64 1007.2 573C1007.2 570.36 1006.77 568.44 1005.92 567.24C1005.09 566.013 1003.98 565.4 1002.6 565.4C1001.21 565.4 1000.09 566.013 999.236 567.24C998.409 568.44 997.996 570.36 997.996 573C997.996 575.64 998.409 577.573 999.236 578.8C1000.09 580 1001.21 580.6 1002.6 580.6ZM1023.81 583.4C1021.11 583.4 1019.01 582.52 1017.49 580.76C1015.97 579 1015.21 576.413 1015.21 573C1015.21 569.587 1015.97 567 1017.49 565.24C1019.01 563.48 1021.11 562.6 1023.81 562.6C1026.47 562.6 1028.57 563.48 1030.09 565.24C1031.63 567 1032.41 569.587 1032.41 573C1032.41 576.413 1031.63 579 1030.09 580.76C1028.57 582.52 1026.47 583.4 1023.81 583.4ZM1023.81 580.6C1025.19 580.6 1026.3 580 1027.13 578.8C1027.98 577.573 1028.41 575.64 1028.41 573C1028.41 570.36 1027.98 568.44 1027.13 567.24C1026.3 566.013 1025.19 565.4 1023.81 565.4C1022.42 565.4 1021.3 566.013 1020.45 567.24C1019.62 568.44 1019.21 570.36 1019.21 573C1019.21 575.64 1019.62 577.573 1020.45 578.8C1021.3 580 1022.42 580.6 1023.81 580.6ZM1037.42 563H1040.22L1040.62 565.4H1040.82C1041.19 564.973 1041.67 564.507 1042.26 564C1043.51 563.067 1044.83 562.6 1046.22 562.6C1047.76 562.6 1049.11 563.067 1050.26 564C1050.79 564.48 1051.18 564.947 1051.42 565.4C1051.79 565 1052.34 564.533 1053.06 564C1054.55 563.067 1056 562.6 1057.42 562.6C1058.62 562.6 1059.7 562.893 1060.66 563.48C1061.64 564.04 1062.42 564.84 1062.98 565.88C1063.54 566.92 1063.82 568.093 1063.82 569.4V583H1059.82V569.4C1059.82 568.307 1059.48 567.4 1058.82 566.68C1058.15 565.96 1057.35 565.6 1056.42 565.6C1055.59 565.6 1054.71 565.933 1053.78 566.6C1053.48 566.787 1053.1 567.12 1052.62 567.6V583H1048.62V569.4C1048.62 568.307 1048.28 567.4 1047.62 566.68C1046.95 565.96 1046.15 565.6 1045.22 565.6C1044.36 565.6 1043.48 566 1042.58 566.8C1042.23 567.093 1041.84 567.493 1041.42 568V583H1037.42V563Z" fill="black"/>
<rect x="745" y="608" width="449" height="37" rx="18.5" fill="#C4C4C4"/>
<rect x="745" y="674" width="449" height="37" rx="18.5" fill="#C4C4C4"/>
<ellipse cx="1233.02" cy="816.583" rx="14.51" ry="17.0493" transform="rotate(119.411 1233.02 816.583)" fill="#EFBA9B"/>
<path d="M1221.79 794.125C1228.05 798.672 1242.83 804.117 1241.04 806.573C1239.26 809.03 1221.58 807.569 1215.32 803.022C1209.07 798.475 1205.45 792.798 1207.23 790.341C1209.02 787.884 1215.54 789.578 1221.79 794.125Z" fill="#EFBA9B"/>
<path d="M718.507 753L731.752 794.794L758.372 805.507L731.752 818.486L718.507 858.015L705.132 818.486L678.777 805.507L705.132 794.794L718.507 753Z" fill="#ECC334"/>
<path d="M1236.45 447L1242.87 467.256L1255.77 472.448L1242.87 478.738L1236.45 497.896L1229.97 478.738L1217.19 472.448L1229.97 467.256L1236.45 447Z" fill="#ECC334"/>
<rect width="28.9548" height="15.5639" transform="matrix(-0.140621 -0.990063 -0.990063 0.140621 55.8799 1082.59)" fill="#EFBA9B"/>
<rect width="33.2264" height="12.2413" transform="matrix(-0.982624 0.18561 0.18561 0.982624 134.515 1139.77)" fill="#EFBA9B"/>
<path d="M48.3417 1054.16L54.2661 1085.52L193.624 1067.2L191.965 1023.08L152.755 896.236L112.009 928.89L149.862 1031.04L48.3417 1054.16Z" fill="#0B1530"/>
<path d="M120.502 952.52L66.1622 956.915L102.354 1148.51L141.24 1141.17L120.502 952.52Z" fill="#0B1530"/>
<path d="M152.234 894.385L57.7241 912.238L70.0583 977.536L116.294 954.431L164.569 959.683L152.234 894.385Z" fill="#0B1530"/>
<path d="M41.1565 1094.82L43.7098 1054.89L21.2115 1057.31L19.7242 1112.19L41.1565 1094.82Z" fill="#353535"/>
<path d="M141.143 1149.39L102.755 1156.64L106.473 1176.32L167.271 1164.84L141.143 1149.39Z" fill="#353535"/>
<path d="M123.395 767.637C120.756 755.665 111.213 746.433 99.1603 744.192V744.192C83.9828 741.37 68.2999 744.402 55.2674 752.676L50.3774 755.781C37.0205 764.262 30.3383 780.148 33.6176 795.626L58.3001 912.129L151.374 894.548L123.395 767.637Z" fill="#345E13"/>
<path d="M44.6475 843.962L46.645 865.741L133.209 856.708L124.498 841.784L44.6475 843.962Z" fill="#EFBA9B"/>
<path d="M31.5759 853.78C34.121 863.415 44.951 868.366 53.9515 864.009V864.009L43.6173 828.143L25.2498 829.832L31.5759 853.78Z" fill="#EFBA9B"/>
<path d="M53.6225 774.644L36.9959 771.333L30.8001 791.344L20.7897 841.438L51.8749 839.887L53.6225 774.644Z" fill="#345E13"/>
<path d="M27.5229 721.76C33.0381 750.958 58.9553 770.576 85.4106 765.579C111.866 760.582 128.841 732.862 123.326 703.664C117.811 674.466 91.8936 654.848 65.4383 659.845C38.983 664.842 22.0077 692.563 27.5229 721.76Z" fill="#EFBA9B"/>
<path d="M133.545 653.295C129.264 637.799 110.57 631.681 97.9558 641.647V641.647C94.7514 644.179 90.9176 645.79 86.8665 646.306L64.0679 649.212C58.6748 649.9 53.4379 651.499 48.5811 653.942V653.942C32.8509 661.855 22.7228 677.753 22.1987 695.354L21.6259 714.59C21.5946 715.641 21.7661 716.688 22.131 717.675V717.675C25.406 726.527 38.5883 723.728 37.9828 714.308L36.9041 697.528C36.4818 690.959 42.0631 685.585 48.6117 686.256L106.599 692.193C122.631 693.835 136.439 680.929 135.954 664.821V664.821C135.891 662.732 135.578 660.652 135.022 658.638L133.545 653.295Z" fill="#302424"/>
<path d="M74.685 711.737L87.5889 729.662L76.5427 739.463" stroke="black" stroke-width="5"/>
<path d="M43.8008 697.844L47.8835 719.458" stroke="black" stroke-width="5"/>
<path d="M100.799 688.893L104.882 710.507" stroke="black" stroke-width="5"/>
<path d="M116.033 850.438C117.405 856.647 126.347 859.95 136.005 857.815C145.664 855.68 152.38 848.916 151.008 842.707C149.636 836.499 142.117 836.91 132.459 839.045C122.801 841.18 114.661 844.23 116.033 850.438Z" fill="#EFBA9B"/>
<rect width="19.3837" height="33.158" transform="matrix(0.901882 -0.431983 -0.276536 -0.961004 132.758 845.1)" fill="#EFBA9B"/>
<path d="M112.132 750.243L114.173 750.42C121.126 751.024 126.7 755.046 128.901 761.049L144.698 804.13L126.223 824.837L107.012 817.503L112.132 750.243Z" fill="#345E13"/>
<ellipse cx="83.361" cy="754.342" rx="4.37189" ry="7.43221" transform="rotate(-10.6967 83.361 754.342)" fill="#471C1C"/>
<ellipse rx="12.6872" ry="14.9075" transform="matrix(0.871286 -0.490776 -0.490776 -0.871286 96.8893 777.86)" fill="#EFBA9B"/>
<rect width="19.3837" height="68.307" transform="matrix(0.714074 -0.700071 -0.572042 -0.820224 133.202 845.537)" fill="#EFBA9B"/>
</svg>
