<svg width="2520" height="1633" viewBox="0 0 2520 1633" fill="none" xmlns="http://www.w3.org/2000/svg">
<rect x="534" y="196" width="1824" height="1177" fill="white"/>
<rect x="534" y="196" width="1824" height="125" fill="#114C60"/>
<rect x="640" y="785" width="433" height="243" fill="#69E48E"/>
<line x1="684" y1="846.5" x2="1007" y2="846.5" stroke="black"/>
<line x1="684" y1="945.5" x2="1007" y2="945.5" stroke="black"/>
<rect x="640" y="1068" width="433" height="243" fill="#69E48E"/>
<line x1="684" y1="1129.5" x2="1007" y2="1129.5" stroke="black"/>
<line x1="684" y1="1228.5" x2="1007" y2="1228.5" stroke="black"/>
<rect x="1283" y="1068" width="433" height="243" fill="#69E48E"/>
<line x1="1327" y1="1129.5" x2="1650" y2="1129.5" stroke="black"/>
<line x1="1327" y1="1228.5" x2="1650" y2="1228.5" stroke="black"/>
<rect x="643" y="493" width="433" height="243" fill="#69E48E"/>
<line x1="687" y1="554.5" x2="1010" y2="554.5" stroke="black"/>
<line x1="687" y1="653.5" x2="1010" y2="653.5" stroke="black"/>
<rect x="1283" y="493" width="433" height="243" fill="#69E48E"/>
<line x1="1338" y1="547.5" x2="1661" y2="547.5" stroke="black"/>
<line x1="1338" y1="646.5" x2="1661" y2="646.5" stroke="black"/>
<rect x="1283" y="785" width="433" height="243" fill="#69E48E"/>
<line x1="1327" y1="846.5" x2="1650" y2="846.5" stroke="black"/>
<line x1="1327" y1="945.5" x2="1650" y2="945.5" stroke="black"/>
<path d="M2358 321L2358 1373L1940 1373L1940 321L2358 321Z" fill="#86FFCC"/>
<rect x="820" y="365" width="803" height="73" rx="30" fill="#C4C4C4"/>
<g filter="url(#filter0_d_757_530)">
<circle cx="1785.34" cy="1398.35" r="142" transform="rotate(17.3847 1785.34 1398.35)" fill="#FFF282" stroke="#936A00" stroke-width="15"/>
<circle cx="1870.32" cy="1390.24" r="16.5268" transform="rotate(17.3847 1870.32 1390.24)" fill="#936A00" stroke="#936A00" stroke-width="15"/>
<circle cx="1717.46" cy="1342.38" r="16.5268" transform="rotate(17.3847 1717.46 1342.38)" fill="#936A00" stroke="#936A00" stroke-width="15"/>
<rect x="1784.6" y="1401.66" width="55.4833" height="58.2403" transform="rotate(62.3847 1784.6 1401.66)" fill="#FFC940" stroke="#936A00" stroke-width="15"/>
</g>
<g filter="url(#filter1_d_757_530)">
<circle cx="1849.24" cy="1535.25" r="72.6012" transform="rotate(17.3847 1849.24 1535.25)" fill="#FFF282" stroke="#936A00" stroke-width="10"/>
<circle cx="1893.36" cy="1531.04" r="7.47162" transform="rotate(17.3847 1893.36 1531.04)" fill="#936A00" stroke="#936A00" stroke-width="10"/>
<circle cx="1814.01" cy="1506.2" r="7.47162" transform="rotate(17.3847 1814.01 1506.2)" fill="#936A00" stroke="#936A00" stroke-width="10"/>
<rect x="1848.39" y="1538.47" width="26.5859" height="28.0169" transform="rotate(62.3847 1848.39 1538.47)" fill="#FFC940" stroke="#936A00" stroke-width="10"/>
</g>
<g filter="url(#filter2_d_757_530)">
<path d="M1927.13 1395.12C1942.86 1400.33 1960.25 1391.71 1961.21 1375.17C1962.7 1349.46 1955.72 1322.91 1940.7 1298.65C1919.85 1264.97 1885.21 1238.45 1844.42 1224.94C1803.63 1211.43 1760.02 1212.03 1723.18 1226.61C1696.65 1237.11 1675.2 1254.24 1661.05 1275.75C1651.95 1289.6 1660.75 1306.89 1676.48 1312.1L1801.81 1353.61L1927.13 1395.12Z" fill="#FFC700"/>
<path d="M1934.32 1302.6C1948.6 1325.66 1955.11 1350.7 1953.72 1374.73C1953.4 1380.2 1950.47 1384.3 1946.07 1386.75C1941.53 1389.26 1935.44 1389.97 1929.49 1388L1804.16 1346.49L1678.84 1304.98C1672.89 1303.01 1668.42 1298.8 1666.29 1294.08C1664.21 1289.49 1664.31 1284.45 1667.32 1279.87C1680.55 1259.76 1700.72 1243.56 1725.94 1233.58C1761 1219.71 1802.79 1219.05 1842.06 1232.06C1881.34 1245.07 1914.47 1270.54 1934.32 1302.6Z" stroke="#936A00" stroke-width="15"/>
</g>
<path d="M1660 1277.44L1810.18 1317.8L1960.89 1377.05" stroke="#936A00" stroke-width="3"/>
<line x1="1800.23" y1="1216.5" x2="1768.42" y2="1307.5" stroke="#936A00" stroke-width="3"/>
<line x1="1768.41" y1="1216.52" x2="1736.41" y2="1302.52" stroke="#936A00" stroke-width="3"/>
<line x1="1886.42" y1="1245.5" x2="1855.6" y2="1334.5" stroke="#936A00" stroke-width="3"/>
<line x1="1897.42" y1="1253.49" x2="1868.42" y2="1339.49" stroke="#936A00" stroke-width="3"/>
<mask id="path-38-inside-1_757_530" fill="white">
<rect x="1823.56" y="1202" width="53.0644" height="124.164" rx="5" transform="rotate(18.0942 1823.56 1202)"/>
</mask>
<rect x="1823.56" y="1202" width="53.0644" height="124.164" rx="5" transform="rotate(18.0942 1823.56 1202)" fill="#FFC700" stroke="#936A00" stroke-width="20" mask="url(#path-38-inside-1_757_530)"/>
<rect x="471.508" y="1224.84" width="134.19" height="31.3103" fill="#898CAB" stroke="#114C60" stroke-width="5"/>
<rect x="471.508" y="1288.38" width="134.19" height="31.3103" fill="#898CAB" stroke="#114C60" stroke-width="5"/>
<path d="M531.104 1291.94C531.104 1335.43 507.694 1375.37 468.733 1404.69C429.768 1434.01 375.598 1452.37 315.446 1452.37C255.295 1452.37 201.125 1434.01 162.16 1404.69C123.198 1375.37 99.7891 1335.43 99.7891 1291.94C99.7891 1248.44 123.198 1208.5 162.16 1179.18C201.125 1149.86 255.295 1131.5 315.446 1131.5C375.598 1131.5 429.768 1149.86 468.733 1179.18C507.694 1208.5 531.104 1248.44 531.104 1291.94Z" fill="#898CAB" stroke="#114C60" stroke-width="15"/>
<rect x="7.5" y="1352.39" width="617.405" height="115.112" rx="57.556" fill="#C4C4C4" stroke="#114C60" stroke-width="15"/>
<path d="M531.103 1227.94C531.103 1250.31 527.987 1262 521.715 1268.55C515.54 1275 504.423 1278.38 482.499 1278.38C442.529 1278.38 409.939 1245.47 409.939 1204.63C409.939 1182.27 413.056 1170.57 419.328 1164.02C425.503 1157.58 436.62 1154.19 458.544 1154.19C498.513 1154.19 531.103 1187.11 531.103 1227.94Z" fill="#9DF9FF" stroke="#114C60" stroke-width="15"/>
<ellipse cx="493.973" cy="1248.06" rx="9.83405" ry="10.5905" fill="white"/>
<circle cx="80.1851" cy="1409.94" r="32.2974" fill="#898CAB" stroke="#114C60" stroke-width="5"/>
<circle cx="158.858" cy="1409.94" r="32.2974" fill="#898CAB" stroke="#114C60" stroke-width="5"/>
<circle cx="237.53" cy="1409.94" r="32.2974" fill="#898CAB" stroke="#114C60" stroke-width="5"/>
<circle cx="316.202" cy="1409.94" r="32.2974" fill="#898CAB" stroke="#114C60" stroke-width="5"/>
<circle cx="394.876" cy="1409.94" r="32.2974" fill="#898CAB" stroke="#114C60" stroke-width="5"/>
<circle cx="473.547" cy="1409.94" r="32.2974" fill="#898CAB" stroke="#114C60" stroke-width="5"/>
<circle cx="552.219" cy="1409.94" r="32.2974" fill="#898CAB" stroke="#114C60" stroke-width="5"/>
<rect x="603.133" y="1206.69" width="40.3879" height="131.164" rx="17.5" fill="#F18142" stroke="black" stroke-width="5"/>
<path d="M622.53 1302.76L760.262 1316.99C768.419 1317.83 772.476 1327.31 767.456 1333.79C765.475 1336.35 762.422 1337.85 759.187 1337.85H620.723C611.008 1337.85 603.133 1329.97 603.133 1320.26C603.133 1309.83 612.156 1301.69 622.53 1302.76Z" fill="#F18142" stroke="black" stroke-width="5"/>
<circle cx="208.029" cy="1292.69" r="31.5409" fill="#FF6161" stroke="#114C60" stroke-width="5"/>
<circle cx="321.498" cy="1291.18" r="31.5409" fill="#96FF8D" stroke="#114C60" stroke-width="5"/>
<rect x="2195" y="569" width="54" height="68" fill="#F18142" stroke="#114C60" stroke-width="10"/>
<path d="M2454.5 815C2454.5 927.32 2354.64 1019.5 2230 1019.5C2105.36 1019.5 2005.5 927.32 2005.5 815C2005.5 702.68 2105.36 610.5 2230 610.5C2354.64 610.5 2454.5 702.68 2454.5 815Z" fill="#898CAB" stroke="#114C60" stroke-width="15"/>
<path d="M2510.06 539.658C2510.92 540.206 2511.5 540.656 2511.89 541C2511.5 541.344 2510.92 541.794 2510.06 542.342C2507.04 544.282 2502.08 546.431 2494.99 548.627C2480.92 552.987 2460.17 557.015 2434.09 560.434C2382.02 567.256 2309.86 571.5 2230 571.5C2150.14 571.5 2077.98 567.256 2025.91 560.434C1999.83 557.015 1979.08 552.987 1965.01 548.627C1957.92 546.431 1952.96 544.282 1949.94 542.342C1949.08 541.794 1948.5 541.344 1948.11 541C1948.5 540.656 1949.08 540.206 1949.94 539.658C1952.96 537.718 1957.92 535.569 1965.01 533.373C1979.08 529.013 1999.83 524.985 2025.91 521.566C2077.98 514.744 2150.14 510.5 2230 510.5C2309.86 510.5 2382.02 514.744 2434.09 521.566C2460.17 524.985 2480.92 529.013 2494.99 533.373C2502.08 535.569 2507.04 537.718 2510.06 539.658Z" fill="#D0FCFF" stroke="#114C60" stroke-width="15"/>
<path d="M2258.5 541C2258.5 541.235 2258.31 542.028 2256.55 543.202C2254.88 544.313 2252.31 545.411 2248.9 546.372C2242.12 548.284 2232.61 549.5 2222 549.5C2211.39 549.5 2201.88 548.284 2195.1 546.372C2191.69 545.411 2189.12 544.313 2187.45 543.202C2185.69 542.028 2185.5 541.235 2185.5 541C2185.5 540.765 2185.69 539.972 2187.45 538.798C2189.12 537.687 2191.69 536.589 2195.1 535.628C2201.88 533.716 2211.39 532.5 2222 532.5C2232.61 532.5 2242.12 533.716 2248.9 535.628C2252.31 536.589 2254.88 537.687 2256.55 538.798C2258.31 539.972 2258.5 540.765 2258.5 541Z" fill="#F18142" stroke="#114C60" stroke-width="5"/>
<path d="M2222.5 847C2222.5 880.716 2194.1 908.5 2158.5 908.5C2122.9 908.5 2094.5 880.716 2094.5 847C2094.5 813.284 2122.9 785.5 2158.5 785.5C2194.1 785.5 2222.5 813.284 2222.5 847Z" fill="#9DF9FF" stroke="#114C60" stroke-width="15"/>
<path d="M2401.5 778C2401.5 801.198 2381.86 820.5 2357 820.5C2332.14 820.5 2312.5 801.198 2312.5 778C2312.5 754.802 2332.14 735.5 2357 735.5C2381.86 735.5 2401.5 754.802 2401.5 778Z" fill="#9DF9FF" stroke="#114C60" stroke-width="15"/>
<path d="M2040.7 762.08C2025.8 765.308 2018.41 764.69 2014.01 761.994C2009.73 759.374 2006.03 753.376 2002.88 738.836C1997.4 713.553 2013.78 688.335 2039.76 682.703C2054.66 679.475 2062.05 680.093 2066.45 682.789C2070.73 685.409 2074.42 691.407 2077.58 705.947C2083.06 731.23 2066.68 756.448 2040.7 762.08Z" fill="#9DF9FF" stroke="#114C60" stroke-width="15"/>
<ellipse cx="2037" cy="744.5" rx="10" ry="8.5" fill="white"/>
<ellipse cx="2037" cy="744.5" rx="10" ry="8.5" fill="white"/>
<ellipse cx="2340" cy="794.5" rx="10" ry="8.5" fill="white"/>
<ellipse cx="2340" cy="794.5" rx="10" ry="8.5" fill="white"/>
<ellipse cx="2120" cy="858.5" rx="10" ry="8.5" fill="white"/>
<ellipse cx="2120" cy="858.5" rx="10" ry="8.5" fill="white"/>
<path d="M2047 936.064L2071.82 939.164C2199.94 955.168 2329.95 933.351 2445.83 876.399V876.399" stroke="#114C60" stroke-width="15"/>
<path d="M2007 847L2024.05 860.317C2115.16 931.469 2222.9 978.214 2337.1 996.132V996.132" stroke="#114C60" stroke-width="15"/>
<line x1="2171.5" y1="940" x2="2171.5" y2="1246" stroke="#114C60" stroke-width="15"/>
<path d="M2231.41 1246.46C2233.79 1252.06 2235.26 1257.98 2235.78 1264H2175.5L2115.22 1264C2115.74 1257.98 2117.21 1252.06 2119.59 1246.46C2122.62 1239.31 2127.07 1232.81 2132.68 1227.32C2138.29 1221.84 2144.96 1217.48 2152.31 1214.51C2159.66 1211.53 2167.54 1210 2175.5 1210C2183.46 1210 2191.34 1211.53 2198.69 1214.51C2206.04 1217.48 2212.71 1221.84 2218.32 1227.32C2223.93 1232.81 2228.38 1239.31 2231.41 1246.46Z" fill="#F18142" stroke="#114C60" stroke-width="10"/>
<rect x="2019" y="1264" width="313" height="88" rx="44" fill="#114C60" stroke="#114C60" stroke-width="10"/>
<path d="M2072.79 1323.4C2069.46 1323.4 2066.88 1322.25 2065.07 1319.96C2063.28 1317.67 2062.39 1314.01 2062.39 1309C2062.39 1304.01 2063.27 1300.37 2065.03 1298.08C2066.79 1295.76 2069.24 1294.6 2072.39 1294.6C2074.28 1294.6 2076 1294.97 2077.55 1295.72C2078.3 1296.07 2078.91 1296.43 2079.39 1296.8L2077.99 1299.2H2077.59C2077.19 1298.91 2076.74 1298.61 2076.23 1298.32C2075.06 1297.71 2073.91 1297.4 2072.79 1297.4C2068.52 1297.4 2066.39 1301.27 2066.39 1309C2066.39 1313.16 2066.98 1316.13 2068.15 1317.92C2069.35 1319.71 2071.03 1320.6 2073.19 1320.6C2074.36 1320.6 2075.51 1320.31 2076.63 1319.72C2077.19 1319.4 2077.64 1319.09 2077.99 1318.8H2078.39L2079.79 1321.2C2079.34 1321.57 2078.72 1321.95 2077.95 1322.32C2076.46 1323.04 2074.74 1323.4 2072.79 1323.4ZM2083.78 1303H2086.58L2086.98 1305.4H2087.18C2087.44 1305 2087.9 1304.53 2088.54 1304C2089.79 1303.07 2091.2 1302.6 2092.78 1302.6C2093.47 1302.6 2094.08 1302.67 2094.62 1302.8L2095.38 1303L2094.78 1306.2H2094.38C2094.19 1306.17 2093.91 1306.11 2093.54 1306C2092.95 1305.87 2092.36 1305.8 2091.78 1305.8C2090.9 1305.8 2089.95 1306.2 2088.94 1307C2088.59 1307.29 2088.2 1307.69 2087.78 1308.2V1323H2083.78V1303ZM2106.18 1323.4C2103.41 1323.4 2101.25 1322.52 2099.7 1320.76C2098.16 1319 2097.38 1316.41 2097.38 1313C2097.38 1309.61 2098.13 1307.04 2099.62 1305.28C2101.12 1303.49 2103.1 1302.6 2105.58 1302.6C2108.06 1302.6 2110.05 1303.49 2111.54 1305.28C2113.04 1307.04 2113.78 1309.61 2113.78 1313V1313.6L2112.98 1314.4H2101.38C2101.38 1316.45 2101.84 1318 2102.74 1319.04C2103.65 1320.08 2104.93 1320.6 2106.58 1320.6C2107.57 1320.6 2108.6 1320.31 2109.66 1319.72C2110.22 1319.4 2110.66 1319.09 2110.98 1318.8H2111.38L2112.78 1321.2C2112.3 1321.6 2111.7 1321.97 2110.98 1322.32C2109.6 1323.04 2108 1323.4 2106.18 1323.4ZM2109.78 1311.6C2109.78 1309.49 2109.4 1307.93 2108.62 1306.92C2107.88 1305.91 2106.86 1305.4 2105.58 1305.4C2104.3 1305.4 2103.28 1305.91 2102.5 1306.92C2101.76 1307.93 2101.38 1309.49 2101.38 1311.6H2109.78ZM2123.98 1323.4C2121.9 1323.4 2120.27 1322.85 2119.1 1321.76C2117.95 1320.64 2117.38 1319.12 2117.38 1317.2C2117.38 1315.31 2118.06 1313.84 2119.42 1312.8C2120.81 1311.73 2122.99 1311.2 2125.98 1311.2H2129.18V1310.2C2129.18 1308.63 2128.81 1307.44 2128.06 1306.64C2127.34 1305.81 2126.31 1305.4 2124.98 1305.4C2124.02 1305.4 2122.98 1305.71 2121.86 1306.32C2121.3 1306.64 2120.87 1306.93 2120.58 1307.2H2120.18L2118.78 1304.8C2119.31 1304.4 2119.91 1304.04 2120.58 1303.72C2122.02 1302.97 2123.62 1302.6 2125.38 1302.6C2126.9 1302.6 2128.25 1302.93 2129.42 1303.6C2130.59 1304.24 2131.51 1305.15 2132.18 1306.32C2132.85 1307.47 2133.18 1308.76 2133.18 1310.2V1323H2130.38L2129.98 1320.6H2129.78C2129.41 1321.13 2128.94 1321.6 2128.38 1322C2127.21 1322.93 2125.74 1323.4 2123.98 1323.4ZM2124.98 1320.4C2125.97 1320.4 2126.97 1320 2127.98 1319.2C2128.43 1318.83 2128.83 1318.43 2129.18 1318V1314H2125.98C2124.46 1314 2123.31 1314.29 2122.54 1314.88C2121.77 1315.47 2121.38 1316.24 2121.38 1317.2C2121.38 1318.24 2121.67 1319.04 2122.26 1319.6C2122.87 1320.13 2123.78 1320.4 2124.98 1320.4ZM2146.37 1323.4C2144.37 1323.4 2142.77 1322.81 2141.57 1321.64C2140.37 1320.47 2139.77 1318.92 2139.77 1317V1305.8H2136.77V1303.4L2141.97 1298.2H2143.77V1303H2148.77V1305.8H2143.77V1317C2143.77 1318.17 2144.04 1319.07 2144.57 1319.68C2145.1 1320.29 2145.84 1320.6 2146.77 1320.6C2147.57 1320.6 2148.36 1320.33 2149.13 1319.8C2149.48 1319.56 2149.82 1319.29 2150.17 1319H2150.57L2151.97 1321.4C2151.38 1321.85 2150.85 1322.19 2150.37 1322.4C2149.09 1323.07 2147.76 1323.4 2146.37 1323.4ZM2162.79 1323.4C2160.01 1323.4 2157.85 1322.52 2156.31 1320.76C2154.76 1319 2153.99 1316.41 2153.99 1313C2153.99 1309.61 2154.73 1307.04 2156.23 1305.28C2157.72 1303.49 2159.71 1302.6 2162.19 1302.6C2164.67 1302.6 2166.65 1303.49 2168.15 1305.28C2169.64 1307.04 2170.39 1309.61 2170.39 1313V1313.6L2169.59 1314.4H2157.99C2157.99 1316.45 2158.44 1318 2159.35 1319.04C2160.25 1320.08 2161.53 1320.6 2163.19 1320.6C2164.17 1320.6 2165.2 1320.31 2166.27 1319.72C2166.83 1319.4 2167.27 1319.09 2167.59 1318.8H2167.99L2169.39 1321.2C2168.91 1321.6 2168.31 1321.97 2167.59 1322.32C2166.2 1323.04 2164.6 1323.4 2162.79 1323.4ZM2166.39 1311.6C2166.39 1309.49 2166 1307.93 2165.23 1306.92C2164.48 1305.91 2163.47 1305.4 2162.19 1305.4C2160.91 1305.4 2159.88 1305.91 2159.11 1306.92C2158.36 1307.93 2157.99 1309.49 2157.99 1311.6H2166.39ZM2186.78 1303H2189.58L2189.98 1305.4H2190.18C2190.45 1305 2190.9 1304.53 2191.54 1304C2192.8 1303.07 2194.21 1302.6 2195.78 1302.6C2196.48 1302.6 2197.09 1302.67 2197.62 1302.8L2198.38 1303L2197.78 1306.2H2197.38C2197.2 1306.17 2196.92 1306.11 2196.54 1306C2195.96 1305.87 2195.37 1305.8 2194.78 1305.8C2193.9 1305.8 2192.96 1306.2 2191.94 1307C2191.6 1307.29 2191.21 1307.69 2190.78 1308.2V1323H2186.78V1303ZM2208.99 1323.4C2206.3 1323.4 2204.19 1322.52 2202.67 1320.76C2201.15 1319 2200.39 1316.41 2200.39 1313C2200.39 1309.59 2201.15 1307 2202.67 1305.24C2204.19 1303.48 2206.3 1302.6 2208.99 1302.6C2211.66 1302.6 2213.75 1303.48 2215.27 1305.24C2216.82 1307 2217.59 1309.59 2217.59 1313C2217.59 1316.41 2216.82 1319 2215.27 1320.76C2213.75 1322.52 2211.66 1323.4 2208.99 1323.4ZM2208.99 1320.6C2210.38 1320.6 2211.49 1320 2212.31 1318.8C2213.17 1317.57 2213.59 1315.64 2213.59 1313C2213.59 1310.36 2213.17 1308.44 2212.31 1307.24C2211.49 1306.01 2210.38 1305.4 2208.99 1305.4C2207.61 1305.4 2206.49 1306.01 2205.63 1307.24C2204.81 1308.44 2204.39 1310.36 2204.39 1313C2204.39 1315.64 2204.81 1317.57 2205.63 1318.8C2206.49 1320 2207.61 1320.6 2208.99 1320.6ZM2230.2 1323.4C2227.51 1323.4 2225.4 1322.52 2223.88 1320.76C2222.36 1319 2221.6 1316.41 2221.6 1313C2221.6 1309.59 2222.36 1307 2223.88 1305.24C2225.4 1303.48 2227.51 1302.6 2230.2 1302.6C2232.87 1302.6 2234.96 1303.48 2236.48 1305.24C2238.03 1307 2238.8 1309.59 2238.8 1313C2238.8 1316.41 2238.03 1319 2236.48 1320.76C2234.96 1322.52 2232.87 1323.4 2230.2 1323.4ZM2230.2 1320.6C2231.59 1320.6 2232.7 1320 2233.52 1318.8C2234.38 1317.57 2234.8 1315.64 2234.8 1313C2234.8 1310.36 2234.38 1308.44 2233.52 1307.24C2232.7 1306.01 2231.59 1305.4 2230.2 1305.4C2228.82 1305.4 2227.7 1306.01 2226.84 1307.24C2226.02 1308.44 2225.6 1310.36 2225.6 1313C2225.6 1315.64 2226.02 1317.57 2226.84 1318.8C2227.7 1320 2228.82 1320.6 2230.2 1320.6ZM2243.81 1303H2246.61L2247.01 1305.4H2247.21C2247.59 1304.97 2248.07 1304.51 2248.65 1304C2249.91 1303.07 2251.23 1302.6 2252.61 1302.6C2254.16 1302.6 2255.51 1303.07 2256.65 1304C2257.19 1304.48 2257.57 1304.95 2257.81 1305.4C2258.19 1305 2258.73 1304.53 2259.45 1304C2260.95 1303.07 2262.4 1302.6 2263.81 1302.6C2265.01 1302.6 2266.09 1302.89 2267.05 1303.48C2268.04 1304.04 2268.81 1304.84 2269.37 1305.88C2269.93 1306.92 2270.21 1308.09 2270.21 1309.4V1323H2266.21V1309.4C2266.21 1308.31 2265.88 1307.4 2265.21 1306.68C2264.55 1305.96 2263.75 1305.6 2262.81 1305.6C2261.99 1305.6 2261.11 1305.93 2260.17 1306.6C2259.88 1306.79 2259.49 1307.12 2259.01 1307.6V1323H2255.01V1309.4C2255.01 1308.31 2254.68 1307.4 2254.01 1306.68C2253.35 1305.96 2252.55 1305.6 2251.61 1305.6C2250.76 1305.6 2249.88 1306 2248.97 1306.8C2248.63 1307.09 2248.24 1307.49 2247.81 1308V1323H2243.81V1303ZM2292.4 1318V1311.4H2285.8V1308.2H2292.4V1301.6H2295.6V1308.2H2302.2V1311.4H2295.6V1318H2292.4Z" fill="white"/>
<path d="M600.5 470C600.5 593.971 491.179 695.5 355 695.5C218.821 695.5 109.5 593.971 109.5 470C109.5 346.029 218.821 244.5 355 244.5C491.179 244.5 600.5 346.029 600.5 470Z" fill="#898CAB" stroke="#114C60" stroke-width="15"/>
<path d="M572.5 350.885C572.5 371.772 569.584 382.511 563.88 388.476C558.277 394.335 548.106 397.5 527.671 397.5C490.687 397.5 460.5 366.997 460.5 329.115C460.5 308.228 463.416 297.489 469.12 291.524C474.723 285.665 484.894 282.5 505.329 282.5C542.313 282.5 572.5 313.003 572.5 350.885Z" fill="#9DF9FF" stroke="#114C60" stroke-width="15"/>
<ellipse cx="544.5" cy="368" rx="9.5" ry="10" fill="white"/>
<path d="M373.999 246L312.873 375" stroke="#114C60" stroke-width="15"/>
<line x1="311.103" y1="366.504" x2="409.103" y2="457.504" stroke="#114C60" stroke-width="15"/>
<line x1="348.103" y1="592.504" x2="446.103" y2="683.504" stroke="#114C60" stroke-width="15"/>
<line x1="406.032" y1="449.608" x2="350.032" y2="600.608" stroke="#114C60" stroke-width="15"/>
<rect x="677.024" y="443.877" width="17.6814" height="42.1992" transform="rotate(70.2225 677.024 443.877)" fill="#C4C4C4" stroke="#114C60" stroke-width="10"/>
<rect x="634.252" y="444.129" width="46.1537" height="179.024" rx="23.0769" transform="rotate(70.2225 634.252 444.129)" fill="#F9E57B" stroke="#114C60" stroke-width="10"/>
<circle cx="794.26" cy="411.537" r="124.707" transform="rotate(70.2225 794.26 411.537)" fill="#525277" stroke="#114C60" stroke-width="10"/>
<circle cx="792.771" cy="412.072" r="89.9077" transform="rotate(70.2225 792.771 412.072)" fill="#DAFFFD" stroke="#114C60" stroke-width="10"/>
<circle cx="476" cy="518" r="54" fill="#F88B4D" stroke="#114C60" stroke-width="10"/>
<ellipse cx="853.5" cy="429.5" rx="12.5" ry="14.5" fill="white"/>
<path d="M852.145 462.053C851.298 470.016 823.729 487.269 816.864 486.539C809.999 485.809 826.438 467.372 827.285 459.409C828.132 451.446 834.384 445.582 841.248 446.312C848.113 447.042 852.992 454.09 852.145 462.053Z" fill="white"/>
<rect x="1558.32" y="200.167" width="208" height="144" transform="rotate(-58.2236 1558.32 200.167)" fill="#EF7F40"/>
<path d="M1549.24 344.641L1509.88 120.69L1763.93 269.721L1549.24 344.641Z" fill="#EF7F40"/>
<defs>
<filter id="filter0_d_757_530" x="1631.8" y="1248.81" width="307.08" height="307.08" filterUnits="userSpaceOnUse" color-interpolation-filters="sRGB">
<feFlood flood-opacity="0" result="BackgroundImageFix"/>
<feColorMatrix in="SourceAlpha" type="matrix" values="0 0 0 0 0 0 0 0 0 0 0 0 0 0 0 0 0 0 127 0" result="hardAlpha"/>
<feOffset dy="4"/>
<feGaussianBlur stdDeviation="2"/>
<feComposite in2="hardAlpha" operator="out"/>
<feColorMatrix type="matrix" values="0 0 0 0 0 0 0 0 0 0 0 0 0 0 0 0 0 0 0.25 0"/>
<feBlend mode="normal" in2="BackgroundImageFix" result="effect1_dropShadow_757_530"/>
<feBlend mode="normal" in="SourceGraphic" in2="effect1_dropShadow_757_530" result="shape"/>
</filter>
<filter id="filter1_d_757_530" x="1767.62" y="1457.63" width="163.244" height="163.244" filterUnits="userSpaceOnUse" color-interpolation-filters="sRGB">
<feFlood flood-opacity="0" result="BackgroundImageFix"/>
<feColorMatrix in="SourceAlpha" type="matrix" values="0 0 0 0 0 0 0 0 0 0 0 0 0 0 0 0 0 0 127 0" result="hardAlpha"/>
<feOffset dy="4"/>
<feGaussianBlur stdDeviation="2"/>
<feComposite in2="hardAlpha" operator="out"/>
<feColorMatrix type="matrix" values="0 0 0 0 0 0 0 0 0 0 0 0 0 0 0 0 0 0 0.25 0"/>
<feBlend mode="normal" in2="BackgroundImageFix" result="effect1_dropShadow_757_530"/>
<feBlend mode="normal" in="SourceGraphic" in2="effect1_dropShadow_757_530" result="shape"/>
</filter>
<filter id="filter2_d_757_530" x="1653.38" y="1215.23" width="312.029" height="189.412" filterUnits="userSpaceOnUse" color-interpolation-filters="sRGB">
<feFlood flood-opacity="0" result="BackgroundImageFix"/>
<feColorMatrix in="SourceAlpha" type="matrix" values="0 0 0 0 0 0 0 0 0 0 0 0 0 0 0 0 0 0 127 0" result="hardAlpha"/>
<feOffset dy="4"/>
<feGaussianBlur stdDeviation="2"/>
<feComposite in2="hardAlpha" operator="out"/>
<feColorMatrix type="matrix" values="0 0 0 0 0 0 0 0 0 0 0 0 0 0 0 0 0 0 0.25 0"/>
<feBlend mode="normal" in2="BackgroundImageFix" result="effect1_dropShadow_757_530"/>
<feBlend mode="normal" in="SourceGraphic" in2="effect1_dropShadow_757_530" result="shape"/>
</filter>
</defs>
</svg>
