<svg width="3293" height="1893" viewBox="0 0 3293 1893" fill="none" xmlns="http://www.w3.org/2000/svg">
<path d="M1071.3 425.188L1071.42 425.031L1071.53 424.868L1181.58 264.433C1182.57 262.978 1183.94 261.727 1185.57 260.769L1361.45 157.66C1371.61 151.7 1385.11 159.439 1382.28 169.61L1354.23 270.578C1353.57 272.952 1352.03 275.088 1349.83 276.67L1235.32 359.063C1232.53 361.071 1230.2 363.496 1228.45 366.217L1154.92 480.657L1068.84 607.88C1066.38 611.517 1061.76 613.728 1056.81 613.64L951.31 611.768C940.713 611.58 934.515 601.626 940.327 594.129L1071.3 425.188Z" fill="#898CAB" stroke="#35353F" stroke-width="15"/>
<path d="M1161.5 589.977C1161.5 713.948 1052.18 815.477 916 815.477C779.821 815.477 670.5 713.948 670.5 589.977C670.5 466.007 779.821 364.477 916 364.477C1052.18 364.477 1161.5 466.007 1161.5 589.977Z" fill="#898CAB" stroke="#35353F" stroke-width="15"/>
<g filter="url(#filter0_d_639_474)">
<rect x="1445" y="286.977" width="1824" height="1177" fill="white"/>
<rect x="1445" y="286.977" width="1824" height="125" fill="#35353F"/>
<rect x="1551" y="574.977" width="1087" height="243" fill="#C4C4C4"/>
<rect x="1551" y="1176.98" width="1087" height="243" fill="#C4C4C4"/>
<rect x="1551" y="875.977" width="1087" height="243" fill="#69E48E"/>
<rect x="2786.29" y="1331.18" width="433.745" height="87.3459" rx="43.6729" fill="#69E48E" stroke="#35353F" stroke-width="10"/>
<path d="M2894.35 1392.38C2891.02 1392.38 2888.44 1391.23 2886.63 1388.94C2884.84 1386.64 2883.95 1382.99 2883.95 1377.98C2883.95 1372.99 2884.83 1369.35 2886.59 1367.06C2888.35 1364.74 2890.8 1363.58 2893.95 1363.58C2895.84 1363.58 2897.56 1363.95 2899.11 1364.7C2899.86 1365.04 2900.47 1365.4 2900.95 1365.78L2899.55 1368.18H2899.15C2898.75 1367.88 2898.3 1367.59 2897.79 1367.3C2896.62 1366.68 2895.47 1366.38 2894.35 1366.38C2890.08 1366.38 2887.95 1370.24 2887.95 1377.98C2887.95 1382.14 2888.54 1385.11 2889.71 1386.9C2890.91 1388.68 2892.59 1389.58 2894.75 1389.58C2895.92 1389.58 2897.07 1389.28 2898.19 1388.7C2898.75 1388.38 2899.2 1388.07 2899.55 1387.78H2899.95L2901.35 1390.18C2900.9 1390.55 2900.28 1390.92 2899.51 1391.3C2898.02 1392.02 2896.3 1392.38 2894.35 1392.38ZM2905.33 1371.98H2908.13L2908.53 1374.38H2908.73C2909 1373.98 2909.45 1373.51 2910.09 1372.98C2911.35 1372.04 2912.76 1371.58 2914.33 1371.58C2915.03 1371.58 2915.64 1371.64 2916.17 1371.78L2916.93 1371.98L2916.33 1375.18H2915.93C2915.75 1375.15 2915.47 1375.08 2915.09 1374.98C2914.51 1374.84 2913.92 1374.78 2913.33 1374.78C2912.45 1374.78 2911.51 1375.18 2910.49 1375.98C2910.15 1376.27 2909.76 1376.67 2909.33 1377.18V1391.98H2905.33V1371.98ZM2927.74 1392.38C2924.97 1392.38 2922.81 1391.5 2921.26 1389.74C2919.72 1387.98 2918.94 1385.39 2918.94 1381.98C2918.94 1378.59 2919.69 1376.02 2921.18 1374.26C2922.68 1372.47 2924.66 1371.58 2927.14 1371.58C2929.62 1371.58 2931.61 1372.47 2933.1 1374.26C2934.6 1376.02 2935.34 1378.59 2935.34 1381.98V1382.58L2934.54 1383.38H2922.94C2922.94 1385.43 2923.4 1386.98 2924.3 1388.02C2925.21 1389.06 2926.49 1389.58 2928.14 1389.58C2929.13 1389.58 2930.16 1389.28 2931.22 1388.7C2931.78 1388.38 2932.22 1388.07 2932.54 1387.78H2932.94L2934.34 1390.18C2933.86 1390.58 2933.26 1390.95 2932.54 1391.3C2931.16 1392.02 2929.56 1392.38 2927.74 1392.38ZM2931.34 1380.58C2931.34 1378.47 2930.96 1376.91 2930.18 1375.9C2929.44 1374.88 2928.42 1374.38 2927.14 1374.38C2925.86 1374.38 2924.84 1374.88 2924.06 1375.9C2923.32 1376.91 2922.94 1378.47 2922.94 1380.58H2931.34ZM2945.54 1392.38C2943.46 1392.38 2941.83 1391.83 2940.66 1390.74C2939.51 1389.62 2938.94 1388.1 2938.94 1386.18C2938.94 1384.28 2939.62 1382.82 2940.98 1381.78C2942.37 1380.71 2944.55 1380.18 2947.54 1380.18H2950.74V1379.18C2950.74 1377.6 2950.37 1376.42 2949.62 1375.62C2948.9 1374.79 2947.87 1374.38 2946.54 1374.38C2945.58 1374.38 2944.54 1374.68 2943.42 1375.3C2942.86 1375.62 2942.43 1375.91 2942.14 1376.18H2941.74L2940.34 1373.78C2940.87 1373.38 2941.47 1373.02 2942.14 1372.7C2943.58 1371.95 2945.18 1371.58 2946.94 1371.58C2948.46 1371.58 2949.81 1371.91 2950.98 1372.58C2952.15 1373.22 2953.07 1374.12 2953.74 1375.3C2954.41 1376.44 2954.74 1377.74 2954.74 1379.18V1391.98H2951.94L2951.54 1389.58H2951.34C2950.97 1390.11 2950.5 1390.58 2949.94 1390.98C2948.77 1391.91 2947.3 1392.38 2945.54 1392.38ZM2946.54 1389.38C2947.53 1389.38 2948.53 1388.98 2949.54 1388.18C2949.99 1387.8 2950.39 1387.4 2950.74 1386.98V1382.98H2947.54C2946.02 1382.98 2944.87 1383.27 2944.1 1383.86C2943.33 1384.44 2942.94 1385.22 2942.94 1386.18C2942.94 1387.22 2943.23 1388.02 2943.82 1388.58C2944.43 1389.11 2945.34 1389.38 2946.54 1389.38ZM2967.93 1392.38C2965.93 1392.38 2964.33 1391.79 2963.13 1390.62C2961.93 1389.44 2961.33 1387.9 2961.33 1385.98V1374.78H2958.33V1372.38L2963.53 1367.18H2965.33V1371.98H2970.33V1374.78H2965.33V1385.98C2965.33 1387.15 2965.6 1388.04 2966.13 1388.66C2966.66 1389.27 2967.4 1389.58 2968.33 1389.58C2969.13 1389.58 2969.92 1389.31 2970.69 1388.78C2971.04 1388.54 2971.38 1388.27 2971.73 1387.98H2972.13L2973.53 1390.38C2972.94 1390.83 2972.41 1391.16 2971.93 1391.38C2970.65 1392.04 2969.32 1392.38 2967.93 1392.38ZM2984.35 1392.38C2981.57 1392.38 2979.41 1391.5 2977.87 1389.74C2976.32 1387.98 2975.55 1385.39 2975.55 1381.98C2975.55 1378.59 2976.29 1376.02 2977.79 1374.26C2979.28 1372.47 2981.27 1371.58 2983.75 1371.58C2986.23 1371.58 2988.21 1372.47 2989.71 1374.26C2991.2 1376.02 2991.95 1378.59 2991.95 1381.98V1382.58L2991.15 1383.38H2979.55C2979.55 1385.43 2980 1386.98 2980.91 1388.02C2981.81 1389.06 2983.09 1389.58 2984.75 1389.58C2985.73 1389.58 2986.76 1389.28 2987.83 1388.7C2988.39 1388.38 2988.83 1388.07 2989.15 1387.78H2989.55L2990.95 1390.18C2990.47 1390.58 2989.87 1390.95 2989.15 1391.3C2987.76 1392.02 2986.16 1392.38 2984.35 1392.38ZM2987.95 1380.58C2987.95 1378.47 2987.56 1376.91 2986.79 1375.9C2986.04 1374.88 2985.03 1374.38 2983.75 1374.38C2982.47 1374.38 2981.44 1374.88 2980.67 1375.9C2979.92 1376.91 2979.55 1378.47 2979.55 1380.58H2987.95ZM3008.34 1371.98H3011.14L3011.54 1374.38H3011.74C3012.01 1373.98 3012.46 1373.51 3013.1 1372.98C3014.36 1372.04 3015.77 1371.58 3017.34 1371.58C3018.04 1371.58 3018.65 1371.64 3019.18 1371.78L3019.94 1371.98L3019.34 1375.18H3018.94C3018.76 1375.15 3018.48 1375.08 3018.1 1374.98C3017.52 1374.84 3016.93 1374.78 3016.34 1374.78C3015.46 1374.78 3014.52 1375.18 3013.5 1375.98C3013.16 1376.27 3012.77 1376.67 3012.34 1377.18V1391.98H3008.34V1371.98ZM3030.55 1392.38C3027.86 1392.38 3025.75 1391.5 3024.23 1389.74C3022.71 1387.98 3021.95 1385.39 3021.95 1381.98C3021.95 1378.56 3022.71 1375.98 3024.23 1374.22C3025.75 1372.46 3027.86 1371.58 3030.55 1371.58C3033.22 1371.58 3035.31 1372.46 3036.83 1374.22C3038.38 1375.98 3039.15 1378.56 3039.15 1381.98C3039.15 1385.39 3038.38 1387.98 3036.83 1389.74C3035.31 1391.5 3033.22 1392.38 3030.55 1392.38ZM3030.55 1389.58C3031.94 1389.58 3033.05 1388.98 3033.87 1387.78C3034.73 1386.55 3035.15 1384.62 3035.15 1381.98C3035.15 1379.34 3034.73 1377.42 3033.87 1376.22C3033.05 1374.99 3031.94 1374.38 3030.55 1374.38C3029.17 1374.38 3028.05 1374.99 3027.19 1376.22C3026.37 1377.42 3025.95 1379.34 3025.95 1381.98C3025.95 1384.62 3026.37 1386.55 3027.19 1387.78C3028.05 1388.98 3029.17 1389.58 3030.55 1389.58ZM3051.76 1392.38C3049.07 1392.38 3046.96 1391.5 3045.44 1389.74C3043.92 1387.98 3043.16 1385.39 3043.16 1381.98C3043.16 1378.56 3043.92 1375.98 3045.44 1374.22C3046.96 1372.46 3049.07 1371.58 3051.76 1371.58C3054.43 1371.58 3056.52 1372.46 3058.04 1374.22C3059.59 1375.98 3060.36 1378.56 3060.36 1381.98C3060.36 1385.39 3059.59 1387.98 3058.04 1389.74C3056.52 1391.5 3054.43 1392.38 3051.76 1392.38ZM3051.76 1389.58C3053.15 1389.58 3054.26 1388.98 3055.08 1387.78C3055.94 1386.55 3056.36 1384.62 3056.36 1381.98C3056.36 1379.34 3055.94 1377.42 3055.08 1376.22C3054.26 1374.99 3053.15 1374.38 3051.76 1374.38C3050.38 1374.38 3049.26 1374.99 3048.4 1376.22C3047.58 1377.42 3047.16 1379.34 3047.16 1381.98C3047.16 1384.62 3047.58 1386.55 3048.4 1387.78C3049.26 1388.98 3050.38 1389.58 3051.76 1389.58ZM3065.37 1371.98H3068.17L3068.57 1374.38H3068.77C3069.15 1373.95 3069.63 1373.48 3070.21 1372.98C3071.47 1372.04 3072.79 1371.58 3074.17 1371.58C3075.72 1371.58 3077.07 1372.04 3078.21 1372.98C3078.75 1373.46 3079.13 1373.92 3079.37 1374.38C3079.75 1373.98 3080.29 1373.51 3081.01 1372.98C3082.51 1372.04 3083.96 1371.58 3085.37 1371.58C3086.57 1371.58 3087.65 1371.87 3088.61 1372.46C3089.6 1373.02 3090.37 1373.82 3090.93 1374.86C3091.49 1375.9 3091.77 1377.07 3091.77 1378.38V1391.98H3087.77V1378.38C3087.77 1377.28 3087.44 1376.38 3086.77 1375.66C3086.11 1374.94 3085.31 1374.58 3084.37 1374.58C3083.55 1374.58 3082.67 1374.91 3081.73 1375.58C3081.44 1375.76 3081.05 1376.1 3080.57 1376.58V1391.98H3076.57V1378.38C3076.57 1377.28 3076.24 1376.38 3075.57 1375.66C3074.91 1374.94 3074.11 1374.58 3073.17 1374.58C3072.32 1374.58 3071.44 1374.98 3070.53 1375.78C3070.19 1376.07 3069.8 1376.47 3069.37 1376.98V1391.98H3065.37V1371.98ZM3113.96 1386.98V1380.38H3107.36V1377.18H3113.96V1370.58H3117.16V1377.18H3123.76V1380.38H3117.16V1386.98H3113.96Z" fill="white"/>
<line x1="1644" y1="927.477" x2="2275" y2="927.477" stroke="black"/>
<line x1="1644" y1="997.477" x2="2275" y2="997.477" stroke="black"/>
<line x1="1644" y1="1249.48" x2="2275" y2="1249.48" stroke="black"/>
<line x1="1644" y1="1319.48" x2="2275" y2="1319.48" stroke="black"/>
<rect x="3212" y="574.977" width="700" height="418" transform="rotate(90 3212 574.977)" fill="#C4C4C4"/>
<line x1="1644" y1="626.477" x2="2275" y2="626.477" stroke="black"/>
<line x1="1644" y1="696.477" x2="2275" y2="696.477" stroke="black"/>
</g>
<rect x="1551" y="442.977" width="1661" height="73" rx="30" fill="#C4C4C4"/>
<g filter="url(#filter1_d_639_474)">
<rect x="474" y="600.977" width="1955" height="1261.53" fill="white"/>
<rect x="474" y="600.977" width="1955" height="133.978" fill="#35353F"/>
</g>
<rect x="624" y="1024.98" width="725" height="273" fill="#C4C4C4"/>
<mask id="path-21-inside-1_639_474" fill="white">
<rect x="1517" y="966.977" width="725" height="273" rx="5"/>
</mask>
<rect x="1517" y="966.977" width="725" height="273" rx="5" fill="#69E48E" stroke="#35353F" stroke-width="40" mask="url(#path-21-inside-1_639_474)"/>
<rect x="634" y="1473.98" width="705" height="253" fill="#69E48E" stroke="black" stroke-width="20"/>
<rect x="1554" y="1463.98" width="725" height="273" fill="#C4C4C4"/>
<rect x="618" y="805.977" width="1661" height="117" rx="30" fill="#E6E6E6"/>
<g filter="url(#filter2_d_639_474)">
<circle cx="2366.34" cy="1644.33" r="142" transform="rotate(17.3847 2366.34 1644.33)" fill="#FFF282" stroke="#936A00" stroke-width="15"/>
<circle cx="2451.32" cy="1636.21" r="16.5268" transform="rotate(17.3847 2451.32 1636.21)" fill="#936A00" stroke="#936A00" stroke-width="15"/>
<circle cx="2298.46" cy="1588.35" r="16.5268" transform="rotate(17.3847 2298.46 1588.35)" fill="#936A00" stroke="#936A00" stroke-width="15"/>
<rect x="2365.6" y="1647.64" width="55.4833" height="58.2403" transform="rotate(62.3847 2365.6 1647.64)" fill="#FFC940" stroke="#936A00" stroke-width="15"/>
</g>
<g filter="url(#filter3_d_639_474)">
<circle cx="2430.24" cy="1781.23" r="72.6012" transform="rotate(17.3847 2430.24 1781.23)" fill="#FFF282" stroke="#936A00" stroke-width="10"/>
<circle cx="2474.35" cy="1777.02" r="7.47162" transform="rotate(17.3847 2474.35 1777.02)" fill="#936A00" stroke="#936A00" stroke-width="10"/>
<circle cx="2395.01" cy="1752.18" r="7.47162" transform="rotate(17.3847 2395.01 1752.18)" fill="#936A00" stroke="#936A00" stroke-width="10"/>
<rect x="2429.39" y="1784.44" width="26.5859" height="28.0169" transform="rotate(62.3847 2429.39 1784.44)" fill="#FFC940" stroke="#936A00" stroke-width="10"/>
</g>
<g filter="url(#filter4_d_639_474)">
<path d="M2508.13 1641.1C2523.86 1646.31 2541.25 1637.69 2542.21 1621.15C2543.7 1595.44 2536.71 1568.89 2521.7 1544.63C2500.84 1510.94 2466.21 1484.43 2425.42 1470.92C2384.63 1457.41 2341.02 1458.01 2304.18 1472.58C2277.65 1483.08 2256.2 1500.22 2242.05 1521.73C2232.95 1535.57 2241.75 1552.87 2257.48 1558.08L2382.8 1599.59L2508.13 1641.1Z" fill="#FFC700"/>
<path d="M2515.32 1548.58C2529.6 1571.64 2536.11 1596.67 2534.72 1620.71C2534.4 1626.18 2531.47 1630.28 2527.07 1632.72C2522.53 1635.24 2516.44 1635.95 2510.49 1633.98L2385.16 1592.47L2259.84 1550.96C2253.89 1548.99 2249.42 1544.78 2247.29 1540.06C2245.21 1535.46 2245.31 1530.42 2248.32 1525.85C2261.55 1505.73 2281.72 1489.54 2306.94 1479.56C2342 1465.69 2383.79 1465.03 2423.06 1478.04C2462.34 1491.05 2495.47 1516.52 2515.32 1548.58Z" stroke="#936A00" stroke-width="15"/>
</g>
<path d="M2241 1523.42L2391.18 1563.78L2541.89 1623.03" stroke="#936A00" stroke-width="3"/>
<line x1="2381.23" y1="1462.48" x2="2349.42" y2="1553.48" stroke="#936A00" stroke-width="3"/>
<line x1="2349.41" y1="1462.5" x2="2317.41" y2="1548.5" stroke="#936A00" stroke-width="3"/>
<line x1="2467.42" y1="1491.48" x2="2436.6" y2="1580.48" stroke="#936A00" stroke-width="3"/>
<line x1="2478.42" y1="1499.47" x2="2449.42" y2="1585.47" stroke="#936A00" stroke-width="3"/>
<path d="M1337.79 933.433L1393.81 873.15C1398.33 868.285 1397.42 861.255 1391.77 857.309L1215.58 734.377C1179.68 709.329 1147.69 680.531 1120.38 648.677L1060.05 578.304C1057.44 575.265 1053.24 573.498 1048.8 573.577L941.778 575.476C931.181 575.664 924.983 585.617 930.795 593.114L1014.44 701.01C1045.32 740.844 1083.49 776.298 1127.51 806.047L1318.74 935.279C1324.6 939.244 1333.16 938.415 1337.79 933.433Z" fill="#898CAB" stroke="#35353F" stroke-width="15"/>
<path d="M1680.75 950.076C1687.88 967.166 1689.97 990.036 1685.24 1006.78C1682.87 1015.17 1679.06 1021.08 1674.46 1024.29C1670.6 1026.99 1665.3 1028.43 1657.26 1026.61L1562.05 953.146C1541.92 937.611 1514.09 931.548 1487.48 936.901C1440.88 946.279 1412.44 987.041 1425.07 1026.36L1425.89 1028.92C1430.74 1044 1441.06 1057.32 1455.38 1066.96L1559.37 1136.99C1555.93 1144.15 1551.14 1149.4 1545.5 1153.26C1538.71 1157.91 1530.27 1160.83 1520.55 1162.33C1500.9 1165.38 1477.3 1162.46 1455.52 1157.76C1413.07 1148.6 1375.71 1127.29 1349.8 1097.48C1323.89 1067.68 1311.04 1031.24 1313.39 994.377C1315.75 957.517 1333.16 922.488 1362.67 895.252C1392.18 868.014 1431.99 850.238 1475.34 844.987C1518.68 839.736 1562.86 847.341 1600.33 866.516C1637.8 885.689 1666.21 915.228 1680.75 950.076Z" fill="#F18142" stroke="#35353F" stroke-width="15"/>
<path d="M1142.5 461.862C1142.5 482.749 1139.58 493.488 1133.88 499.453C1128.28 505.312 1118.11 508.477 1097.67 508.477C1060.69 508.477 1030.5 477.975 1030.5 440.092C1030.5 419.205 1033.42 408.466 1039.12 402.502C1044.72 396.643 1054.89 393.477 1075.33 393.477C1112.31 393.477 1142.5 423.98 1142.5 461.862Z" fill="#9DF9FF" stroke="#35353F" stroke-width="15"/>
<ellipse cx="1115.5" cy="488.977" rx="9.5" ry="10" fill="white"/>
<path d="M897 363.977L836.873 501.978" stroke="#35353F" stroke-width="15"/>
<line x1="835.103" y1="493.481" x2="933.103" y2="584.481" stroke="#35353F" stroke-width="15"/>
<path d="M1465.18 466.293C1483.58 470.371 1521.92 472.096 1553.18 467.631C1568.92 465.381 1581.92 461.678 1589.64 456.595C1593.49 454.065 1595.24 451.694 1595.89 449.895C1596.28 448.796 1596.48 447.313 1595.73 445.011L1453.69 347.42C1431.29 332.03 1417.62 303.776 1418.26 274.171C1419.23 228.929 1452.65 195.445 1491.61 200.688L1494.91 201.133C1512.65 203.52 1529.26 213.458 1541.52 229.01L1589.9 290.395C1611.11 287.005 1630.13 288.394 1645.42 290.36C1649.46 290.88 1653.26 291.442 1656.74 291.965C1657.14 292.024 1657.52 292.082 1657.91 292.14C1660.95 292.598 1663.72 293.014 1666.26 293.349C1672.21 294.131 1676.01 294.319 1678.32 293.869C1678.55 293.823 1678.75 293.776 1678.9 293.731C1678.82 292.451 1678.3 289.545 1676.14 284.004C1670.92 270.627 1658.86 248.339 1637.8 211.737C1612.65 168.035 1585.77 134.736 1551.98 114.551C1518.08 94.2974 1479.95 88.0679 1444.08 96.8794C1408.21 105.69 1376.79 129.001 1355.18 162.85C1333.57 196.701 1323.08 239.019 1325.55 282.61C1328.02 326.203 1343.29 368.349 1368.76 401.854C1394.24 435.357 1428.32 458.119 1465.18 466.293Z" fill="#F18142" stroke="#35353F" stroke-width="15"/>
<mask id="path-47-inside-2_639_474" fill="white">
<rect x="2390.56" y="1434.98" width="87.3467" height="124.164" rx="5" transform="rotate(18.0942 2390.56 1434.98)"/>
</mask>
<rect x="2390.56" y="1434.98" width="87.3467" height="124.164" rx="5" transform="rotate(18.0942 2390.56 1434.98)" fill="#FFC700" stroke="#936A00" stroke-width="30" mask="url(#path-47-inside-2_639_474)"/>
<rect x="471.509" y="1642.84" width="134.19" height="31.3103" fill="#898CAB" stroke="#35353F" stroke-width="5"/>
<rect x="471.509" y="1706.38" width="134.19" height="31.3103" fill="#898CAB" stroke="#35353F" stroke-width="5"/>
<path d="M531.104 1709.94C531.104 1753.43 507.694 1793.37 468.733 1822.69C429.768 1852.01 375.598 1870.37 315.446 1870.37C255.295 1870.37 201.125 1852.01 162.16 1822.69C123.198 1793.37 99.7891 1753.43 99.7891 1709.94C99.7891 1666.44 123.198 1626.5 162.16 1597.18C201.125 1567.86 255.295 1549.5 315.446 1549.5C375.598 1549.5 429.768 1567.86 468.733 1597.18C507.694 1626.5 531.104 1666.44 531.104 1709.94Z" fill="#898CAB" stroke="#35353F" stroke-width="15"/>
<rect x="7.5" y="1770.39" width="617.405" height="115.112" rx="57.556" fill="#C4C4C4" stroke="#35353F" stroke-width="15"/>
<path d="M531.103 1645.94C531.103 1668.31 527.987 1680 521.715 1686.55C515.54 1693 504.423 1696.38 482.499 1696.38C442.529 1696.38 409.939 1663.47 409.939 1622.63C409.939 1600.27 413.056 1588.57 419.328 1582.02C425.503 1575.58 436.62 1572.19 458.544 1572.19C498.513 1572.19 531.103 1605.11 531.103 1645.94Z" fill="#9DF9FF" stroke="#35353F" stroke-width="15"/>
<ellipse cx="493.972" cy="1666.06" rx="9.83405" ry="10.5905" fill="white"/>
<circle cx="80.1851" cy="1827.94" r="32.2974" fill="#898CAB" stroke="#35353F" stroke-width="5"/>
<circle cx="158.858" cy="1827.94" r="32.2974" fill="#898CAB" stroke="#35353F" stroke-width="5"/>
<circle cx="237.53" cy="1827.94" r="32.2974" fill="#898CAB" stroke="#35353F" stroke-width="5"/>
<circle cx="316.203" cy="1827.94" r="32.2974" fill="#898CAB" stroke="#35353F" stroke-width="5"/>
<circle cx="394.875" cy="1827.94" r="32.2974" fill="#898CAB" stroke="#35353F" stroke-width="5"/>
<circle cx="473.547" cy="1827.94" r="32.2974" fill="#898CAB" stroke="#35353F" stroke-width="5"/>
<circle cx="552.22" cy="1827.94" r="32.2974" fill="#898CAB" stroke="#35353F" stroke-width="5"/>
<rect x="603.134" y="1624.69" width="40.3879" height="131.164" rx="17.5" fill="#F18142" stroke="black" stroke-width="5"/>
<path d="M622.531 1720.76L760.263 1734.99C768.42 1735.83 772.477 1745.31 767.457 1751.79C765.476 1754.35 762.423 1755.85 759.188 1755.85H620.724C611.009 1755.85 603.134 1747.97 603.134 1738.26C603.134 1727.83 612.157 1719.69 622.531 1720.76Z" fill="#F18142" stroke="black" stroke-width="5"/>
<circle cx="208.028" cy="1710.69" r="31.5409" fill="#FF6161" stroke="#35353F" stroke-width="5"/>
<circle cx="321.498" cy="1709.18" r="31.5409" fill="#96FF8D" stroke="#35353F" stroke-width="5"/>
<rect x="2968" y="630" width="54" height="68" fill="#F18142" stroke="#35353F" stroke-width="10"/>
<path d="M3227.5 876C3227.5 988.32 3127.64 1080.5 3003 1080.5C2878.36 1080.5 2778.5 988.32 2778.5 876C2778.5 763.68 2878.36 671.5 3003 671.5C3127.64 671.5 3227.5 763.68 3227.5 876Z" fill="#898CAB" stroke="#35353F" stroke-width="15"/>
<path d="M3283.06 600.658C3283.92 601.206 3284.5 601.656 3284.89 602C3284.5 602.344 3283.92 602.794 3283.06 603.342C3280.04 605.282 3275.08 607.431 3267.99 609.627C3253.92 613.987 3233.17 618.015 3207.09 621.434C3155.02 628.256 3082.86 632.5 3003 632.5C2923.14 632.5 2850.98 628.256 2798.91 621.434C2772.83 618.015 2752.08 613.987 2738.01 609.627C2730.92 607.431 2725.96 605.282 2722.94 603.342C2722.08 602.794 2721.5 602.344 2721.11 602C2721.5 601.656 2722.08 601.206 2722.94 600.658C2725.96 598.718 2730.92 596.569 2738.01 594.373C2752.08 590.013 2772.83 585.985 2798.91 582.566C2850.98 575.744 2923.14 571.5 3003 571.5C3082.86 571.5 3155.02 575.744 3207.09 582.566C3233.17 585.985 3253.92 590.013 3267.99 594.373C3275.08 596.569 3280.04 598.718 3283.06 600.658Z" fill="#D0FCFF" stroke="#35353F" stroke-width="15"/>
<path d="M3031.5 602C3031.5 602.235 3031.31 603.028 3029.55 604.202C3027.88 605.313 3025.31 606.411 3021.9 607.372C3015.12 609.284 3005.61 610.5 2995 610.5C2984.39 610.5 2974.88 609.284 2968.1 607.372C2964.69 606.411 2962.12 605.313 2960.45 604.202C2958.69 603.028 2958.5 602.235 2958.5 602C2958.5 601.765 2958.69 600.972 2960.45 599.798C2962.12 598.687 2964.69 597.589 2968.1 596.628C2974.88 594.716 2984.39 593.5 2995 593.5C3005.61 593.5 3015.12 594.716 3021.9 596.628C3025.31 597.589 3027.88 598.687 3029.55 599.798C3031.31 600.972 3031.5 601.765 3031.5 602Z" fill="#F18142" stroke="#35353F" stroke-width="5"/>
<path d="M2995.5 908C2995.5 941.716 2967.1 969.5 2931.5 969.5C2895.9 969.5 2867.5 941.716 2867.5 908C2867.5 874.284 2895.9 846.5 2931.5 846.5C2967.1 846.5 2995.5 874.284 2995.5 908Z" fill="#9DF9FF" stroke="#35353F" stroke-width="15"/>
<path d="M3174.5 839C3174.5 862.198 3154.86 881.5 3130 881.5C3105.14 881.5 3085.5 862.198 3085.5 839C3085.5 815.802 3105.14 796.5 3130 796.5C3154.86 796.5 3174.5 815.802 3174.5 839Z" fill="#9DF9FF" stroke="#35353F" stroke-width="15"/>
<path d="M2813.7 823.08C2798.8 826.308 2791.41 825.69 2787.01 822.994C2782.73 820.374 2779.04 814.376 2775.88 799.836C2770.4 774.553 2786.78 749.335 2812.76 743.703C2827.66 740.475 2835.05 741.093 2839.45 743.789C2843.73 746.409 2847.43 752.407 2850.58 766.947C2856.06 792.23 2839.68 817.448 2813.7 823.08Z" fill="#9DF9FF" stroke="#35353F" stroke-width="15"/>
<ellipse cx="2810" cy="805.5" rx="10" ry="8.5" fill="white"/>
<ellipse cx="2810" cy="805.5" rx="10" ry="8.5" fill="white"/>
<ellipse cx="3113" cy="855.5" rx="10" ry="8.5" fill="white"/>
<ellipse cx="3113" cy="855.5" rx="10" ry="8.5" fill="white"/>
<ellipse cx="2893" cy="919.5" rx="10" ry="8.5" fill="white"/>
<ellipse cx="2893" cy="919.5" rx="10" ry="8.5" fill="white"/>
<path d="M2820 997.064L2844.82 1000.16C2972.94 1016.17 3102.95 994.351 3218.83 937.399V937.399" stroke="#35353F" stroke-width="15"/>
<path d="M2780 908L2797.05 921.317C2888.16 992.469 2995.9 1039.21 3110.1 1057.13V1057.13" stroke="#35353F" stroke-width="15"/>
<line x1="2944.5" y1="1001" x2="2944.5" y2="1307" stroke="#35353F" stroke-width="15"/>
<path d="M3004.41 1307.46C3006.79 1313.06 3008.26 1318.98 3008.78 1325H2948.5L2888.22 1325C2888.74 1318.98 2890.21 1313.06 2892.59 1307.46C2895.62 1300.31 2900.07 1293.81 2905.68 1288.32C2911.29 1282.84 2917.96 1278.48 2925.31 1275.51C2932.66 1272.53 2940.54 1271 2948.5 1271C2956.46 1271 2964.34 1272.53 2971.69 1275.51C2979.04 1278.48 2985.71 1282.84 2991.32 1288.32C2996.93 1293.81 3001.38 1300.31 3004.41 1307.46Z" fill="#F18142" stroke="#35353F" stroke-width="10"/>
<line x1="975.876" y1="649.128" x2="1092.88" y2="622.128" stroke="#35353F" stroke-width="10"/>
<line x1="950.304" y1="613.049" x2="1071.3" y2="596.049" stroke="#35353F" stroke-width="10"/>
<line x1="1006.34" y1="687.283" x2="1114.34" y2="649.283" stroke="#35353F" stroke-width="10"/>
<line x1="1271.46" y1="897.464" x2="1345.46" y2="823.464" stroke="#35353F" stroke-width="10"/>
<line x1="1042.89" y1="730.469" x2="1147.89" y2="681.469" stroke="#35353F" stroke-width="10"/>
<line x1="1084.03" y1="777.98" x2="1177.33" y2="708.98" stroke="#35353F" stroke-width="10"/>
<line x1="1140.46" y1="814.464" x2="1220.46" y2="734.464" stroke="#35353F" stroke-width="10"/>
<line x1="1187.42" y1="844.51" x2="1264.42" y2="765.51" stroke="#35353F" stroke-width="10"/>
<line x1="1227.46" y1="871.464" x2="1301.46" y2="797.464" stroke="#35353F" stroke-width="10"/>
<line x1="1285.96" y1="200.342" x2="1300.96" y2="313.342" stroke="#35353F" stroke-width="10"/>
<line x1="1237.82" y1="230.657" x2="1266.82" y2="334.657" stroke="#35353F" stroke-width="10"/>
<line x1="1188.51" y1="259.835" x2="1237.51" y2="361.835" stroke="#35353F" stroke-width="10"/>
<line x1="1153.82" y1="309.775" x2="1218.82" y2="386.775" stroke="#35353F" stroke-width="10"/>
<line x1="1119.33" y1="348.274" x2="1195.33" y2="416.274" stroke="#35353F" stroke-width="10"/>
<line x1="1165.63" y1="450.697" x2="1098.63" y2="389.697" stroke="#35353F" stroke-width="10"/>
<defs>
<filter id="filter0_d_639_474" x="1441" y="286.977" width="1832" height="1185" filterUnits="userSpaceOnUse" color-interpolation-filters="sRGB">
<feFlood flood-opacity="0" result="BackgroundImageFix"/>
<feColorMatrix in="SourceAlpha" type="matrix" values="0 0 0 0 0 0 0 0 0 0 0 0 0 0 0 0 0 0 127 0" result="hardAlpha"/>
<feOffset dy="4"/>
<feGaussianBlur stdDeviation="2"/>
<feComposite in2="hardAlpha" operator="out"/>
<feColorMatrix type="matrix" values="0 0 0 0 0 0 0 0 0 0 0 0 0 0 0 0 0 0 0.25 0"/>
<feBlend mode="normal" in2="BackgroundImageFix" result="effect1_dropShadow_639_474"/>
<feBlend mode="normal" in="SourceGraphic" in2="effect1_dropShadow_639_474" result="shape"/>
</filter>
<filter id="filter1_d_639_474" x="470" y="600.977" width="1963" height="1269.53" filterUnits="userSpaceOnUse" color-interpolation-filters="sRGB">
<feFlood flood-opacity="0" result="BackgroundImageFix"/>
<feColorMatrix in="SourceAlpha" type="matrix" values="0 0 0 0 0 0 0 0 0 0 0 0 0 0 0 0 0 0 127 0" result="hardAlpha"/>
<feOffset dy="4"/>
<feGaussianBlur stdDeviation="2"/>
<feComposite in2="hardAlpha" operator="out"/>
<feColorMatrix type="matrix" values="0 0 0 0 0 0 0 0 0 0 0 0 0 0 0 0 0 0 0.25 0"/>
<feBlend mode="normal" in2="BackgroundImageFix" result="effect1_dropShadow_639_474"/>
<feBlend mode="normal" in="SourceGraphic" in2="effect1_dropShadow_639_474" result="shape"/>
</filter>
<filter id="filter2_d_639_474" x="2212.8" y="1494.79" width="307.079" height="307.08" filterUnits="userSpaceOnUse" color-interpolation-filters="sRGB">
<feFlood flood-opacity="0" result="BackgroundImageFix"/>
<feColorMatrix in="SourceAlpha" type="matrix" values="0 0 0 0 0 0 0 0 0 0 0 0 0 0 0 0 0 0 127 0" result="hardAlpha"/>
<feOffset dy="4"/>
<feGaussianBlur stdDeviation="2"/>
<feComposite in2="hardAlpha" operator="out"/>
<feColorMatrix type="matrix" values="0 0 0 0 0 0 0 0 0 0 0 0 0 0 0 0 0 0 0.25 0"/>
<feBlend mode="normal" in2="BackgroundImageFix" result="effect1_dropShadow_639_474"/>
<feBlend mode="normal" in="SourceGraphic" in2="effect1_dropShadow_639_474" result="shape"/>
</filter>
<filter id="filter3_d_639_474" x="2348.62" y="1703.61" width="163.244" height="163.244" filterUnits="userSpaceOnUse" color-interpolation-filters="sRGB">
<feFlood flood-opacity="0" result="BackgroundImageFix"/>
<feColorMatrix in="SourceAlpha" type="matrix" values="0 0 0 0 0 0 0 0 0 0 0 0 0 0 0 0 0 0 127 0" result="hardAlpha"/>
<feOffset dy="4"/>
<feGaussianBlur stdDeviation="2"/>
<feComposite in2="hardAlpha" operator="out"/>
<feColorMatrix type="matrix" values="0 0 0 0 0 0 0 0 0 0 0 0 0 0 0 0 0 0 0.25 0"/>
<feBlend mode="normal" in2="BackgroundImageFix" result="effect1_dropShadow_639_474"/>
<feBlend mode="normal" in="SourceGraphic" in2="effect1_dropShadow_639_474" result="shape"/>
</filter>
<filter id="filter4_d_639_474" x="2234.37" y="1461.2" width="312.03" height="189.412" filterUnits="userSpaceOnUse" color-interpolation-filters="sRGB">
<feFlood flood-opacity="0" result="BackgroundImageFix"/>
<feColorMatrix in="SourceAlpha" type="matrix" values="0 0 0 0 0 0 0 0 0 0 0 0 0 0 0 0 0 0 127 0" result="hardAlpha"/>
<feOffset dy="4"/>
<feGaussianBlur stdDeviation="2"/>
<feComposite in2="hardAlpha" operator="out"/>
<feColorMatrix type="matrix" values="0 0 0 0 0 0 0 0 0 0 0 0 0 0 0 0 0 0 0.25 0"/>
<feBlend mode="normal" in2="BackgroundImageFix" result="effect1_dropShadow_639_474"/>
<feBlend mode="normal" in="SourceGraphic" in2="effect1_dropShadow_639_474" result="shape"/>
</filter>
</defs>
</svg>
