<svg width="792" height="847" viewBox="0 0 792 847" fill="none" xmlns="http://www.w3.org/2000/svg">
<path d="M94.0856 564.255C73.883 565.663 64.6236 539.599 81.1864 527.946L249.612 409.443L294.59 624.766L238.393 590.771C203.113 569.43 162.1 559.514 120.968 562.381L94.0856 564.255Z" fill="#F85858" stroke="black" stroke-width="15"/>
<path d="M413.786 759.974C419.822 779.305 447.468 778.453 452.3 758.786L501.44 558.797L284.503 595.203L336.607 635.19C369.317 660.293 393.469 694.892 405.756 734.251L413.786 759.974Z" fill="#F85858" stroke="black" stroke-width="15"/>
<path d="M538.817 546.67C456.486 657.509 312.718 688.559 226.718 670.559C188.218 605.059 177.926 450.595 260.257 339.757C342.588 228.918 540.759 134.877 652.718 104.059C653.674 224.356 621.148 435.831 538.817 546.67Z" fill="#898CAB" stroke="black" stroke-width="15"/>
<path d="M380.718 237.559V237.559C437.096 309.068 511.415 364.362 596.109 397.814L602.794 400.454" stroke="black" stroke-width="15"/>
<circle cx="413.585" cy="430.426" r="60.0748" transform="rotate(12.7693 413.585 430.426)" fill="#8AD3EA" stroke="black" stroke-width="15"/>
<circle cx="317.93" cy="549.507" r="45.5" transform="rotate(12.7693 317.93 549.507)" fill="#8AD3EA" stroke="black" stroke-width="15"/>
<path d="M642.717 117.559L641.718 152.059L638.718 187.559L637.218 204.559L635.218 222.059L630.717 256.559L624.718 292.059L617.718 326.059L609.718 361.059L599.717 394.559L586.717 388.559L569.217 381.059L535.217 363.559L503.717 344.559L473.717 323.059L448.717 303.059L426.717 282.059L407.218 261.059L387.718 238.559L446.718 202.059L508.717 169.059L575.718 140.559L609.718 128.059L626.218 122.559L642.717 117.559Z" fill="#F85858"/>
<path d="M616.783 296.797C610.234 328.717 598.403 398.395 587.221 384.63C583.434 383.853 598.237 328.436 604.786 296.516C615.166 263.019 634.549 122.977 638.337 123.754C642.124 124.531 628.368 250.555 616.783 296.797Z" fill="#FE9F9F"/>
</svg>
