<svg width="1135" height="756" viewBox="0 0 1135 756" fill="none" xmlns="http://www.w3.org/2000/svg">
<line x1="572.5" y1="51" x2="572.5" y2="166.109" stroke="#114C60" stroke-width="15"/>
<circle cx="570" cy="164" r="59.5" fill="#E68CB7" stroke="#114C60" stroke-width="15"/>
<path d="M906.833 305.85L879.46 293.348C873.333 290.55 866.091 293.11 863.083 299.136L832.847 359.715C806.897 411.706 772.211 458.854 730.301 499.104L702.685 525.626C696.817 531.262 697.811 540.912 704.704 545.233L740.96 567.959C746.063 571.157 752.721 570.263 756.798 565.83L789.292 530.508C822.223 494.71 849.67 454.23 870.738 410.388L912.907 322.634C915.939 316.325 913.2 308.757 906.833 305.85Z" fill="#898CAB" stroke="#114C60" stroke-width="15"/>
<path d="M879.465 109.924C889.622 103.406 904.235 98.768 915.565 98.7945C921.26 98.8079 925.082 99.9952 927.204 101.6C928.652 102.696 929.933 104.428 929.974 107.993L893.953 172.599C885.563 187.646 885.17 205.872 892.904 221.266C906.081 247.496 938.342 257.628 964.149 243.642L966.29 242.482C976.455 236.973 984.599 228.367 989.538 217.913L1021.63 150.003C1025.56 150.879 1028.7 152.433 1031.26 154.408C1034.86 157.189 1037.7 161.11 1039.87 166.065C1044.3 176.175 1045.51 189.545 1045.27 202.551C1044.81 227.458 1035.72 251.434 1019.56 270.394C1003.41 289.354 981.172 302.124 956.653 306.529C932.134 310.935 906.846 306.702 885.098 294.552C863.35 282.403 846.487 263.088 837.384 239.9C828.28 216.711 827.498 191.084 835.171 167.383C842.844 143.683 858.498 123.376 879.465 109.924Z" fill="#F18142" stroke="#114C60" stroke-width="15"/>
<path d="M227.35 300.85L254.724 288.348C260.851 285.55 268.093 288.11 271.101 294.136L301.337 354.715C327.287 406.706 361.973 453.854 403.882 494.104L431.499 520.626C437.367 526.262 436.373 535.912 429.479 540.233L393.224 562.959C388.121 566.157 381.463 565.263 377.385 560.83L344.892 525.508C311.96 489.71 284.514 449.23 263.446 405.388L221.276 317.634C218.245 311.325 220.984 303.757 227.35 300.85Z" fill="#898CAB" stroke="#114C60" stroke-width="15"/>
<path d="M254.718 104.924C244.561 98.4063 229.948 93.768 218.619 93.7945C212.923 93.8079 209.101 94.9952 206.979 96.6004C205.531 97.6964 204.25 99.4277 204.209 102.993L240.23 167.599C248.62 182.646 249.013 200.872 241.279 216.266C228.102 242.496 195.841 252.628 170.034 238.642L167.893 237.482C157.728 231.973 149.584 223.367 144.645 212.913L112.554 145.003C108.618 145.879 105.482 147.433 102.926 149.408C99.3263 152.189 96.4856 156.11 94.3125 161.065C89.8785 171.175 88.6706 184.545 88.9124 197.551C89.3754 222.458 98.4603 246.434 114.619 265.394C130.778 284.354 153.011 297.124 177.53 301.529C202.049 305.935 227.337 301.702 249.085 289.552C270.833 277.403 287.696 258.088 296.8 234.9C305.903 211.711 306.685 186.084 299.012 162.383C291.339 138.683 275.685 118.376 254.718 104.924Z" fill="#F18142" stroke="#114C60" stroke-width="15"/>
<rect x="350.5" y="142.5" width="439" height="321" rx="12.5" fill="#898CAB" stroke="#114C60" stroke-width="15"/>
<rect x="389.5" y="171.5" width="361" height="263" rx="12.5" fill="#114C60" stroke="#114C60" stroke-width="15"/>
<rect x="399.5" y="471.5" width="340" height="277" rx="12.5" fill="#898CAB" stroke="#114C60" stroke-width="15"/>
<mask id="path-10-inside-1_613_49" fill="white">
<path d="M597 27.5C597 42.6878 584.688 55 569.5 55C554.312 55 542 42.6878 542 27.5C542 12.3122 554.312 0 569.5 0C584.688 0 597 12.3122 597 27.5Z"/>
</mask>
<path d="M597 27.5C597 42.6878 584.688 55 569.5 55C554.312 55 542 42.6878 542 27.5C542 12.3122 554.312 0 569.5 0C584.688 0 597 12.3122 597 27.5Z" fill="#F45858"/>
<path d="M582 27.5C582 34.4036 576.404 40 569.5 40V70C592.972 70 612 50.9721 612 27.5H582ZM569.5 40C562.596 40 557 34.4036 557 27.5H527C527 50.9721 546.028 70 569.5 70V40ZM557 27.5C557 20.5964 562.596 15 569.5 15V-15C546.028 -15 527 4.0279 527 27.5H557ZM569.5 15C576.404 15 582 20.5964 582 27.5H612C612 4.0279 592.972 -15 569.5 -15V15Z" fill="#114C60" mask="url(#path-10-inside-1_613_49)"/>
<ellipse cx="574.865" cy="30.0925" rx="4.5" ry="5.5" transform="rotate(35.7174 574.865 30.0925)" fill="white"/>
<ellipse cx="447.5" cy="292.5" rx="17.5" ry="59.5" fill="#39CDED"/>
<ellipse cx="689.5" cy="292.5" rx="17.5" ry="59.5" fill="#39CDED"/>
<line x1="606.452" y1="375.059" x2="563.697" y2="332.303" stroke="#39CDED" stroke-width="15"/>
<line x1="526.697" y1="372.696" x2="569.452" y2="329.941" stroke="#39CDED" stroke-width="15"/>
<path d="M794.5 332.664V244.682L802.702 253.252C810.274 261.162 814.5 271.689 814.5 282.639V294.277C814.5 304.882 810.535 315.104 803.384 322.936L794.5 332.664Z" fill="#E58CB7" stroke="#114C60" stroke-width="15"/>
<path d="M345.5 259.336L345.5 347.318L337.298 338.748C329.726 330.838 325.5 320.311 325.5 309.361L325.5 297.723C325.5 287.118 329.465 276.896 336.616 269.064L345.5 259.336Z" fill="#E58CB7" stroke="#114C60" stroke-width="15"/>
<circle cx="501" cy="574" r="28.5" fill="#39CDED" stroke="#114C60" stroke-width="15"/>
<line x1="503.5" y1="471" x2="503.5" y2="543" stroke="#114C60" stroke-width="15"/>
<line x1="520.601" y1="597.012" x2="577.601" y2="661.012" stroke="#114C60" stroke-width="15"/>
<line x1="576.5" y1="658" x2="576.5" y2="748" stroke="#114C60" stroke-width="15"/>
<ellipse cx="576.5" cy="658" rx="13.5" ry="12" fill="#114C60"/>
</svg>
