<svg width="1734" height="1678" viewBox="0 0 1734 1678" fill="none" xmlns="http://www.w3.org/2000/svg">
<line x1="521.336" y1="552.275" x2="789.336" y2="792.275" stroke="black" stroke-width="10"/>
<line x1="412" y1="664" x2="689" y2="664" stroke="black" stroke-width="10"/>
<line x1="524" y1="461" x2="524" y2="556" stroke="black" stroke-width="10"/>
<line x1="974.536" y1="1202.46" x2="1081.54" y2="1309.46" stroke="black" stroke-width="10"/>
<line x1="1080" y1="1305" x2="1080" y2="1420" stroke="black" stroke-width="10"/>
<circle cx="1080.5" cy="1429.5" r="29.5" fill="#33D1B7" stroke="black" stroke-width="10"/>
<line x1="884.536" y1="1291.46" x2="991.536" y2="1398.46" stroke="black" stroke-width="10"/>
<line x1="990" y1="1394" x2="990" y2="1626" stroke="black" stroke-width="10"/>
<circle cx="990.5" cy="1643.5" r="29.5" fill="#69E48E" stroke="black" stroke-width="10"/>
<path d="M789.001 1170L789.001 1579" stroke="black" stroke-width="10"/>
<circle r="29.5" transform="matrix(-1 0 0 1 788.5 1556.5)" fill="#33D1B7" stroke="black" stroke-width="10"/>
<path d="M883 1351L883 1493" stroke="black" stroke-width="10"/>
<line x1="431.336" y1="545.275" x2="699.336" y2="785.275" stroke="black" stroke-width="10"/>
<line x1="602.991" y1="652.186" x2="804.991" y2="825.186" stroke="black" stroke-width="10"/>
<line x1="1235" y1="702.794" x2="1439.82" y2="702.794" stroke="black" stroke-width="10"/>
<line x1="1436.28" y1="704.259" x2="1533.05" y2="607.494" stroke="black" stroke-width="10"/>
<circle cx="1536.18" cy="609.82" r="22.8199" fill="#69E48E" stroke="black" stroke-width="10"/>
<circle cx="522.82" cy="440.82" r="22.8199" fill="#69E48E" stroke="black" stroke-width="10"/>
<line x1="1203" y1="765" x2="1461" y2="765" stroke="black" stroke-width="10"/>
<circle cx="1471.5" cy="769.5" r="29.5" fill="#33D1B7" stroke="black" stroke-width="10"/>
<line x1="1250" y1="813" x2="1343" y2="813" stroke="black" stroke-width="10"/>
<line y1="-5" x2="52.4023" y2="-5" transform="matrix(0.66791 0.744242 -0.66791 0.744242 1336 816)" stroke="black" stroke-width="10"/>
<circle cx="1380.5" cy="856.5" r="24.5" fill="#86FFCC" stroke="black" stroke-width="10"/>
<circle cx="423.5" cy="537.5" r="24.5" fill="#86FFCC" stroke="black" stroke-width="10"/>
<rect x="437" y="994" width="100" height="100" fill="#86FFCC"/>
<rect x="370" y="1025" width="125" height="125" fill="#69E48E"/>
<path d="M709.572 1356.76C715.247 1361.29 720.986 1365.88 726.849 1370.48C720.682 1375.28 714.641 1380.09 708.659 1384.85C655.373 1427.24 606.658 1466 512.935 1466C459.162 1466 421.872 1454.7 389.101 1436.8C364.484 1423.35 342.48 1406.26 317.762 1387.06C310.821 1381.67 303.666 1376.11 296.179 1370.42C300.648 1366.88 305.034 1363.37 309.361 1359.92C367.954 1313.11 415.651 1275 512.935 1275C607.314 1275 655.514 1313.54 709.572 1356.76Z" fill="white" stroke="black" stroke-width="10"/>
<circle cx="512" cy="1371" r="74" fill="#69E48E" stroke="black" stroke-width="8"/>
<circle cx="520.5" cy="1383.5" r="43.5" fill="#86FFCC"/>
<circle cx="497.5" cy="1346.5" r="12.5" fill="white"/>
<circle cx="476.5" cy="1392.5" r="8.5" fill="white"/>
<path d="M1405.53 611.508C1406.31 612.325 1407.61 612.338 1408.4 611.537L1565.13 453.392C1627.69 390.267 1582.98 283 1494.1 283H1486.16C1477.53 283 1469.05 285.231 1461.55 289.476L1406.95 320.345L1349.68 289.097C1342.34 285.096 1334.12 283 1325.77 283V283C1238.02 283 1192.96 388.07 1253.44 451.642L1405.53 611.508Z" fill="#33D1B7"/>
<path d="M1332.48 622.517C1333.25 623.33 1334.55 623.343 1335.34 622.546L1417.86 539.621C1453.41 503.888 1428.1 443 1377.69 443V443C1372.83 443 1368.04 444.255 1363.79 446.645L1333.89 463.483L1302.32 446.327C1298.3 444.144 1293.8 443 1289.23 443V443C1240.97 443 1216.24 500.829 1249.57 535.724L1332.48 622.517Z" fill="#69E48E"/>
<rect x="596" y="161" width="199" height="300" fill="#E4AB69"/>
<rect x="919" y="161" width="199" height="300" fill="#E4AB69"/>
<rect x="678" y="161" width="440" height="140" fill="#E4AB69"/>
<path d="M861.5 0L1118 161H596L861.5 0Z" fill="#F2564C"/>
<path d="M1452.47 1228.18C1481.07 1218.23 1510.55 1201.74 1526.34 1175.9C1542.13 1150.06 1548.47 1119.55 1544.29 1089.56C1540.1 1059.57 1525.64 1031.95 1503.38 1011.42C1481.12 990.897 1452.43 978.722 1422.2 976.977C1391.96 975.231 1362.06 984.023 1337.58 1001.85C1313.11 1019.68 1295.57 1045.45 1287.96 1074.76C1280.35 1104.07 1283.14 1135.11 1295.85 1162.6C1308.56 1190.08 1330.41 1212.31 1357.67 1225.49" stroke="#114C60" stroke-width="50"/>
<rect x="1180" y="1155" width="467" height="404" rx="50" fill="#FAE266"/>
<circle cx="1413.5" cy="1294.5" r="77.5" fill="#114C60"/>
<path d="M1414 1280L1514.46 1454L1419 1524.5L1313.54 1454L1414 1280Z" fill="#114C60"/>
<path d="M1203 944C1203 1092.84 1065.94 1213.5 905.5 1213.5C745.061 1213.5 615 1092.84 615 943.998C615 795.157 745.061 843.998 905.5 843.998C1065.94 843.998 1203 795.159 1203 944Z" fill="white"/>
<ellipse cx="917" cy="828.5" rx="344" ry="251.5" fill="white"/>
<line y1="-25" x2="414.837" y2="-25" transform="matrix(0.930416 -0.366505 0.193953 0.981011 532 702.04)" stroke="white" stroke-width="50"/>
<line y1="-25" x2="414.837" y2="-25" transform="matrix(-0.930416 -0.366505 -0.193953 0.981011 1284 702.04)" stroke="white" stroke-width="50"/>
<path d="M891 1425.56L1027.86 1269.54C1113.57 1171.84 1182.07 1048.69 1228.96 908.017L1309.63 666" stroke="white" stroke-width="50"/>
<path d="M921.418 1425.46L784.561 1269.45C698.853 1171.74 630.349 1048.59 583.46 907.922L502.79 665.905" stroke="white" stroke-width="50"/>
<line x1="759.611" y1="904.916" x2="857.611" y2="998.916" stroke="#69E48E" stroke-width="100"/>
<line x1="830.645" y1="1044.64" x2="1083.64" y2="791.645" stroke="#69E48E" stroke-width="100"/>
<path d="M909 1411L1113.38 1135.75H704.618L909 1411Z" fill="white"/>
<path d="M897.5 519L997.526 599.25H797.474L897.5 519Z" fill="white"/>
<path d="M510.767 685.249L699.638 631.683L578.798 869.405L510.767 685.249Z" fill="white"/>
<path d="M1296.71 672.843L1250.66 808.11L1157.16 642.105L1296.71 672.843Z" fill="white"/>
<line x1="759.611" y1="904.916" x2="857.611" y2="998.916" stroke="#69E48E" stroke-width="100"/>
<line x1="830.645" y1="1044.64" x2="1083.64" y2="791.645" stroke="#69E48E" stroke-width="100"/>
<ellipse cx="185" cy="550" rx="185" ry="189" fill="white"/>
<line x1="182" y1="440" x2="182" y2="660.138" stroke="#F34991" stroke-width="80"/>
<line x1="74.9307" y1="550.987" x2="295.069" y2="550.987" stroke="#F34991" stroke-width="80"/>
<path d="M589.491 772.691V772.691C552.473 707.541 458.171 708.011 420.338 772.691V772.691" stroke="#69E48E" stroke-width="40"/>
<path d="M414.226 788.062V788.062C376.805 852.969 424.309 934.039 499.231 933.948V933.948" stroke="#33D1B7" stroke-width="40"/>
<path d="M515.574 936.426V936.426C590.401 932.457 632.158 847.902 591.23 785.135V785.135" stroke="#86FFCC" stroke-width="40"/>
<rect x="314" y="1063" width="150" height="150" fill="#33D1B7"/>
<path d="M223.999 773.212L328.605 954.394H119.394L223.999 773.212Z" fill="#33D1B7"/>
<path d="M224 1014.79L119.394 833.606L328.606 833.606L224 1014.79Z" fill="#69E48E"/>
<path d="M163.606 998.606L163.606 789.394L344.789 894L163.606 998.606Z" fill="#86FFCC"/>
<path d="M103.211 894L284.393 789.394L284.394 998.606L103.211 894Z" fill="#86FFCC"/>
<circle cx="882.5" cy="1498.5" r="29.5" fill="#86FFCC" stroke="black" stroke-width="10"/>
<line x1="522.182" y1="262" x2="522.182" y2="343" stroke="#F2F3A2" stroke-width="10"/>
<line x1="484.85" y1="277.42" x2="555.961" y2="326.757" stroke="#F2F3A2" stroke-width="10"/>
<line x1="556.293" y1="276.873" x2="488.538" y2="330.727" stroke="#F2F3A2" stroke-width="10"/>
<line x1="522.182" y1="262" x2="522.182" y2="343" stroke="#F2F3A2" stroke-width="10"/>
<line x1="484.85" y1="277.42" x2="555.961" y2="326.757" stroke="#F2F3A2" stroke-width="10"/>
<line x1="556.293" y1="276.873" x2="488.538" y2="330.727" stroke="#F2F3A2" stroke-width="10"/>
<line x1="416.957" y1="223" x2="416.957" y2="338.118" stroke="#F4C1E6" stroke-width="10"/>
<line x1="364.85" y1="246.788" x2="465.749" y2="316.792" stroke="#F4C1E6" stroke-width="10"/>
<line x1="466.111" y1="242.651" x2="369.974" y2="319.064" stroke="#F4C1E6" stroke-width="10"/>
<line x1="416.957" y1="223" x2="416.957" y2="338.118" stroke="#F4C1E6" stroke-width="10"/>
<line x1="364.85" y1="246.788" x2="465.749" y2="316.792" stroke="#F4C1E6" stroke-width="10"/>
<line x1="466.111" y1="242.651" x2="369.974" y2="319.064" stroke="#F4C1E6" stroke-width="10"/>
<line x1="288" y1="199" x2="288" y2="334" stroke="#5EEBFF" stroke-width="10"/>
<line x1="226.85" y1="227.125" x2="345.731" y2="309.605" stroke="#5EEBFF" stroke-width="10"/>
<line x1="346.111" y1="220.822" x2="232.841" y2="310.852" stroke="#5EEBFF" stroke-width="10"/>
<circle cx="393.82" cy="665.82" r="22.8199" fill="#33D1B7" stroke="black" stroke-width="10"/>
</svg>
