<svg width="341" height="356" viewBox="0 0 341 356" fill="none" xmlns="http://www.w3.org/2000/svg">
<circle cx="163.289" cy="163.289" r="100.5" transform="rotate(-43.5436 163.289 163.289)" stroke="#8BD298" stroke-width="30"/>
<path d="M208.861 248.275L238.806 219.815L326.555 312.144C334.414 320.412 334.082 333.487 325.813 341.345V341.345C317.544 349.204 304.47 348.872 296.611 340.603L208.861 248.275Z" fill="#8BD298"/>
<circle cx="151.361" cy="231.315" r="11.5" fill="#8BD298"/>
<path d="M91.6442 190.304C89.5242 185.37 91.0966 179.625 95.434 176.459V176.459C101.243 172.219 109.474 174.282 112.595 180.762L119.708 195.528C120.908 198.02 122.625 200.229 124.744 202.009L134.709 210.374C141.437 216.023 139.749 226.8 131.616 230.121V230.121C127.643 231.743 123.101 231.055 119.787 228.329L107.701 218.386C103.645 215.05 100.448 210.792 98.3746 205.967L91.6442 190.304Z" fill="#8BD298"/>
</svg>
