<svg width="341" height="356" viewBox="0 0 341 356" fill="none" xmlns="http://www.w3.org/2000/svg">
<circle cx="163.428" cy="163.474" r="100.5" transform="rotate(-43.5436 163.428 163.474)" stroke="#65E291" stroke-width="30"/>
<path d="M209 248.459L238.944 220L326.694 312.328C334.553 320.597 334.22 333.671 325.952 341.53V341.53C317.683 349.389 304.609 349.057 296.75 340.788L209 248.459Z" fill="#65E291"/>
<circle cx="151.5" cy="231.5" r="11.5" fill="#65E291"/>
<path d="M91.7829 190.488C89.6629 185.554 91.2353 179.81 95.5726 176.644V176.644C101.381 172.403 109.613 174.467 112.734 180.947L119.846 195.712C121.047 198.205 122.764 200.414 124.883 202.193L134.847 210.559C141.576 216.208 139.888 226.985 131.755 230.306V230.306C127.782 231.928 123.239 231.24 119.926 228.514L107.839 218.571C103.784 215.235 100.586 210.977 98.5133 206.152L91.7829 190.488Z" fill="#65E291"/>
</svg>
