<svg width="84" height="134" viewBox="0 0 84 134" fill="none" xmlns="http://www.w3.org/2000/svg">
<path d="M43 133.5L55.5 110.5L43 118.5L31 110.5L43 133.5Z" fill="#65E291"/>
<path d="M31 110.5L43 104L55.5 110.5L43 118.5L31 110.5Z" fill="#6DB486"/>
<path d="M21 100L43 88.6932V77L21 88.6932V100Z" fill="#6DB486"/>
<path d="M64 100L43 88.6549V77L64 88.6549V100Z" fill="#6DB486"/>
<path d="M21 90L43 101.798V114L21 101.798V90Z" fill="#65E291"/>
<path d="M64 89L43 102V114L64 101.332V89Z" fill="#65E291"/>
<path d="M10 77L42 59.3024V41L10 59.3024V77Z" fill="#6DB486"/>
<path d="M74 77L42 59.2425V41L74 59.2425V77Z" fill="#6DB486"/>
<path d="M10 60L42 78.1892V97L10 78.1892V60Z" fill="#65E291"/>
<path d="M74 59L42 78V97L74 77.744V59Z" fill="#65E291"/>
<path d="M0 48.6202L42.2301 24.7185V-1.00136e-05L0 24.7185V48.6202Z" fill="#6DB486"/>
<path d="M83.9043 48.7798L42.2298 24.7185V-8.20626e-07L83.9043 24.7185V48.7798Z" fill="#6DB486"/>
<path d="M0 25.1596L42.2301 49.0613V73.7798L0 49.0613V25.1596Z" fill="#65E291"/>
<path d="M83.9043 25L42.2298 49.0613V73.7798L83.9043 49.0613V25Z" fill="#65E291"/>
</svg>
