<svg width="75" height="75" viewBox="0 0 75 75" fill="none" xmlns="http://www.w3.org/2000/svg">
<ellipse cx="36.0527" cy="37.264" rx="36.0527" ry="37.264" fill="#65E291"/>
<path d="M65.1169 31.3016C70.3148 37.5389 69.6364 46.9506 63.6018 52.3231C57.5672 57.6955 48.4615 56.9944 43.2637 50.7571C43.2637 50.7571 48.1558 46.4019 54.1904 41.0294C60.225 35.6569 65.1169 31.3016 65.1169 31.3016Z" fill="white"/>
<path d="M9.41043 31.3407C4.21258 37.5781 4.89091 46.9897 10.9255 52.3622C16.9601 57.7347 26.0658 57.0336 31.2637 50.7962C31.2637 50.7962 26.3716 46.4411 20.337 41.0686C14.3024 35.6961 9.41043 31.3407 9.41043 31.3407Z" fill="white"/>
<rect x="20.9121" y="17.8866" width="3.60527" height="14.9056" rx="1.80264" fill="white"/>
<rect x="47.5918" y="14.1604" width="3.60527" height="22.3584" rx="1.80264" fill="white"/>
<rect x="34.6113" y="14.9058" width="3.60527" height="14.9056" rx="1.80264" fill="white"/>
<rect x="41.1016" y="6.70752" width="3.60527" height="37.264" rx="1.80264" fill="white"/>
<rect x="27.4023" y="10.4337" width="3.60527" height="26.8301" rx="1.80264" fill="white"/>
</svg>
